<?xml version="1.0" encoding="UTF-8" standalone="no"?>
<svg
   width="209.973mm"
   height="297.011mm"
   viewBox="0 0 2480 3508"
   version="1.2"
   id="svg107"
   sodipodi:docname="seg5.svg"
   inkscape:version="1.4.4 (dcaf3e7, 2026-05-05)"
   xmlns:inkscape="http://www.inkscape.org/namespaces/inkscape"
   xmlns:sodipodi="http://sodipodi.sourceforge.net/DTD/sodipodi-0.dtd"
   xmlns="http://www.w3.org/2000/svg"
   xmlns:svg="http://www.w3.org/2000/svg">
  <sodipodi:namedview
     id="namedview107"
     pagecolor="#ffffff"
     bordercolor="#000000"
     borderopacity="0.25"
     inkscape:showpageshadow="2"
     inkscape:pageopacity="0.0"
     inkscape:pagecheckerboard="0"
     inkscape:deskcolor="#d1d1d1"
     inkscape:document-units="mm"
     inkscape:zoom="0.76165112"
     inkscape:cx="396.507"
     inkscape:cy="561.2806"
     inkscape:window-width="1920"
     inkscape:window-height="1057"
     inkscape:window-x="-8"
     inkscape:window-y="-8"
     inkscape:window-maximized="1"
     inkscape:current-layer="g107" />
  <defs
     id="defs1" />
  <g
     fill="none"
     stroke="black"
     stroke-width="1"
     fill-rule="evenodd"
     stroke-linecap="square"
     stroke-linejoin="bevel"
     id="g107">
    <g
       fill="none"
       stroke="#000000"
       stroke-opacity="1"
       stroke-width="1"
       stroke-linecap="square"
       stroke-linejoin="bevel"
       transform="matrix(1,0,0,1,0,0)"
       font-family="Arial"
       font-size="12"
       font-weight="400"
       font-style="normal"
       id="g2" />
    <g
       fill="#000000"
       fill-opacity="1"
       stroke="#000000"
       stroke-opacity="1"
       stroke-width="1"
       stroke-linecap="butt"
       stroke-linejoin="miter"
       stroke-miterlimit="2"
       transform="matrix(1,0,0,1,0,0)"
       font-family="Arial"
       font-size="12"
       font-weight="400"
       font-style="normal"
       id="g3" />
    <g
       fill="#000000"
       fill-opacity="1"
       stroke="#000000"
       stroke-opacity="1"
       stroke-width="5"
       stroke-linecap="round"
       stroke-linejoin="bevel"
       transform="matrix(1,0,0,1,0,0)"
       font-family="Arial"
       font-size="12"
       font-weight="400"
       font-style="normal"
       id="g4">
      <polyline
         fill="none"
         vector-effect="none"
         points="1144.65,1887.83 1161.35,1897.47 "
         id="polyline3" />
      <polyline
         fill="none"
         vector-effect="none"
         points="1292.1,1671.02 1275.4,1661.37 "
         id="polyline4" />
    </g>
    <g
       fill="#000000"
       fill-opacity="1"
       stroke="#000000"
       stroke-opacity="1"
       stroke-width="2"
       stroke-linecap="round"
       stroke-linejoin="bevel"
       transform="matrix(1,0,0,1,0,0)"
       font-family="Arial"
       font-size="12"
       font-weight="400"
       font-style="normal"
       id="g5">
      <polyline
         fill="none"
         vector-effect="none"
         points="1134.87,1866.2 1151.57,1875.85 "
         id="polyline5" />
    </g>
    <g
       fill="#000000"
       fill-opacity="1"
       stroke="#000000"
       stroke-opacity="1"
       stroke-width="5"
       stroke-linecap="round"
       stroke-linejoin="bevel"
       transform="matrix(1,0,0,1,0,0)"
       font-family="Arial"
       font-size="12"
       font-weight="400"
       font-style="normal"
       id="g8">
      <polyline
         fill="none"
         vector-effect="none"
         points="1251.78,1663.71 1168.27,1711.93 "
         id="polyline6" />
      <polyline
         fill="none"
         vector-effect="none"
         points="1179.49,1866.06 1192.01,1873.29 "
         id="polyline7" />
      <polyline
         fill="none"
         vector-effect="none"
         points="1286.49,1709.66 1273.96,1702.42 "
         id="polyline8" />
    </g>
    <g
       fill="#000000"
       fill-opacity="1"
       stroke="#000000"
       stroke-opacity="1"
       stroke-width="2"
       stroke-linecap="round"
       stroke-linejoin="bevel"
       transform="matrix(1,0,0,1,0,0)"
       font-family="Arial"
       font-size="12"
       font-weight="400"
       font-style="normal"
       id="g9">
      <polyline
         fill="none"
         vector-effect="none"
         points="1168.27,1711.93 1184.97,1721.57 "
         id="polyline9" />
    </g>
    <g
       fill="#000000"
       fill-opacity="1"
       stroke="#000000"
       stroke-opacity="1"
       stroke-width="5"
       stroke-linecap="round"
       stroke-linejoin="bevel"
       transform="matrix(1,0,0,1,0,0)"
       font-family="Arial"
       font-size="12"
       font-weight="400"
       font-style="normal"
       id="g10">
      <polyline
         fill="none"
         vector-effect="none"
         points="1134.87,1866.2 1134.87,1769.78 "
         id="polyline10" />
    </g>
    <g
       fill="#000000"
       fill-opacity="1"
       stroke="#000000"
       stroke-opacity="1"
       stroke-width="2"
       stroke-linecap="round"
       stroke-linejoin="bevel"
       transform="matrix(1,0,0,1,0,0)"
       font-family="Arial"
       font-size="12"
       font-weight="400"
       font-style="normal"
       id="g11">
      <polyline
         fill="none"
         vector-effect="none"
         points="1151.57,1779.42 1134.87,1769.78 "
         id="polyline11" />
    </g>
    <g
       fill="#000000"
       fill-opacity="1"
       stroke="#000000"
       stroke-opacity="1"
       stroke-width="5"
       stroke-linecap="round"
       stroke-linejoin="bevel"
       transform="matrix(1,0,0,1,0,0)"
       font-family="Arial"
       font-size="12"
       font-weight="400"
       font-style="normal"
       id="g14">
      <polyline
         fill="none"
         vector-effect="none"
         points="1268.48,1673.36 1184.97,1721.57 "
         id="polyline12" />
      <polyline
         fill="none"
         vector-effect="none"
         points="1151.57,1875.85 1151.57,1779.42 "
         id="polyline13" />
      <polyline
         fill="none"
         vector-effect="none"
         points="1301.88,1726.7 1301.88,1692.64 "
         id="polyline14" />
    </g>
    <g
       fill="#000000"
       fill-opacity="1"
       stroke="#000000"
       stroke-opacity="1"
       stroke-width="2"
       stroke-linecap="round"
       stroke-linejoin="bevel"
       transform="matrix(1,0,0,1,0,0)"
       font-family="Arial"
       font-size="12"
       font-weight="400"
       font-style="normal"
       id="g15">
      <polyline
         fill="none"
         vector-effect="none"
         points="1268.48,1673.36 1251.78,1663.71 "
         id="polyline15" />
    </g>
    <g
       fill="#000000"
       fill-opacity="1"
       stroke="#000000"
       stroke-opacity="1"
       stroke-width="5"
       stroke-linecap="round"
       stroke-linejoin="bevel"
       transform="matrix(1,0,0,1,0,0)"
       font-family="Arial"
       font-size="12"
       font-weight="400"
       font-style="normal"
       id="g32">
      <polyline
         fill="none"
         vector-effect="none"
         points="1214.47,1878.1 1184.97,1895.13 "
         id="polyline16" />
      <polyline
         fill="none"
         vector-effect="none"
         points="1191.95,1873.26 1192.19,1873.4 1192.44,1873.53 1192.56,1873.6 1192.69,1873.67 1192.82,1873.74 1192.95,1873.82 1193.09,1873.89 1193.23,1873.97 1193.38,1874.04 1193.53,1874.12 1193.69,1874.2 1193.85,1874.28 1194.02,1874.36 1194.18,1874.45 1194.35,1874.53 1194.53,1874.61 1194.88,1874.78 1195.23,1874.94 1195.59,1875.1 1195.94,1875.25 1196.29,1875.39 1196.63,1875.53 1196.98,1875.67 1197.33,1875.8 1197.67,1875.93 1198.03,1876.06 1198.38,1876.18 1198.73,1876.3 1199.09,1876.41 1199.45,1876.52 1199.81,1876.63 1200.18,1876.74 1200.54,1876.84 1200.91,1876.94 1201.27,1877.03 1201.64,1877.12 1202.01,1877.21 1202.38,1877.29 1202.75,1877.37 1203.12,1877.45 1203.49,1877.52 1203.86,1877.59 1204.24,1877.66 1204.61,1877.72 1204.99,1877.78 1205.37,1877.83 1205.75,1877.88 1206.13,1877.93 1206.51,1877.97 1206.9,1878.02 1207.28,1878.05 1207.66,1878.09 1208.04,1878.12 1208.41,1878.14 1208.79,1878.17 1209.18,1878.19 1209.56,1878.2 1209.76,1878.21 1209.95,1878.22 1210.15,1878.22 1210.35,1878.23 1210.56,1878.23 1210.76,1878.23 1211.18,1878.23 1211.59,1878.23 1211.79,1878.23 1212,1878.22 1212.19,1878.22 1212.39,1878.22 1212.58,1878.21 1212.76,1878.21 1212.85,1878.2 1212.94,1878.2 1213.02,1878.2 1213.11,1878.2 1213.19,1878.19 1213.27,1878.19 1213.34,1878.19 1213.42,1878.18 1213.57,1878.18 1213.71,1878.17 1213.84,1878.16 1213.97,1878.15 1214.1,1878.14 1214.22,1878.14 1214.47,1878.12 "
         id="polyline17" />
      <polyline
         fill="none"
         vector-effect="none"
         points="1214.47,1878.12 1214.76,1878.1 1214.91,1878.09 1215.07,1878.07 1215.22,1878.06 1215.39,1878.05 1215.56,1878.03 1215.64,1878.02 1215.73,1878.02 1215.82,1878.01 1215.91,1878 1216.01,1877.99 1216.11,1877.98 1216.21,1877.97 1216.31,1877.96 1216.41,1877.94 1216.52,1877.93 1216.73,1877.91 1216.95,1877.88 1217.18,1877.85 1217.41,1877.82 1217.64,1877.79 1217.87,1877.76 1218.34,1877.69 1218.58,1877.66 1218.81,1877.62 1219.04,1877.59 1219.27,1877.55 1219.49,1877.51 1219.72,1877.47 1220.16,1877.39 1220.6,1877.31 1221.04,1877.22 1221.48,1877.13 1221.93,1877.03 1222.37,1876.93 1222.82,1876.83 1223.26,1876.72 1223.71,1876.61 1224.16,1876.5 1224.61,1876.38 1225.05,1876.26 1225.5,1876.13 1225.95,1876.01 1226.39,1875.87 1226.84,1875.74 1227.28,1875.6 1227.73,1875.45 1228.17,1875.31 1228.61,1875.16 1229.06,1875 1229.5,1874.85 1229.95,1874.69 1230.39,1874.52 1230.83,1874.36 1231.27,1874.19 1231.71,1874.02 1232.16,1873.84 1232.6,1873.66 1233.04,1873.48 1233.48,1873.29 1233.92,1873.1 1234.35,1872.91 1234.79,1872.71 1235.23,1872.51 1235.67,1872.31 1236.1,1872.11 1236.54,1871.9 1236.97,1871.69 1237.4,1871.48 1237.84,1871.27 1238.27,1871.05 1238.7,1870.82 1239.14,1870.6 1239.57,1870.36 1240.01,1870.13 1240.45,1869.89 1240.89,1869.64 1241.32,1869.4 1242.2,1868.91 "
         id="polyline18" />
      <polyline
         fill="none"
         vector-effect="none"
         points="1242.2,1868.91 1242.53,1868.72 1242.7,1868.62 1242.86,1868.52 1243.04,1868.42 1243.13,1868.37 1243.22,1868.31 1243.31,1868.26 1243.4,1868.2 1243.5,1868.14 1243.6,1868.08 1243.7,1868.02 1243.8,1867.96 1243.91,1867.9 1244.02,1867.83 1244.13,1867.76 1244.24,1867.7 1244.35,1867.63 1244.47,1867.55 1244.58,1867.48 1244.7,1867.41 1244.94,1867.26 1245.19,1867.1 1245.44,1866.95 1245.69,1866.79 1245.94,1866.63 1246.45,1866.3 1246.7,1866.14 1246.94,1865.98 1247.19,1865.81 1247.43,1865.65 1247.67,1865.49 1247.91,1865.33 1248.38,1865.01 1248.85,1864.69 1249.31,1864.36 1249.78,1864.04 1250.24,1863.7 1250.71,1863.36 1251.18,1863.02 1251.65,1862.68 1252.11,1862.33 1252.58,1861.98 1253.04,1861.63 1253.5,1861.27 1253.96,1860.91 1254.42,1860.55 1254.88,1860.19 1255.33,1859.82 1255.79,1859.45 1256.24,1859.08 1256.69,1858.7 1257.14,1858.32 1257.59,1857.94 1258.04,1857.56 1258.48,1857.18 1258.93,1856.79 1259.37,1856.4 1259.81,1856.01 1260.25,1855.61 1260.69,1855.21 1261.13,1854.81 1261.57,1854.4 1262,1853.99 1262.44,1853.58 1262.87,1853.17 1263.3,1852.76 1263.51,1852.55 1263.72,1852.35 1264.14,1851.95 1264.55,1851.54 1264.75,1851.34 1264.96,1851.13 1265.17,1850.92 1265.38,1850.71 1265.59,1850.5 1265.8,1850.28 1266.02,1850.06 1266.24,1849.83 1266.35,1849.71 1266.47,1849.6 1266.7,1849.36 1266.93,1849.11 1267.16,1848.87 1267.39,1848.63 1267.62,1848.38 1267.73,1848.26 1267.84,1848.15 1267.95,1848.03 1268.06,1847.91 1268.17,1847.8 1268.27,1847.69 1268.37,1847.58 1268.47,1847.48 1268.57,1847.37 1268.66,1847.27 1268.75,1847.18 1268.83,1847.09 1268.92,1847 1268.99,1846.91 1269.07,1846.84 1269.13,1846.76 1269.2,1846.69 1269.26,1846.63 1269.31,1846.57 1269.37,1846.51 1269.42,1846.45 1269.46,1846.4 1269.51,1846.35 1269.55,1846.31 1269.63,1846.22 1269.71,1846.13 "
         id="polyline19" />
      <polyline
         fill="none"
         vector-effect="none"
         points="1269.71,1846.13 1270,1845.81 1270.29,1845.48 1270.58,1845.15 1270.73,1844.99 1270.88,1844.82 1271.03,1844.65 1271.18,1844.48 1271.33,1844.3 1271.49,1844.13 1271.64,1843.95 1271.8,1843.76 1271.96,1843.58 1272.12,1843.39 1272.28,1843.2 1272.45,1843.01 1272.61,1842.82 1272.78,1842.62 1273.11,1842.22 1273.45,1841.82 1273.78,1841.42 1274.12,1841.01 1274.45,1840.61 1274.78,1840.21 1275.1,1839.81 1275.42,1839.41 1275.74,1839 1276.06,1838.6 1276.38,1838.2 1276.69,1837.79 1277.01,1837.39 1277.32,1836.98 1277.64,1836.57 1277.95,1836.16 1278.26,1835.74 1278.57,1835.33 1278.88,1834.91 1279.18,1834.5 1279.49,1834.08 1279.8,1833.66 1280.1,1833.24 1280.4,1832.82 1280.7,1832.4 1281,1831.97 1281.3,1831.55 1281.59,1831.12 1281.89,1830.7 1282.18,1830.27 1282.47,1829.84 1282.76,1829.41 1283.05,1828.98 1283.34,1828.55 1283.63,1828.12 1283.92,1827.68 1284.2,1827.25 1284.48,1826.81 1284.76,1826.38 1285.04,1825.94 1285.32,1825.5 1285.6,1825.06 1285.87,1824.62 1286.15,1824.18 1286.42,1823.74 1286.69,1823.29 1286.96,1822.85 1287.23,1822.4 1287.5,1821.96 1287.76,1821.51 1288.03,1821.06 1288.29,1820.61 1288.55,1820.16 1288.81,1819.71 1289.07,1819.26 1289.33,1818.81 1289.58,1818.36 1289.84,1817.9 1290.09,1817.45 1290.34,1816.99 1290.59,1816.54 1290.84,1816.08 1291.08,1815.62 1291.33,1815.16 1291.57,1814.7 1291.81,1814.24 1292.05,1813.78 1292.29,1813.32 1292.53,1812.86 1292.77,1812.4 1293,1811.93 1293.23,1811.47 1293.46,1811 1293.69,1810.54 1293.92,1810.07 1294.15,1809.61 1294.37,1809.14 1294.59,1808.67 1294.82,1808.2 1295.04,1807.73 1295.25,1807.26 1295.47,1806.79 1295.68,1806.32 1295.9,1805.85 1296.11,1805.38 1296.32,1804.9 1296.53,1804.43 1296.73,1803.96 1296.94,1803.48 1297.14,1803 1297.35,1802.53 1297.55,1802.05 1297.74,1801.57 1297.94,1801.09 1298.14,1800.61 1298.33,1800.14 1298.52,1799.66 1298.71,1799.19 1298.89,1798.72 1299.08,1798.25 1299.26,1797.77 1299.44,1797.3 1299.62,1796.81 1299.71,1796.57 1299.8,1796.32 1299.89,1796.07 1299.99,1795.82 1300.08,1795.57 1300.17,1795.31 1300.36,1794.8 1300.54,1794.29 1300.63,1794.03 1300.72,1793.78 1300.8,1793.53 1300.89,1793.29 1300.97,1793.05 1301.01,1792.93 1301.05,1792.82 1301.09,1792.7 1301.13,1792.59 1301.16,1792.48 1301.2,1792.37 1301.24,1792.27 1301.27,1792.17 1301.31,1792.06 1301.34,1791.97 1301.37,1791.87 1301.4,1791.78 1301.43,1791.68 1301.46,1791.59 1301.49,1791.51 1301.52,1791.42 1301.58,1791.25 1301.63,1791.09 1301.68,1790.93 1301.73,1790.78 1301.78,1790.63 1301.87,1790.34 "
         id="polyline20" />
      <polyline
         fill="none"
         vector-effect="none"
         points="1301.87,1790.34 1301.99,1789.98 1302.04,1789.8 1302.1,1789.61 1302.16,1789.42 1302.22,1789.23 1302.28,1789.03 1302.32,1788.93 1302.35,1788.83 1302.38,1788.72 1302.41,1788.62 1302.45,1788.51 1302.48,1788.4 1302.51,1788.28 1302.55,1788.17 1302.58,1788.05 1302.62,1787.93 1302.66,1787.81 1302.69,1787.69 1302.73,1787.56 1302.77,1787.43 1302.85,1787.18 1302.92,1786.91 1303,1786.64 1303.08,1786.37 1303.16,1786.09 1303.24,1785.82 1303.4,1785.26 1303.55,1784.7 1303.63,1784.43 1303.7,1784.16 1303.77,1783.89 1303.85,1783.62 1303.92,1783.35 1303.99,1783.08 1304.12,1782.55 1304.26,1782.03 1304.39,1781.5 1304.52,1780.98 1304.64,1780.45 1304.77,1779.92 1304.89,1779.39 1305.01,1778.86 1305.13,1778.32 1305.25,1777.79 1305.36,1777.25 1305.47,1776.72 1305.58,1776.19 1305.69,1775.66 1305.79,1775.12 1305.9,1774.59 1305.99,1774.06 1306.09,1773.53 1306.18,1773 1306.28,1772.47 1306.37,1771.93 1306.45,1771.4 1306.54,1770.87 1306.62,1770.34 1306.69,1769.81 1306.77,1769.28 1306.84,1768.75 1306.91,1768.22 1306.98,1767.69 1307.05,1767.16 1307.11,1766.63 1307.17,1766.1 1307.23,1765.57 1307.28,1765.04 1307.33,1764.51 1307.38,1763.98 1307.43,1763.46 1307.47,1762.93 1307.51,1762.4 1307.55,1761.88 1307.59,1761.35 1307.62,1760.83 1307.65,1760.3 1307.68,1759.78 1307.7,1759.25 1307.72,1758.73 1307.74,1758.21 1307.75,1757.68 1307.77,1757.16 1307.77,1756.64 1307.78,1756.12 1307.78,1755.6 1307.78,1755.09 1307.78,1754.57 1307.78,1754.05 1307.77,1753.53 1307.75,1753.02 1307.74,1752.5 1307.72,1751.99 1307.7,1751.48 1307.68,1750.96 1307.65,1750.45 1307.62,1749.94 1307.58,1749.43 1307.55,1748.93 1307.51,1748.42 1307.46,1747.91 1307.42,1747.41 1307.37,1746.9 1307.31,1746.4 1307.26,1745.9 1307.2,1745.4 1307.13,1744.9 1307.07,1744.4 1307,1743.9 1306.92,1743.41 1306.85,1742.91 1306.77,1742.42 1306.68,1741.93 1306.6,1741.44 1306.51,1740.95 1306.41,1740.46 1306.31,1739.98 1306.21,1739.49 1306.11,1739.01 1306,1738.53 1305.89,1738.05 1305.77,1737.57 1305.66,1737.1 1305.53,1736.62 1305.41,1736.15 1305.28,1735.68 1305.14,1735.21 1305.01,1734.74 1304.87,1734.28 1304.72,1733.82 1304.58,1733.36 1304.43,1732.91 1304.28,1732.45 1304.12,1732 1303.95,1731.55 1303.87,1731.32 1303.78,1731.09 1303.61,1730.63 1303.43,1730.17 1303.34,1729.94 1303.24,1729.71 1303.15,1729.49 1303.06,1729.27 1302.97,1729.05 1302.88,1728.84 1302.79,1728.64 1302.7,1728.44 1302.62,1728.24 1302.53,1728.05 1302.45,1727.87 1302.37,1727.69 1302.29,1727.52 1302.21,1727.35 1302.13,1727.18 1302.05,1727.01 1301.89,1726.69 "
         id="polyline21" />
      <polyline
         fill="none"
         vector-effect="none"
         points="1301.89,1726.69 1301.81,1726.51 1301.76,1726.42 1301.71,1726.32 1301.66,1726.22 1301.64,1726.17 1301.61,1726.11 1301.58,1726.06 1301.55,1726 1301.52,1725.94 1301.49,1725.87 1301.45,1725.81 1301.42,1725.74 1301.38,1725.67 1301.34,1725.6 1301.3,1725.52 1301.26,1725.44 1301.22,1725.37 1301.18,1725.28 1301.13,1725.2 1301.09,1725.12 1301,1724.95 1300.9,1724.77 1300.8,1724.59 1300.7,1724.41 1300.6,1724.22 1300.39,1723.85 1300.28,1723.67 1300.17,1723.48 1300.07,1723.31 1299.96,1723.13 1299.86,1722.96 1299.76,1722.79 1299.66,1722.62 1299.55,1722.46 1299.45,1722.29 1299.35,1722.13 1299.14,1721.81 1298.93,1721.5 1298.72,1721.19 1298.5,1720.87 1298.29,1720.56 1298.06,1720.25 1297.84,1719.93 1297.61,1719.62 1297.37,1719.32 1297.14,1719.01 1296.9,1718.71 1296.66,1718.41 1296.42,1718.12 1296.18,1717.82 1295.93,1717.53 1295.68,1717.25 1295.43,1716.96 1295.18,1716.68 1294.92,1716.4 1294.66,1716.13 1294.4,1715.85 1294.14,1715.58 1293.87,1715.32 1293.6,1715.05 1293.33,1714.79 1293.06,1714.53 1292.78,1714.28 1292.5,1714.02 1292.22,1713.77 1291.94,1713.53 1291.66,1713.29 1291.37,1713.05 1291.09,1712.82 1290.8,1712.58 1290.5,1712.35 1290.2,1712.12 1289.9,1711.9 1289.59,1711.67 1289.27,1711.44 1288.95,1711.22 1288.8,1711.11 1288.64,1711.01 1288.49,1710.9 1288.33,1710.8 1288.19,1710.7 1288.04,1710.61 1287.9,1710.51 1287.76,1710.42 1287.62,1710.34 1287.49,1710.26 1287.36,1710.18 1287.24,1710.1 1287.11,1710.03 1286.99,1709.96 1286.76,1709.81 1286.52,1709.68 "
         id="polyline22" />
      <polyline
         fill="none"
         vector-effect="none"
         points="1197.9,1863.05 1197.77,1862.98 1197.71,1862.95 1197.65,1862.91 1197.58,1862.87 1197.51,1862.83 1197.44,1862.79 1197.37,1862.74 1197.29,1862.69 1197.21,1862.64 1197.12,1862.59 1197.03,1862.53 1196.94,1862.47 1196.84,1862.4 1196.74,1862.34 1196.64,1862.27 1196.53,1862.19 1196.42,1862.12 1196.2,1861.97 1195.98,1861.82 1195.77,1861.66 1195.66,1861.58 1195.55,1861.5 1195.45,1861.43 1195.35,1861.35 1195.15,1861.2 1194.96,1861.05 1194.77,1860.9 1194.58,1860.74 1194.48,1860.66 1194.38,1860.58 1194.29,1860.5 1194.19,1860.41 1194.09,1860.32 1193.98,1860.23 1193.88,1860.13 1193.77,1860.03 1193.56,1859.83 1193.34,1859.62 1193.23,1859.52 1193.13,1859.42 1193.03,1859.32 1192.93,1859.23 1192.89,1859.18 1192.84,1859.14 1192.8,1859.09 1192.76,1859.05 1192.71,1859.01 1192.68,1858.97 1192.64,1858.93 1192.6,1858.9 1192.57,1858.86 1192.54,1858.83 1192.51,1858.8 1192.48,1858.77 1192.45,1858.75 1192.43,1858.72 1192.41,1858.7 1192.39,1858.68 1192.38,1858.67 1192.36,1858.65 1192.34,1858.62 1192.31,1858.6 1192.29,1858.58 "
         id="polyline23" />
      <polyline
         fill="none"
         vector-effect="none"
         points="1192.29,1858.58 1191.91,1858.15 1191.72,1857.93 1191.53,1857.72 1191.33,1857.49 1191.14,1857.26 1190.95,1857.03 1190.76,1856.79 1190.57,1856.55 1190.38,1856.3 1190.2,1856.05 1190.01,1855.79 1189.83,1855.54 1189.65,1855.28 1189.48,1855.02 1189.3,1854.76 1189.13,1854.5 1188.96,1854.23 1188.8,1853.96 1188.63,1853.7 1188.47,1853.42 1188.31,1853.15 1188.16,1852.88 1188,1852.6 1187.85,1852.32 1187.7,1852.04 1187.55,1851.75 1187.41,1851.47 1187.27,1851.18 1187.13,1850.89 1186.99,1850.6 1186.85,1850.31 1186.72,1850.02 1186.59,1849.72 1186.46,1849.42 1186.33,1849.12 1186.21,1848.82 1186.09,1848.52 1185.97,1848.22 1185.85,1847.91 1185.73,1847.6 1185.62,1847.3 1185.51,1846.99 1185.4,1846.67 1185.29,1846.36 1185.19,1846.05 1185.09,1845.73 1184.99,1845.41 1184.89,1845.09 1184.79,1844.77 1184.7,1844.45 1184.61,1844.13 1184.52,1843.81 1184.43,1843.48 1184.34,1843.15 1184.26,1842.83 1184.18,1842.5 1184.1,1842.17 1184.02,1841.83 1183.95,1841.5 1183.87,1841.17 1183.8,1840.83 1183.73,1840.5 1183.67,1840.16 1183.6,1839.82 1183.54,1839.48 1183.48,1839.14 1183.42,1838.8 1183.36,1838.46 1183.31,1838.11 1183.25,1837.77 1183.2,1837.42 1183.15,1837.08 1183.1,1836.73 1183.06,1836.38 1183.02,1836.03 1182.97,1835.68 1182.93,1835.33 1182.9,1834.98 1182.86,1834.62 1182.83,1834.27 1182.79,1833.92 1182.76,1833.56 1182.74,1833.2 1182.71,1832.85 1182.68,1832.49 1182.66,1832.13 1182.64,1831.77 1182.62,1831.41 1182.6,1831.05 1182.59,1830.69 1182.57,1830.33 1182.56,1829.96 1182.55,1829.6 1182.54,1829.24 1182.54,1828.87 1182.53,1828.5 1182.53,1828.14 1182.53,1827.77 1182.53,1827.4 1182.53,1827.04 1182.53,1826.67 1182.54,1826.3 1182.54,1825.93 1182.55,1825.56 1182.56,1825.19 1182.58,1824.82 1182.59,1824.44 1182.6,1824.07 1182.62,1823.7 1182.64,1823.33 1182.66,1822.95 1182.68,1822.58 1182.71,1822.2 1182.76,1821.45 1182.82,1820.7 1182.89,1819.95 1182.96,1819.19 1183.04,1818.43 1183.12,1817.68 1183.21,1816.92 1183.31,1816.15 1183.41,1815.39 1183.52,1814.63 1183.64,1813.87 1183.76,1813.1 1183.89,1812.34 1184.02,1811.57 1184.16,1810.8 1184.31,1810.03 1184.46,1809.26 1184.62,1808.5 1184.78,1807.73 1184.95,1806.96 1185.12,1806.19 1185.3,1805.42 1185.49,1804.65 1185.68,1803.87 1185.88,1803.1 1186.08,1802.33 1186.29,1801.56 1186.5,1800.79 1186.72,1800.02 1186.94,1799.25 1187.17,1798.48 1187.4,1797.71 1187.64,1796.94 1187.89,1796.17 1188.14,1795.4 1188.39,1794.64 1188.65,1793.87 1188.92,1793.1 1189.19,1792.34 1189.46,1791.57 1189.74,1790.81 1190.03,1790.04 1190.32,1789.28 1190.61,1788.52 1190.91,1787.76 1191.22,1787 1191.53,1786.24 1191.84,1785.48 1192.16,1784.73 1192.48,1783.97 1192.81,1783.22 1193.14,1782.47 1193.48,1781.72 1193.82,1780.97 1194.16,1780.22 1194.51,1779.47 1194.87,1778.73 1195.23,1777.99 1195.59,1777.25 1195.96,1776.51 1196.33,1775.77 1196.71,1775.03 1197.09,1774.3 1197.47,1773.57 1197.86,1772.84 1198.26,1772.11 1198.65,1771.38 1199.05,1770.66 1199.46,1769.94 1199.87,1769.22 1200.28,1768.5 1200.7,1767.79 1201.12,1767.08 1201.55,1766.37 1201.98,1765.66 1202.41,1764.96 1202.85,1764.25 1203.29,1763.55 1203.74,1762.86 1204.19,1762.16 1204.64,1761.47 1205.09,1760.78 1205.55,1760.1 1206.02,1759.42 1206.49,1758.74 1206.96,1758.06 1207.43,1757.39 1207.91,1756.72 1208.39,1756.05 1208.88,1755.39 1209.37,1754.73 1209.86,1754.07 1210.35,1753.41 1210.85,1752.76 1211.35,1752.12 1211.86,1751.47 1212.37,1750.83 1212.88,1750.2 1213.4,1749.57 1213.92,1748.94 1214.44,1748.31 1214.96,1747.69 1215.49,1747.07 1216.02,1746.46 1216.56,1745.85 1217.1,1745.25 1217.64,1744.65 1218.18,1744.05 1218.73,1743.46 1219.28,1742.87 1219.83,1742.29 1220.38,1741.71 1220.94,1741.13 1221.5,1740.56 1222.07,1740 1222.63,1739.44 1223.2,1738.88 1223.78,1738.33 1224.35,1737.78 1224.93,1737.24 1225.51,1736.71 1226.09,1736.18 1226.67,1735.65 1227.26,1735.13 1227.85,1734.61 1228.44,1734.1 1229.04,1733.6 1229.64,1733.1 1230.24,1732.61 1230.84,1732.12 1231.44,1731.64 1232.05,1731.16 1232.66,1730.69 1233.27,1730.22 1233.88,1729.76 1234.49,1729.31 1235.11,1728.87 1235.73,1728.43 1236.35,1727.99 1236.97,1727.56 1237.28,1727.35 1237.59,1727.14 1237.91,1726.93 1238.22,1726.73 1238.53,1726.52 1238.85,1726.32 1239.16,1726.12 1239.47,1725.92 1239.79,1725.72 1240.1,1725.53 1240.42,1725.33 1240.74,1725.14 1241.05,1724.95 1241.37,1724.76 1241.69,1724.57 1242,1724.39 1242.32,1724.2 1242.64,1724.02 1242.96,1723.84 1243.28,1723.66 1243.6,1723.48 1243.92,1723.31 1244.24,1723.14 1244.56,1722.97 1244.88,1722.8 1245.2,1722.63 1245.52,1722.46 1245.84,1722.3 1246.16,1722.14 1246.48,1721.98 1246.81,1721.82 1247.13,1721.67 1247.45,1721.52 1247.77,1721.36 1248.1,1721.21 1248.42,1721.07 1248.74,1720.92 1249.07,1720.78 1249.39,1720.64 1249.71,1720.5 1250.04,1720.36 1250.36,1720.23 1250.69,1720.1 1251.01,1719.96 1251.33,1719.84 1251.66,1719.71 1251.98,1719.59 1252.31,1719.46 1252.63,1719.35 1252.96,1719.23 1253.28,1719.11 1253.61,1719 1253.93,1718.89 1254.26,1718.78 1254.58,1718.68 1254.91,1718.57 1255.23,1718.47 1255.56,1718.37 1255.88,1718.28 1256.2,1718.18 1256.53,1718.09 1256.85,1718 1257.18,1717.92 1257.5,1717.83 1257.83,1717.75 1258.15,1717.67 1258.47,1717.59 1258.8,1717.52 1259.12,1717.45 1259.44,1717.38 1259.77,1717.31 1260.09,1717.25 1260.41,1717.19 1260.74,1717.13 1261.06,1717.07 1261.38,1717.02 1261.7,1716.97 1262.02,1716.92 1262.34,1716.87 1262.66,1716.83 1262.98,1716.79 1263.3,1716.75 1263.62,1716.72 1263.94,1716.69 1264.26,1716.66 1264.58,1716.63 1264.9,1716.61 1265.21,1716.59 1265.53,1716.57 1265.84,1716.56 1266.16,1716.54 1266.48,1716.53 1266.79,1716.53 1267.11,1716.53 1267.42,1716.53 1267.74,1716.53 1268.05,1716.54 1268.36,1716.55 1268.67,1716.56 1268.98,1716.57 1269.28,1716.59 1269.59,1716.61 1269.89,1716.63 1270.19,1716.66 1270.49,1716.69 1270.65,1716.71 1270.8,1716.72 1270.96,1716.74 1271.12,1716.76 1271.28,1716.78 1271.44,1716.81 1271.77,1716.86 1272.1,1716.91 1272.27,1716.94 1272.42,1716.97 1272.58,1716.99 1272.73,1717.02 1272.87,1717.05 1272.94,1717.06 1273.01,1717.07 1273.07,1717.08 1273.14,1717.1 1273.2,1717.11 1273.25,1717.12 1273.31,1717.13 1273.36,1717.14 1273.41,1717.15 1273.46,1717.16 1273.51,1717.17 1273.55,1717.18 1273.64,1717.2 1273.71,1717.22 1273.79,1717.24 1273.93,1717.27 "
         id="polyline24" />
      <polyline
         fill="none"
         vector-effect="none"
         points="1273.93,1717.27 1274.29,1717.36 1274.48,1717.41 1274.67,1717.46 1274.86,1717.51 1275.06,1717.56 1275.16,1717.59 1275.26,1717.62 1275.37,1717.65 1275.47,1717.68 1275.69,1717.75 1275.91,1717.82 1276.13,1717.89 1276.36,1717.97 1276.59,1718.05 1276.82,1718.13 1277.05,1718.22 1277.28,1718.3 1277.5,1718.39 1277.73,1718.48 1277.95,1718.57 1278.17,1718.67 1278.38,1718.76 1278.6,1718.86 1278.81,1718.95 1279.01,1719.05 1279.21,1719.15 1279.41,1719.25 1279.61,1719.35 1279.8,1719.46 1280.18,1719.66 1280.56,1719.87 "
         id="polyline25" />
      <polyline
         fill="none"
         vector-effect="none"
         points="1228.44,1775.01 1228.32,1774.94 1228.19,1774.88 1228.06,1774.82 1227.92,1774.77 1227.79,1774.73 1227.65,1774.69 1227.51,1774.66 1227.36,1774.63 1227.22,1774.61 1227.07,1774.6 1226.91,1774.59 1226.76,1774.59 1226.6,1774.6 1226.45,1774.61 1226.29,1774.62 1226.13,1774.65 1225.96,1774.68 1225.8,1774.71 1225.63,1774.76 1225.46,1774.8 1225.3,1774.86 1225.13,1774.92 1224.96,1774.98 1224.78,1775.05 1224.61,1775.13 1224.44,1775.21 1224.27,1775.3 1224.1,1775.4 1223.92,1775.5 1223.75,1775.6 1223.58,1775.71 1223.41,1775.83 1223.24,1775.95 1223.06,1776.07 1222.89,1776.2 1222.73,1776.34 1222.56,1776.48 1222.39,1776.63 1222.22,1776.78 1222.06,1776.93 1221.9,1777.09 1221.73,1777.25 1221.57,1777.42 1221.42,1777.59 1221.26,1777.77 1221.11,1777.95 1220.95,1778.13 1220.8,1778.31 1220.66,1778.5 1220.51,1778.7 1220.37,1778.89 1220.23,1779.09 1220.1,1779.29 1219.96,1779.49 1219.83,1779.7 1219.71,1779.91 1219.58,1780.12 1219.46,1780.33 1219.34,1780.55 1219.23,1780.76 1219.12,1780.98 1219.02,1781.2 1218.91,1781.42 1218.81,1781.64 1218.72,1781.86 1218.63,1782.08 1218.54,1782.3 1218.46,1782.53 1218.38,1782.75 1218.31,1782.97 1218.24,1783.19 1218.18,1783.42 1218.12,1783.64 1218.06,1783.86 1218.01,1784.08 1217.96,1784.3 1217.92,1784.52 1217.88,1784.73 1217.85,1784.95 1217.82,1785.16 1217.8,1785.37 1217.78,1785.58 1217.76,1785.79 1217.75,1785.99 1217.75,1786.19 1217.75,1786.39 1217.75,1786.59 1217.76,1786.78 1217.78,1786.97 1217.8,1787.16 1217.82,1787.34 1217.85,1787.52 1217.88,1787.7 1217.92,1787.87 1217.96,1788.04 1218.01,1788.21 1218.06,1788.37 1218.12,1788.52 1218.18,1788.67 1218.24,1788.82 1218.31,1788.96 1218.38,1789.1 1218.46,1789.23 1218.54,1789.36 1218.63,1789.48 1218.72,1789.6 1218.81,1789.71 1218.91,1789.82 1219.02,1789.92 1219.12,1790.02 1219.23,1790.11 1219.34,1790.19 1219.46,1790.27 1219.58,1790.35 1219.71,1790.41 1219.83,1790.48 1219.96,1790.53 1220.1,1790.58 1220.23,1790.63 1220.37,1790.66 1220.51,1790.69 1220.66,1790.72 1220.8,1790.74 1220.95,1790.75 1221.11,1790.76 1221.26,1790.76 1221.42,1790.76 1221.57,1790.75 1221.73,1790.73 1221.9,1790.7 1222.06,1790.68 1222.22,1790.64 1222.39,1790.6 1222.56,1790.55 1222.73,1790.5 1222.89,1790.44 1223.06,1790.37 1223.24,1790.3 1223.41,1790.22 1223.58,1790.14 1223.75,1790.05 1223.92,1789.96 1224.1,1789.86 1224.27,1789.75 1224.44,1789.64 1224.61,1789.53 1224.78,1789.41 1224.96,1789.28 1225.13,1789.15 1225.3,1789.01 1225.46,1788.87 1225.63,1788.73 1225.8,1788.58 1225.96,1788.42 1226.13,1788.26 1226.29,1788.1 1226.45,1787.93 1226.6,1787.76 1226.76,1787.59 1226.91,1787.41 1227.07,1787.22 1227.22,1787.04 1227.36,1786.85 1227.51,1786.66 1227.65,1786.46 1227.79,1786.26 1227.92,1786.06 1228.06,1785.86 1228.19,1785.65 1228.32,1785.44 1228.44,1785.23 1228.56,1785.02 1228.68,1784.81 1228.79,1784.59 1228.9,1784.37 1229.01,1784.16 1229.11,1783.94 1229.21,1783.72 1229.3,1783.49 1229.39,1783.27 1229.48,1783.05 1229.56,1782.83 1229.64,1782.6 1229.71,1782.38 1229.78,1782.16 1229.84,1781.94 1229.91,1781.72 1229.96,1781.49 1230.01,1781.27 1230.06,1781.06 1230.1,1780.84 1230.14,1780.62 1230.17,1780.41 1230.2,1780.19 1230.23,1779.98 1230.24,1779.77 1230.26,1779.57 1230.27,1779.36 1230.27,1779.16 1230.27,1778.96 1230.27,1778.76 1230.26,1778.57 1230.24,1778.38 1230.23,1778.19 1230.2,1778.01 1230.17,1777.83 1230.14,1777.65 1230.1,1777.48 1230.06,1777.31 1230.01,1777.15 1229.96,1776.99 1229.91,1776.83 1229.84,1776.68 1229.78,1776.53 1229.71,1776.39 1229.64,1776.25 1229.56,1776.12 1229.48,1775.99 1229.39,1775.87 1229.3,1775.75 1229.21,1775.64 1229.11,1775.53 1229.01,1775.43 1228.9,1775.33 1228.79,1775.24 1228.68,1775.16 1228.56,1775.08 1228.44,1775.01 "
         id="polyline26" />
      <polyline
         fill="none"
         vector-effect="none"
         points="1144.65,1887.83 1144.08,1887.48 1143.52,1887.11 1142.98,1886.71 1142.45,1886.29 1141.94,1885.85 1141.44,1885.38 1140.96,1884.89 1140.5,1884.38 1140.05,1883.85 1139.62,1883.29 1139.21,1882.71 1138.81,1882.11 1138.43,1881.49 1138.07,1880.84 1137.73,1880.18 1137.41,1879.5 1137.11,1878.79 1136.82,1878.07 1136.55,1877.33 1136.31,1876.57 1136.08,1875.79 1135.87,1875 1135.68,1874.19 1135.51,1873.36 1135.36,1872.51 1135.23,1871.65 1135.12,1870.78 1135.03,1869.89 1134.96,1868.99 1134.91,1868.07 1134.88,1867.14 1134.87,1866.2 "
         id="polyline27" />
      <polyline
         fill="none"
         vector-effect="none"
         points="1214.91,1804.7 1214.63,1804.52 1214.35,1804.34 1214.08,1804.14 1213.81,1803.93 1213.56,1803.71 1213.31,1803.48 1213.07,1803.23 1212.84,1802.97 1212.61,1802.71 1212.4,1802.43 1212.19,1802.14 1212,1801.84 1211.81,1801.53 1211.63,1801.21 1211.46,1800.87 1211.29,1800.53 1211.14,1800.18 1211,1799.82 1210.87,1799.45 1210.74,1799.07 1210.63,1798.68 1210.52,1798.28 1210.43,1797.88 1210.34,1797.46 1210.27,1797.04 1210.2,1796.61 1210.15,1796.17 1210.1,1795.73 1210.07,1795.28 1210.04,1794.82 1210.03,1794.36 1210.02,1793.89 1210.03,1793.41 1210.04,1792.93 1210.07,1792.44 1210.1,1791.95 1210.15,1791.45 1210.2,1790.95 1210.27,1790.45 1210.34,1789.94 1210.43,1789.43 1210.52,1788.91 1210.63,1788.39 1210.74,1787.87 1210.87,1787.35 1211,1786.83 1211.14,1786.3 1211.29,1785.77 1211.46,1785.24 1211.63,1784.71 1211.81,1784.19 1212,1783.66 1212.19,1783.13 1212.4,1782.6 1212.61,1782.07 1212.84,1781.55 1213.07,1781.02 1213.31,1780.5 1213.56,1779.98 1213.81,1779.46 1214.08,1778.95 1214.35,1778.44 1214.63,1777.93 1214.91,1777.43 1215.21,1776.93 1215.51,1776.43 1215.82,1775.94 1216.13,1775.45 1216.45,1774.97 1216.78,1774.5 1217.11,1774.03 1217.45,1773.57 1217.79,1773.11 1218.14,1772.66 1218.49,1772.22 1218.85,1771.78 1219.22,1771.35 1219.58,1770.93 1219.96,1770.52 1220.33,1770.12 1220.71,1769.72 1221.1,1769.33 1221.49,1768.96 1221.88,1768.59 1222.27,1768.23 1222.67,1767.88 1223.06,1767.54 1223.47,1767.21 1223.87,1766.89 1224.27,1766.58 1224.68,1766.28 1225.09,1766 1225.5,1765.72 1225.9,1765.45 1226.31,1765.2 1226.72,1764.96 1227.13,1764.73 1227.54,1764.51 1227.95,1764.3 1228.36,1764.11 1228.77,1763.92 1229.17,1763.75 1229.58,1763.59 1229.98,1763.45 1230.38,1763.31 1230.78,1763.19 1231.18,1763.09 1231.57,1762.99 1231.96,1762.91 1232.35,1762.84 1232.73,1762.78 1233.12,1762.74 1233.49,1762.71 1233.86,1762.69 1234.23,1762.68 1234.6,1762.69 1234.96,1762.71 1235.31,1762.74 1235.66,1762.79 1236,1762.85 1236.34,1762.92 1236.67,1763.01 1237,1763.11 1237.32,1763.22 1237.63,1763.34 1237.94,1763.48 1238.24,1763.63 1238.53,1763.79 1238.82,1763.96 1239.1,1764.15 1239.37,1764.35 1239.63,1764.56 1239.89,1764.78 1240.14,1765.01 1240.38,1765.26 1240.61,1765.51 1240.83,1765.78 1241.05,1766.06 1241.26,1766.35 1241.45,1766.65 1241.64,1766.96 1241.82,1767.28 1241.99,1767.61 1242.15,1767.95 1242.31,1768.31 1242.45,1768.67 1242.58,1769.04 1242.71,1769.42 1242.82,1769.81 1242.92,1770.2 1243.02,1770.61 1243.1,1771.02 1243.18,1771.45 1243.24,1771.88 1243.3,1772.31 1243.34,1772.76 1243.38,1773.21 1243.41,1773.67 1243.42,1774.13 1243.43,1774.6 1243.42,1775.08 1243.41,1775.56 1243.38,1776.05 1243.34,1776.54 1243.3,1777.03 1243.24,1777.53 1243.18,1778.04 1243.1,1778.55 1243.02,1779.06 1242.92,1779.58 1242.82,1780.09 1242.71,1780.61 1242.58,1781.14 1242.45,1781.66 1242.31,1782.19 1242.15,1782.71 1241.99,1783.24 1241.82,1783.77 1241.64,1784.3 1241.45,1784.83 1241.26,1785.36 1241.05,1785.89 1240.83,1786.41 1240.61,1786.94 1240.38,1787.46 1240.14,1787.99 1239.89,1788.51 1239.63,1789.02 1239.37,1789.54 1239.1,1790.05 1238.82,1790.56 1238.53,1791.06 1238.24,1791.56 1237.94,1792.06 1237.63,1792.55 1237.32,1793.03 1237,1793.51 1236.67,1793.99 1236.34,1794.46 1236,1794.92 1235.66,1795.38 1235.31,1795.83 1234.96,1796.27 1234.6,1796.71 1234.23,1797.13 1233.86,1797.55 1233.49,1797.97 1233.12,1798.37 1232.73,1798.77 1232.35,1799.15 1231.96,1799.53 1231.57,1799.9 1231.18,1800.26 1230.78,1800.61 1230.38,1800.95 1229.98,1801.28 1229.58,1801.6 1229.17,1801.9 1228.77,1802.2 1228.36,1802.49 1227.95,1802.77 1227.54,1803.03 1227.13,1803.29 1226.72,1803.53 1226.31,1803.76 1225.9,1803.98 1225.5,1804.19 1225.09,1804.38 1224.68,1804.56 1224.27,1804.73 1223.87,1804.89 1223.47,1805.04 1223.06,1805.17 1222.67,1805.29 1222.27,1805.4 1221.88,1805.5 1221.49,1805.58 1221.1,1805.65 1220.71,1805.71 1220.33,1805.75 1219.96,1805.78 1219.58,1805.8 1219.22,1805.8 1218.85,1805.8 1218.49,1805.78 1218.14,1805.74 1217.79,1805.69 1217.45,1805.64 1217.11,1805.56 1216.78,1805.48 1216.45,1805.38 1216.13,1805.27 1215.82,1805.14 1215.51,1805.01 1215.21,1804.86 1214.91,1804.7 "
         id="polyline28" />
      <polyline
         fill="none"
         vector-effect="none"
         points="1251.78,1663.71 1252.57,1663.26 1253.37,1662.84 1254.16,1662.44 1254.95,1662.05 1255.74,1661.7 1256.53,1661.36 1257.32,1661.05 1258.1,1660.76 1258.88,1660.5 1259.65,1660.25 1260.42,1660.04 1261.19,1659.84 1261.95,1659.67 1262.7,1659.53 1263.45,1659.41 1264.19,1659.31 1264.92,1659.24 1265.65,1659.19 1266.37,1659.16 1267.08,1659.16 1267.78,1659.19 1268.48,1659.24 1269.16,1659.31 1269.83,1659.41 1270.5,1659.53 1271.15,1659.68 1271.79,1659.85 1272.42,1660.04 1273.04,1660.26 1273.65,1660.5 1274.24,1660.77 1274.83,1661.06 1275.4,1661.37 "
         id="polyline29" />
      <polyline
         fill="none"
         vector-effect="none"
         points="1273.97,1717.22 1274.79,1718.08 1275.59,1718.99 1276.36,1719.93 1277.1,1720.92 1277.8,1721.94 1278.48,1722.99 1279.13,1724.09 1279.75,1725.22 1280.33,1726.38 1280.88,1727.58 1281.4,1728.82 1281.89,1730.08 1282.35,1731.38 1282.77,1732.71 1283.16,1734.07 1283.51,1735.46 1283.83,1736.88 1284.12,1738.33 1284.37,1739.8 1284.59,1741.31 1284.78,1742.83 1284.93,1744.38 1285.04,1745.96 1285.12,1747.56 1285.17,1749.18 1285.18,1750.82 1285.15,1752.48 1285.09,1754.16 1285,1755.86 1284.87,1757.57 1284.71,1759.3 1284.51,1761.05 1284.28,1762.81 1284.01,1764.58 1283.71,1766.37 1283.38,1768.16 1283.01,1769.96 1282.61,1771.78 1282.17,1773.6 1281.7,1775.42 1281.2,1777.26 1280.67,1779.09 1280.1,1780.93 1279.51,1782.77 1278.88,1784.61 1278.22,1786.45 1277.53,1788.29 1276.81,1790.13 1276.06,1791.97 1275.28,1793.8 1274.47,1795.62 1273.63,1797.44 1272.77,1799.25 1271.87,1801.05 1270.95,1802.84 1270.01,1804.62 1269.04,1806.38 1268.04,1808.14 1267.02,1809.88 1265.97,1811.6 1264.9,1813.31 1263.81,1815 1262.7,1816.67 1261.56,1818.33 1260.41,1819.96 1259.23,1821.57 1258.04,1823.16 1256.82,1824.73 1255.59,1826.27 1254.34,1827.79 1253.08,1829.28 1251.8,1830.74 1250.5,1832.18 1249.19,1833.59 1247.87,1834.96 1246.53,1836.31 1245.18,1837.63 1243.82,1838.92 1242.45,1840.17 1241.08,1841.39 1239.69,1842.57 1238.29,1843.73 1236.89,1844.84 1235.48,1845.92 1234.07,1846.96 1232.65,1847.97 1231.23,1848.94 1229.81,1849.87 1228.38,1850.76 1226.96,1851.61 1225.53,1852.42 1224.1,1853.19 1222.68,1853.91 1221.26,1854.6 1219.84,1855.25 1218.43,1855.85 1217.02,1856.41 1215.61,1856.93 1214.21,1857.4 1212.82,1857.83 1211.44,1858.22 1210.07,1858.56 1208.71,1858.86 1207.36,1859.11 1206.02,1859.32 1204.69,1859.48 1203.37,1859.6 1202.07,1859.68 1200.79,1859.71 1199.52,1859.69 1198.26,1859.63 1197.02,1859.53 1195.8,1859.38 1194.6,1859.18 1193.42,1858.94 1192.26,1858.66 "
         id="polyline30" />
      <polyline
         fill="none"
         vector-effect="none"
         points="1179.49,1866.06 1178.34,1865.37 1177.23,1864.63 1176.14,1863.83 1175.08,1862.99 1174.06,1862.11 1173.07,1861.17 1172.11,1860.19 1171.18,1859.17 1170.28,1858.1 1169.42,1856.98 1168.6,1855.82 1167.81,1854.62 1167.05,1853.38 1166.33,1852.09 1165.65,1850.76 1165,1849.4 1164.4,1847.99 1163.82,1846.55 1163.29,1845.06 1162.8,1843.54 1162.34,1841.99 1161.92,1840.4 1161.54,1838.78 1161.2,1837.12 1160.9,1835.43 1160.64,1833.71 1160.42,1831.97 1160.24,1830.19 1160.1,1828.38 1160,1826.55 1159.94,1824.69 1159.92,1822.81 1159.94,1820.91 1160,1818.98 1160.1,1817.03 1160.24,1815.07 1160.42,1813.08 1160.64,1811.08 1160.9,1809.06 1161.2,1807.02 1161.54,1804.97 1161.92,1802.91 1162.34,1800.84 1162.8,1798.76 1163.29,1796.67 1163.82,1794.57 1164.4,1792.47 1165,1790.36 1165.65,1788.24 1166.33,1786.13 1167.05,1784.01 1167.81,1781.9 1168.6,1779.78 1169.42,1777.67 1170.28,1775.56 1171.18,1773.46 1172.11,1771.36 1173.07,1769.27 1174.06,1767.19 1175.08,1765.12 1176.14,1763.06 1177.23,1761.02 1178.34,1758.99 1179.49,1756.97 1180.66,1754.97 1181.86,1752.99 1183.09,1751.03 1184.34,1749.08 1185.62,1747.16 1186.93,1745.26 1188.26,1743.38 1189.61,1741.53 1190.98,1739.71 1192.38,1737.91 1193.8,1736.14 1195.23,1734.39 1196.69,1732.68 1198.16,1731 1199.65,1729.35 1201.16,1727.74 1202.68,1726.15 1204.22,1724.61 1205.77,1723.1 1207.33,1721.62 1208.91,1720.19 1210.49,1718.79 1212.09,1717.43 1213.69,1716.11 1215.3,1714.83 1216.92,1713.6 1218.55,1712.41 1220.18,1711.26 1221.81,1710.15 1223.45,1709.09 1225.08,1708.07 1226.72,1707.1 1228.36,1706.18 1230,1705.3 1231.64,1704.48 1233.27,1703.69 1234.9,1702.96 1236.53,1702.28 1238.15,1701.65 1239.76,1701.06 1241.36,1700.53 1242.96,1700.04 1244.54,1699.61 1246.12,1699.23 1247.68,1698.9 1249.23,1698.62 1250.77,1698.39 1252.29,1698.22 1253.8,1698.09 1255.29,1698.02 1256.76,1698 1258.22,1698.03 1259.65,1698.11 1261.07,1698.25 1262.46,1698.44 1263.84,1698.68 1265.19,1698.97 1266.52,1699.31 1267.82,1699.7 1269.1,1700.15 1270.36,1700.64 1271.59,1701.18 1272.79,1701.78 1273.96,1702.42 "
         id="polyline31" />
      <polyline
         fill="none"
         vector-effect="none"
         points="1210.08,1792.21 1210.12,1792.59 1210.16,1792.95 1210.22,1793.31 1210.28,1793.67 1210.35,1794.01 1210.42,1794.35 1210.51,1794.69 1210.6,1795.01 1210.7,1795.33 1210.81,1795.64 1210.93,1795.95 1211.05,1796.24 1211.19,1796.53 1211.33,1796.81 1211.48,1797.08 1211.63,1797.34 1211.79,1797.6 1211.97,1797.84 1212.14,1798.08 1212.33,1798.3 1212.52,1798.52 1212.72,1798.73 1212.92,1798.92 1213.13,1799.11 1213.35,1799.29 1213.58,1799.46 1213.81,1799.62 1214.05,1799.76 1214.29,1799.9 1214.54,1800.03 1214.79,1800.15 1215.05,1800.25 1215.32,1800.35 1215.59,1800.43 1215.87,1800.51 1216.15,1800.57 1216.43,1800.63 1216.72,1800.67 1217.02,1800.7 1217.31,1800.72 1217.62,1800.73 1217.92,1800.73 1218.23,1800.72 1218.55,1800.7 1218.86,1800.67 1219.18,1800.62 1219.51,1800.57 1219.83,1800.5 1220.16,1800.43 1220.49,1800.34 1220.82,1800.24 1221.15,1800.14 1221.49,1800.02 1221.83,1799.89 1222.17,1799.75 1222.51,1799.6 1222.85,1799.44 1223.19,1799.27 1223.53,1799.09 1223.87,1798.91 1224.21,1798.71 1224.56,1798.5 1224.9,1798.28 1225.24,1798.05 1225.58,1797.82 1225.92,1797.57 1226.26,1797.32 1226.6,1797.06 1226.93,1796.78 1227.27,1796.5 1227.6,1796.22 1227.93,1795.92 1228.25,1795.62 1228.58,1795.3 1228.9,1794.98 1229.22,1794.66 1229.54,1794.32 1229.85,1793.98 1230.16,1793.63 1230.46,1793.28 1230.77,1792.92 1231.06,1792.55 1231.36,1792.18 1231.65,1791.8 1231.93,1791.42 1232.21,1791.03 1232.48,1790.63 1232.75,1790.23 1233.02,1789.83 1233.28,1789.42 1233.53,1789.01 1233.78,1788.6 1234.02,1788.18 1234.26,1787.75 1234.49,1787.33 1234.71,1786.9 1234.93,1786.47 1235.14,1786.04 1235.34,1785.6 1235.54,1785.16 1235.73,1784.73 1235.91,1784.29 1236.09,1783.85 1236.26,1783.41 1236.42,1782.96 1236.57,1782.52 1236.72,1782.08 1236.86,1781.64 1236.99,1781.2 1237.11,1780.76 1237.23,1780.32 1237.34,1779.88 1237.44,1779.45 1237.53,1779.01 1237.61,1778.58 1237.69,1778.15 1237.76,1777.73 1237.82,1777.3 1237.87,1776.88 1237.91,1776.47 1237.94,1776.05 1237.97,1775.64 1237.99,1775.24 1238,1774.84 1238,1774.44 1237.99,1774.05 1237.97,1773.67 1237.95,1773.29 1237.92,1772.91 1237.88,1772.54 1237.83,1772.18 1237.77,1771.82 1237.7,1771.47 1237.63,1771.13 1237.55,1770.79 1237.46,1770.47 1237.36,1770.14 1237.25,1769.83 1237.14,1769.52 1237.02,1769.22 1236.89,1768.93 1236.75,1768.65 1236.6,1768.38 1236.45,1768.11 1236.29,1767.85 1236.12,1767.61 1235.95,1767.37 1235.77,1767.14 1235.58,1766.92 1235.38,1766.71 1235.18,1766.51 1234.97,1766.31 1234.75,1766.13 1234.53,1765.96 1234.3,1765.8 1234.07,1765.65 1233.83,1765.5 1233.58,1765.37 1233.33,1765.25 1233.07,1765.14 1232.81,1765.04 1232.54,1764.95 1232.26,1764.87 1231.99,1764.8 1231.7,1764.75 1231.41,1764.7 1231.12,1764.66 1230.82,1764.64 1230.52,1764.62 1230.22,1764.62 1229.91,1764.63 1229.6,1764.64 1229.28,1764.67 1228.96,1764.71 1228.64,1764.76 1228.32,1764.82 1227.99,1764.89 1227.66,1764.98 1227.33,1765.07 1227,1765.17 1226.66,1765.29 1226.32,1765.41 1225.99,1765.55 1225.65,1765.69 1225.31,1765.85 "
         id="polyline32" />
    </g>
    <g
       fill="#000000"
       fill-opacity="1"
       stroke="#000000"
       stroke-opacity="1"
       stroke-width="2"
       stroke-linecap="round"
       stroke-linejoin="bevel"
       transform="matrix(1,0,0,1,0,0)"
       font-family="Arial"
       font-size="12"
       font-weight="400"
       font-style="normal"
       id="g33">
      <polyline
         fill="none"
         vector-effect="none"
         points="1191.96,1873.26 1190.82,1872.57 1189.7,1871.82 1188.62,1871.03 1187.56,1870.19 1186.54,1869.3 1185.55,1868.36 1184.59,1867.38 1183.66,1866.35 1182.77,1865.28 1181.91,1864.17 1181.09,1863 1180.3,1861.8 1179.55,1860.55 1178.83,1859.27 1178.15,1857.94 1177.5,1856.57 1176.9,1855.16 1176.33,1853.72 1175.8,1852.23 1175.3,1850.71 1174.85,1849.16 1174.43,1847.56 1174.05,1845.94 1173.72,1844.28 1173.42,1842.59 1173.16,1840.87 1172.94,1839.12 1172.76,1837.35 1172.62,1835.54 1172.52,1833.71 1172.46,1831.85 1172.45,1829.97 1172.47,1828.06 1172.53,1826.14 1172.63,1824.19 1172.77,1822.22 1172.96,1820.23 1173.18,1818.23 1173.44,1816.21 1173.74,1814.17 1174.08,1812.13 1174.46,1810.06 1174.88,1807.99 1175.34,1805.91 1175.84,1803.82 1176.37,1801.72 1176.94,1799.62 1177.55,1797.51 1178.2,1795.4 1178.89,1793.28 1179.61,1791.16 1180.36,1789.05 1181.15,1786.93 1181.98,1784.82 1182.84,1782.71 1183.74,1780.61 1184.67,1778.51 1185.63,1776.43 1186.62,1774.35 1187.65,1772.28 1188.7,1770.22 1189.79,1768.18 1190.91,1766.15 1192.05,1764.13 1193.23,1762.13 1194.43,1760.15 1195.66,1758.19 1196.91,1756.25 1198.2,1754.32 1199.5,1752.43 1200.83,1750.55 1202.18,1748.7 1203.56,1746.88 1204.95,1745.08 1206.37,1743.31 1207.81,1741.57 1209.26,1739.86 1210.74,1738.18 1212.23,1736.53 1213.74,1734.91 1215.26,1733.33 1216.8,1731.79 1218.35,1730.28 1219.91,1728.81 1221.48,1727.37 1223.07,1725.97 1224.67,1724.62 1226.27,1723.3 1227.88,1722.02 1229.5,1720.79 1231.12,1719.6 1232.75,1718.45 1234.39,1717.35 1236.02,1716.29 1237.66,1715.27 1239.3,1714.31 1240.94,1713.38 1242.58,1712.51 1244.22,1711.68 1245.85,1710.9 1247.48,1710.17 1249.1,1709.49 1250.72,1708.86 1252.33,1708.28 1253.94,1707.74 1255.53,1707.26 1257.12,1706.83 1258.69,1706.45 1260.25,1706.12 1261.8,1705.84 1263.34,1705.62 1264.86,1705.44 1266.37,1705.32 1267.86,1705.25 1269.33,1705.23 1270.78,1705.26 1272.22,1705.35 1273.63,1705.49 1275.03,1705.67 1276.4,1705.92 1277.75,1706.21 1279.08,1706.55 1280.39,1706.94 1281.67,1707.39 1282.92,1707.89 1284.15,1708.43 1285.35,1709.03 1286.52,1709.67 "
         id="polyline33" />
    </g>
    <g
       fill="#000000"
       fill-opacity="1"
       stroke="#000000"
       stroke-opacity="1"
       stroke-width="5"
       stroke-linecap="round"
       stroke-linejoin="bevel"
       transform="matrix(1,0,0,1,0,0)"
       font-family="Arial"
       font-size="12"
       font-weight="400"
       font-style="normal"
       id="g39">
      <polyline
         fill="none"
         vector-effect="none"
         points="1192.01,1873.29 1191.96,1873.26 "
         id="polyline34" />
      <polyline
         fill="none"
         vector-effect="none"
         points="1184.97,1721.57 1184.15,1722.05 1183.33,1722.56 1182.51,1723.09 1181.7,1723.64 1180.88,1724.22 1180.07,1724.81 1179.26,1725.43 1178.45,1726.07 1177.65,1726.73 1176.86,1727.41 1176.06,1728.11 1175.28,1728.83 1174.49,1729.56 1173.72,1730.32 1172.95,1731.09 1172.19,1731.88 1171.44,1732.69 1170.69,1733.52 1169.95,1734.36 1169.23,1735.21 1168.51,1736.08 1167.8,1736.97 1167.1,1737.87 1166.41,1738.78 1165.74,1739.71 1165.07,1740.65 1164.42,1741.6 1163.78,1742.56 1163.15,1743.53 1162.54,1744.51 1161.94,1745.5 1161.35,1746.5 1160.78,1747.51 1160.22,1748.52 1159.68,1749.55 1159.15,1750.58 1158.64,1751.61 1158.14,1752.65 1157.66,1753.7 1157.2,1754.74 1156.75,1755.8 1156.32,1756.85 1155.91,1757.91 1155.51,1758.96 1155.14,1760.02 1154.78,1761.08 1154.43,1762.14 1154.11,1763.19 1153.81,1764.25 1153.52,1765.3 1153.25,1766.35 1153.01,1767.4 1152.78,1768.44 1152.57,1769.47 1152.38,1770.5 1152.21,1771.53 1152.06,1772.54 1151.93,1773.55 1151.82,1774.56 1151.73,1775.55 1151.66,1776.53 1151.61,1777.51 1151.58,1778.47 1151.57,1779.42 "
         id="polyline35" />
      <polyline
         fill="none"
         vector-effect="none"
         points="1301.88,1692.64 1301.87,1691.7 1301.84,1690.77 1301.79,1689.86 1301.72,1688.95 1301.63,1688.06 1301.52,1687.19 1301.39,1686.33 1301.24,1685.49 1301.07,1684.66 1300.88,1683.85 1300.67,1683.05 1300.44,1682.27 1300.19,1681.51 1299.93,1680.77 1299.64,1680.05 1299.34,1679.35 1299.01,1678.66 1298.67,1678 1298.31,1677.36 1297.94,1676.74 1297.54,1676.13 1297.13,1675.56 1296.7,1675 1296.25,1674.46 1295.79,1673.95 1295.31,1673.46 1294.81,1672.99 1294.3,1672.55 1293.77,1672.13 1293.23,1671.73 1292.67,1671.36 1292.1,1671.02 1291.51,1670.69 1290.91,1670.4 1290.29,1670.12 1289.67,1669.88 1289.03,1669.65 1288.37,1669.46 1287.71,1669.29 1287.03,1669.14 1286.35,1669.02 1285.65,1668.93 1284.94,1668.86 1284.22,1668.82 1283.5,1668.8 1282.76,1668.81 1282.01,1668.85 1281.26,1668.91 1280.5,1669 1279.73,1669.11 1278.95,1669.25 1278.17,1669.42 1277.39,1669.61 1276.59,1669.83 1275.8,1670.07 1274.99,1670.33 1274.19,1670.63 1273.38,1670.94 1272.57,1671.28 1271.75,1671.65 1270.93,1672.04 1270.12,1672.46 1269.3,1672.89 1268.48,1673.36 "
         id="polyline36" />
      <polyline
         fill="none"
         vector-effect="none"
         points="1134.87,1769.78 1134.88,1768.83 1134.91,1767.86 1134.96,1766.89 1135.03,1765.91 1135.12,1764.91 1135.23,1763.91 1135.36,1762.9 1135.51,1761.88 1135.68,1760.86 1135.87,1759.83 1136.08,1758.79 1136.31,1757.75 1136.55,1756.71 1136.82,1755.66 1137.11,1754.61 1137.41,1753.55 1137.73,1752.5 1138.07,1751.44 1138.43,1750.38 1138.81,1749.32 1139.21,1748.26 1139.62,1747.21 1140.05,1746.15 1140.5,1745.1 1140.96,1744.05 1141.44,1743.01 1141.94,1741.97 1142.45,1740.93 1142.98,1739.9 1143.52,1738.88 1144.08,1737.87 1144.65,1736.86 1145.24,1735.86 1145.84,1734.87 1146.45,1733.89 1147.08,1732.91 1147.72,1731.95 1148.37,1731 1149.04,1730.07 1149.71,1729.14 1150.4,1728.23 1151.1,1727.33 1151.81,1726.44 1152.52,1725.57 1153.25,1724.71 1153.99,1723.87 1154.73,1723.05 1155.49,1722.24 1156.25,1721.45 1157.02,1720.68 1157.79,1719.92 1158.57,1719.18 1159.36,1718.47 1160.15,1717.77 1160.95,1717.09 1161.75,1716.43 1162.56,1715.79 1163.37,1715.17 1164.18,1714.58 1165,1714 1165.81,1713.45 1166.63,1712.92 1167.45,1712.41 1168.27,1711.93 "
         id="polyline37" />
      <polyline
         fill="none"
         vector-effect="none"
         points="1269.71,1846.18 1270.51,1845.67 1271.32,1845.14 1272.13,1844.58 1272.93,1844 1273.73,1843.41 1274.53,1842.79 1275.32,1842.15 1276.11,1841.49 1276.9,1840.81 1277.68,1840.12 1278.45,1839.4 1279.22,1838.67 1279.98,1837.92 1280.74,1837.15 1281.49,1836.36 1282.23,1835.56 1282.96,1834.74 1283.68,1833.91 1284.4,1833.06 1285.11,1832.2 1285.8,1831.32 1286.49,1830.43 1287.17,1829.53 1287.83,1828.61 1288.48,1827.68 1289.13,1826.75 1289.76,1825.8 1290.37,1824.84 1290.98,1823.87 1291.57,1822.89 1292.15,1821.9 1292.71,1820.91 1293.26,1819.9 1293.79,1818.89 1294.31,1817.88 1294.82,1816.86 1295.31,1815.83 1295.78,1814.8 1296.24,1813.77 1296.68,1812.73 1297.11,1811.69 1297.51,1810.65 1297.91,1809.6 1298.28,1808.56 1298.64,1807.52 1298.98,1806.47 1299.3,1805.43 1299.6,1804.39 1299.88,1803.35 1300.15,1802.31 1300.4,1801.28 1300.63,1800.25 1300.84,1799.23 1301.03,1798.21 1301.2,1797.2 1301.35,1796.2 1301.49,1795.2 1301.6,1794.21 1301.69,1793.23 1301.77,1792.25 1301.83,1791.29 1301.86,1790.33 "
         id="polyline38" />
      <polyline
         fill="none"
         vector-effect="none"
         points="1151.57,1875.85 1151.58,1876.79 1151.61,1877.72 1151.66,1878.63 1151.73,1879.53 1151.82,1880.42 1151.93,1881.3 1152.06,1882.16 1152.21,1883 1152.38,1883.83 1152.57,1884.64 1152.78,1885.43 1153.01,1886.21 1153.25,1886.97 1153.52,1887.71 1153.81,1888.44 1154.11,1889.14 1154.43,1889.82 1154.78,1890.49 1155.14,1891.13 1155.51,1891.75 1155.91,1892.35 1156.32,1892.93 1156.75,1893.49 1157.2,1894.02 1157.66,1894.54 1158.14,1895.03 1158.64,1895.49 1159.15,1895.94 1159.68,1896.36 1160.22,1896.75 1160.78,1897.12 1161.35,1897.47 1161.94,1897.79 1162.54,1898.09 1163.15,1898.36 1163.78,1898.61 1164.42,1898.83 1165.07,1899.03 1165.74,1899.2 1166.41,1899.35 1167.1,1899.46 1167.8,1899.56 1168.51,1899.63 1169.23,1899.67 1169.95,1899.68 1170.69,1899.67 1171.44,1899.64 1172.19,1899.58 1172.95,1899.49 1173.72,1899.37 1174.49,1899.23 1175.28,1899.07 1176.06,1898.88 1176.86,1898.66 1177.65,1898.42 1178.45,1898.15 1179.26,1897.86 1180.07,1897.54 1180.88,1897.2 1181.7,1896.84 1182.51,1896.45 1183.33,1896.03 1184.15,1895.59 1184.97,1895.13 "
         id="polyline39" />
    </g>
    <g
       fill="#000000"
       fill-opacity="1"
       stroke="#000000"
       stroke-opacity="1"
       stroke-width="2"
       stroke-linecap="round"
       stroke-linejoin="bevel"
       transform="matrix(1,0,0,1,0,0)"
       font-family="Arial"
       font-size="12"
       font-weight="400"
       font-style="normal"
       id="g40">
      <polyline
         fill="none"
         vector-effect="none"
         points="1197.89,1863.05 1198.91,1863.61 1199.95,1864.13 1201.02,1864.61 1202.11,1865.04 1203.22,1865.43 1204.35,1865.77 1205.5,1866.07 1206.68,1866.33 1207.87,1866.54 1209.08,1866.71 1210.31,1866.83 1211.55,1866.91 1212.82,1866.94 1214.09,1866.93 1215.39,1866.87 1216.69,1866.77 1218.01,1866.62 1219.35,1866.43 1220.69,1866.19 1222.05,1865.91 1223.41,1865.59 1224.79,1865.22 1226.17,1864.81 1227.57,1864.36 1228.96,1863.86 1230.37,1863.32 1231.78,1862.73 1233.19,1862.11 1234.61,1861.44 1236.03,1860.73 1237.46,1859.98 1238.88,1859.18 1240.3,1858.35 1241.73,1857.48 1243.15,1856.57 1244.57,1855.62 1245.99,1854.63 1247.4,1853.61 1248.81,1852.55 1250.21,1851.45 1251.6,1850.32 1252.99,1849.15 1254.37,1847.94 1255.74,1846.71 1257.1,1845.44 1258.45,1844.14 1259.79,1842.81 1261.12,1841.44 1262.44,1840.05 1263.74,1838.63 1265.02,1837.18 1266.29,1835.7 1267.55,1834.2 1268.78,1832.67 1270,1831.12 1271.21,1829.54 1272.39,1827.94 1273.55,1826.32 1274.69,1824.68 1275.82,1823.02 1276.92,1821.34 1277.99,1819.65 1279.05,1817.93 1280.08,1816.2 1281.09,1814.46 1282.07,1812.7 1283.03,1810.93 1283.96,1809.15 1284.86,1807.36 1285.74,1805.55 1286.59,1803.74 1287.41,1801.93 1288.2,1800.1 1288.97,1798.27 1289.7,1796.44 1290.4,1794.6 1291.08,1792.77 1291.72,1790.93 1292.33,1789.09 1292.91,1787.25 1293.46,1785.42 1293.98,1783.59 1294.46,1781.76 1294.91,1779.94 1295.33,1778.13 1295.72,1776.32 1296.07,1774.53 1296.39,1772.74 1296.67,1770.96 1296.92,1769.2 1297.14,1767.45 1297.32,1765.72 1297.46,1764 1297.57,1762.29 1297.65,1760.6 1297.69,1758.94 1297.7,1757.29 1297.68,1755.66 1297.62,1754.05 1297.52,1752.47 1297.39,1750.9 1297.22,1749.37 1297.02,1747.85 1296.79,1746.37 1296.52,1744.9 1296.22,1743.47 1295.88,1742.07 1295.52,1740.69 1295.11,1739.35 1294.68,1738.03 1294.21,1736.75 1293.71,1735.5 1293.17,1734.29 1292.61,1733.1 1292.01,1731.96 1291.38,1730.84 1290.72,1729.77 1290.03,1728.73 1289.31,1727.72 1288.56,1726.76 1287.78,1725.83 1286.97,1724.95 1286.14,1724.1 1285.27,1723.29 1284.38,1722.52 1283.46,1721.8 1282.52,1721.11 1281.55,1720.47 1280.55,1719.87 "
         id="polyline40" />
    </g>
    <g
       fill="#000000"
       fill-opacity="1"
       stroke="#000000"
       stroke-opacity="1"
       stroke-width="5"
       stroke-linecap="round"
       stroke-linejoin="bevel"
       transform="matrix(1,0,0,1,0,0)"
       font-family="Arial"
       font-size="12"
       font-weight="400"
       font-style="normal"
       id="g79">
      <polyline
         fill="none"
         vector-effect="none"
         points="1313.24,1826.96 1312.11,1827.61 "
         id="polyline41" />
      <polyline
         fill="none"
         vector-effect="none"
         points="1306.98,1836.5 1306.98,1837.81 "
         id="polyline42" />
      <polyline
         fill="none"
         vector-effect="none"
         points="1370.72,1859.18 1367.65,1858.28 "
         id="polyline43" />
      <polyline
         fill="none"
         vector-effect="none"
         points="1365.83,1864.56 1361.48,1862.05 "
         id="polyline44" />
      <polyline
         fill="none"
         vector-effect="none"
         points="1363.62,1871.48 1361.31,1869.27 "
         id="polyline45" />
      <polyline
         fill="none"
         vector-effect="none"
         points="1361.48,1867.07 1357.6,1863.81 "
         id="polyline46" />
      <polyline
         fill="none"
         vector-effect="none"
         points="1308.81,1841.86 1342.45,1861.29 "
         id="polyline47" />
      <polyline
         fill="none"
         vector-effect="none"
         points="1351.31,1845.95 1317.67,1826.52 "
         id="polyline48" />
      <polyline
         fill="none"
         vector-effect="none"
         points="1366.25,1864.13 1361.49,1860.8 "
         id="polyline49" />
      <polyline
         fill="none"
         vector-effect="none"
         points="1365.83,1859.53 1361.07,1857.8 "
         id="polyline50" />
      <polyline
         fill="none"
         vector-effect="none"
         points="1365.67,1859.05 1360.91,1856.97 "
         id="polyline51" />
      <polyline
         fill="none"
         vector-effect="none"
         points="1365.67,1865.13 1360.41,1862.68 "
         id="polyline52" />
      <polyline
         fill="none"
         vector-effect="none"
         points="1360.98,1867.17 1356.8,1864.09 "
         id="polyline53" />
      <polyline
         fill="none"
         vector-effect="none"
         points="1345.6,1871.96 1352.04,1875.68 "
         id="polyline54" />
      <polyline
         fill="none"
         vector-effect="none"
         points="1368.57,1847.05 1362.13,1843.33 "
         id="polyline55" />
      <polyline
         fill="none"
         vector-effect="none"
         points="1317.67,1826.52 1317.54,1826.45 1317.42,1826.39 1317.29,1826.34 1317.15,1826.29 1317.02,1826.24 1316.88,1826.21 1316.74,1826.17 1316.59,1826.15 1316.44,1826.13 1316.3,1826.12 1316.14,1826.11 1315.99,1826.11 1315.83,1826.11 1315.68,1826.12 1315.52,1826.14 1315.35,1826.16 1315.19,1826.19 1315.03,1826.23 1314.86,1826.27 1314.69,1826.32 1314.52,1826.37 1314.35,1826.43 1314.18,1826.5 1314.01,1826.57 1313.84,1826.65 1313.67,1826.73 1313.5,1826.82 1313.33,1826.91 1313.15,1827.01 1312.98,1827.12 1312.81,1827.23 1312.64,1827.34 1312.46,1827.46 1312.29,1827.59 1312.12,1827.72 1311.95,1827.86 1311.79,1828 1311.62,1828.14 1311.45,1828.29 1311.29,1828.45 1311.12,1828.61 1310.96,1828.77 1310.8,1828.94 1310.64,1829.11 1310.49,1829.28 1310.33,1829.46 1310.18,1829.65 1310.03,1829.83 1309.89,1830.02 1309.74,1830.21 1309.6,1830.41 1309.46,1830.61 1309.32,1830.81 1309.19,1831.01 1309.06,1831.22 1308.93,1831.43 1308.81,1831.64 1308.69,1831.85 1308.57,1832.06 1308.46,1832.28 1308.35,1832.5 1308.24,1832.71 1308.14,1832.93 1308.04,1833.15 1307.95,1833.38 1307.86,1833.6 1307.77,1833.82 1307.69,1834.04 1307.61,1834.27 1307.54,1834.49 1307.47,1834.71 1307.4,1834.93 1307.34,1835.15 1307.29,1835.37 1307.24,1835.59 1307.19,1835.81 1307.15,1836.03 1307.11,1836.25 1307.08,1836.46 1307.05,1836.68 1307.02,1836.89 1307.01,1837.1 1306.99,1837.3 1306.98,1837.51 1306.98,1837.71 1306.98,1837.91 1306.98,1838.1 1306.99,1838.3 1307.01,1838.49 1307.02,1838.68 1307.05,1838.86 1307.08,1839.04 1307.11,1839.22 1307.15,1839.39 1307.19,1839.56 1307.24,1839.72 1307.29,1839.88 1307.34,1840.04 1307.4,1840.19 1307.47,1840.34 1307.54,1840.48 1307.61,1840.62 1307.69,1840.75 1307.77,1840.88 1307.86,1841 1307.95,1841.12 1308.04,1841.23 1308.14,1841.34 1308.24,1841.44 1308.35,1841.54 1308.46,1841.63 1308.57,1841.71 1308.69,1841.79 1308.81,1841.86 "
         id="polyline56" />
      <polyline
         fill="none"
         vector-effect="none"
         points="1366.25,1864.13 1366.68,1863.79 1367.1,1863.45 1367.5,1863.09 1367.89,1862.73 1368.27,1862.36 1368.63,1861.98 1368.98,1861.6 1369.31,1861.21 1369.62,1860.81 1369.92,1860.41 1370.2,1860.01 1370.47,1859.59 1370.72,1859.18 "
         id="polyline57" />
      <polyline
         fill="none"
         vector-effect="none"
         points="1359.95,1873.6 1360.44,1873.37 1360.92,1873.13 1361.39,1872.88 1361.85,1872.62 1362.31,1872.35 1362.75,1872.07 1363.19,1871.78 1363.62,1871.48 "
         id="polyline58" />
      <polyline
         fill="none"
         vector-effect="none"
         points="1352.04,1875.68 1351.84,1875.56 1351.64,1875.43 1351.45,1875.29 1351.27,1875.15 1351.09,1874.99 1350.91,1874.83 1350.74,1874.66 1350.58,1874.48 1350.43,1874.29 1350.27,1874.09 1350.13,1873.89 1349.99,1873.68 1349.86,1873.46 1349.73,1873.24 1349.61,1873.01 1349.5,1872.77 1349.39,1872.52 1349.29,1872.27 1349.2,1872.01 1349.11,1871.74 1349.03,1871.47 1348.96,1871.19 1348.9,1870.91 1348.84,1870.62 1348.78,1870.32 1348.74,1870.02 1348.7,1869.72 1348.67,1869.41 1348.64,1869.09 1348.63,1868.77 1348.61,1868.44 1348.61,1868.11 1348.61,1867.78 1348.63,1867.44 1348.64,1867.1 1348.67,1866.76 1348.7,1866.41 1348.74,1866.06 1348.78,1865.71 1348.84,1865.35 1348.9,1864.99 1348.96,1864.63 1349.03,1864.27 1349.11,1863.91 1349.2,1863.54 1349.29,1863.17 1349.39,1862.8 1349.5,1862.43 1349.61,1862.06 1349.73,1861.69 1349.86,1861.32 1349.99,1860.95 1350.13,1860.58 1350.27,1860.21 1350.43,1859.85 1350.58,1859.48 1350.74,1859.11 1350.91,1858.74 1351.09,1858.38 1351.27,1858.02 1351.45,1857.66 1351.64,1857.3 1351.84,1856.94 1352.04,1856.59 1352.24,1856.24 1352.45,1855.9 1352.67,1855.55 1352.89,1855.21 1353.11,1854.88 1353.34,1854.54 1353.57,1854.21 1353.81,1853.89 1354.05,1853.57 1354.29,1853.26 1354.54,1852.95 1354.79,1852.64 1355.05,1852.34 1355.3,1852.05 1355.56,1851.76 1355.83,1851.48 1356.09,1851.2 1356.36,1850.93 1356.64,1850.66 1356.91,1850.41 1357.18,1850.15 1357.46,1849.91 1357.74,1849.67 1358.02,1849.44 1358.3,1849.22 1358.59,1849 1358.87,1848.79 1359.16,1848.59 1359.44,1848.4 1359.73,1848.21 1360.02,1848.03 1360.3,1847.87 1360.59,1847.7 1360.88,1847.55 1361.16,1847.41 1361.45,1847.27 1361.73,1847.14 1362.02,1847.02 1362.3,1846.91 1362.58,1846.81 1362.86,1846.71 1363.14,1846.63 1363.42,1846.55 1363.7,1846.49 1363.97,1846.43 1364.24,1846.38 1364.51,1846.34 1364.78,1846.31 1365.04,1846.29 1365.3,1846.28 1365.56,1846.27 1365.81,1846.28 1366.06,1846.29 1366.31,1846.32 1366.56,1846.35 1366.8,1846.39 1367.03,1846.44 1367.27,1846.5 1367.49,1846.57 1367.72,1846.65 1367.94,1846.73 1368.15,1846.83 1368.36,1846.93 1368.57,1847.05 1368.77,1847.17 1368.96,1847.3 1369.15,1847.44 1369.34,1847.58 1369.52,1847.74 1369.69,1847.9 1369.86,1848.07 1370.02,1848.25 1370.18,1848.44 1370.33,1848.64 1370.47,1848.84 1370.61,1849.05 1370.74,1849.27 1370.87,1849.49 1370.99,1849.72 1371.1,1849.96 1371.21,1850.21 1371.31,1850.46 1371.4,1850.72 1371.49,1850.99 1371.57,1851.26 1371.64,1851.54 1371.71,1851.82 1371.77,1852.11 1371.82,1852.41 1371.87,1852.71 1371.91,1853.01 1371.94,1853.32 1371.96,1853.64 1371.98,1853.96 1371.99,1854.29 1371.99,1854.61 1371.99,1854.95 1371.98,1855.29 1371.96,1855.63 1371.94,1855.97 1371.91,1856.32 1371.87,1856.67 1371.82,1857.02 1371.77,1857.38 1371.71,1857.74 1371.64,1858.1 1371.57,1858.46 1371.49,1858.82 1371.4,1859.19 1371.31,1859.56 1371.21,1859.93 1371.1,1860.29 1370.99,1860.66 1370.87,1861.03 1370.74,1861.41 1370.61,1861.78 1370.47,1862.15 1370.33,1862.52 1370.18,1862.88 1370.02,1863.25 1369.86,1863.62 1369.69,1863.98 1369.52,1864.35 1369.34,1864.71 1369.15,1865.07 1368.96,1865.43 1368.77,1865.78 1368.57,1866.14 1368.36,1866.49 1368.15,1866.83 1367.94,1867.18 1367.72,1867.52 1367.49,1867.85 1367.27,1868.19 1367.03,1868.52 1366.8,1868.84 1366.56,1869.16 1366.31,1869.47 1366.06,1869.78 1365.81,1870.09 1365.56,1870.39 1365.3,1870.68 1365.04,1870.97 1364.78,1871.25 1364.51,1871.53 1364.24,1871.8 1363.97,1872.07 1363.7,1872.32 1363.42,1872.57 1363.14,1872.82 1362.86,1873.06 1362.58,1873.29 1362.3,1873.51 1362.02,1873.73 1361.73,1873.94 1361.45,1874.14 1361.16,1874.33 1360.88,1874.52 1360.59,1874.69 1360.3,1874.86 1360.02,1875.03 1359.73,1875.18 1359.44,1875.32 1359.16,1875.46 1358.87,1875.59 1358.59,1875.71 1358.3,1875.82 1358.02,1875.92 1357.74,1876.01 1357.46,1876.1 1357.18,1876.18 1356.91,1876.24 1356.64,1876.3 1356.36,1876.35 1356.09,1876.39 1355.83,1876.42 1355.56,1876.44 1355.3,1876.45 1355.05,1876.46 1354.79,1876.45 1354.54,1876.44 1354.29,1876.41 1354.05,1876.38 1353.81,1876.34 1353.57,1876.29 1353.34,1876.23 1353.11,1876.16 1352.89,1876.08 1352.67,1876 1352.45,1875.9 1352.24,1875.8 1352.04,1875.68 "
         id="polyline59" />
      <polyline
         fill="none"
         vector-effect="none"
         points="1361.48,1862.05 1361.55,1861.43 "
         id="polyline60" />
      <polyline
         fill="none"
         vector-effect="none"
         points="1361.48,1867.07 1360.98,1867.17 "
         id="polyline61" />
      <polyline
         fill="none"
         vector-effect="none"
         points="1370.72,1859.18 1370.77,1858.66 1370.8,1858.13 1370.82,1857.61 1370.83,1857.08 1370.82,1856.55 1370.8,1856.01 1370.77,1855.48 1370.72,1854.94 "
         id="polyline62" />
      <polyline
         fill="none"
         vector-effect="none"
         points="1365.83,1859.53 1366.25,1859.38 "
         id="polyline63" />
      <polyline
         fill="none"
         vector-effect="none"
         points="1365.83,1864.56 1365.67,1865.13 "
         id="polyline64" />
      <polyline
         fill="none"
         vector-effect="none"
         points="1365.67,1865.13 1365.59,1865.67 1365.5,1866.21 1365.4,1866.74 1365.28,1867.26 1365.15,1867.77 1365,1868.27 1364.84,1868.76 1364.67,1869.24 1364.48,1869.71 1364.29,1870.17 1364.08,1870.62 1363.85,1871.06 1363.62,1871.48 "
         id="polyline65" />
      <polyline
         fill="none"
         vector-effect="none"
         points="1366.25,1859.38 1366.68,1859.06 1367.1,1858.73 1367.5,1858.41 1367.89,1858.07 1368.27,1857.74 1368.63,1857.4 1368.98,1857.05 1369.31,1856.71 1369.62,1856.36 1369.92,1856.01 1370.2,1855.65 1370.47,1855.3 1370.72,1854.94 "
         id="polyline66" />
      <polyline
         fill="none"
         vector-effect="none"
         points="1345.6,1871.96 1345.39,1871.84 1345.2,1871.71 1345.01,1871.57 1344.82,1871.43 1344.65,1871.27 1344.47,1871.11 1344.3,1870.94 1344.14,1870.76 1343.98,1870.57 1343.83,1870.38 1343.69,1870.17 1343.55,1869.96 1343.42,1869.74 1343.29,1869.52 1343.17,1869.29 1343.06,1869.05 1342.95,1868.8 1342.85,1868.55 1342.76,1868.29 1342.67,1868.02 1342.59,1867.75 1342.52,1867.47 1342.46,1867.19 1342.4,1866.9 1342.34,1866.6 1342.3,1866.3 1342.26,1866 1342.23,1865.69 1342.2,1865.37 1342.19,1865.05 1342.17,1864.73 1342.17,1864.4 1342.17,1864.06 1342.19,1863.73 1342.2,1863.38 1342.23,1863.04 1342.26,1862.69 1342.3,1862.34 1342.34,1861.99 1342.4,1861.63 1342.46,1861.27 1342.52,1860.91 1342.59,1860.55 1342.67,1860.19 1342.76,1859.82 1342.85,1859.45 1342.95,1859.09 1343.06,1858.72 1343.17,1858.35 1343.29,1857.98 1343.42,1857.61 1343.55,1857.24 1343.69,1856.87 1343.83,1856.5 1343.98,1856.13 1344.14,1855.76 1344.3,1855.39 1344.47,1855.03 1344.65,1854.66 1344.82,1854.3 1345.01,1853.94 1345.2,1853.58 1345.39,1853.23 1345.6,1852.87 1345.8,1852.52 1346.01,1852.18 1346.23,1851.83 1346.45,1851.49 1346.67,1851.16 1346.9,1850.82 1347.13,1850.5 1347.37,1850.17 1347.61,1849.85 1347.85,1849.54 1348.1,1849.23 1348.35,1848.92 1348.61,1848.62 1348.86,1848.33 1349.12,1848.04 1349.39,1847.76 1349.65,1847.48 1349.92,1847.21 1350.19,1846.95 1350.47,1846.69 1350.74,1846.44 1351.02,1846.19 1351.3,1845.95 1351.58,1845.72 1351.86,1845.5 1352.15,1845.28 1352.43,1845.07 1352.72,1844.87 1353,1844.68 1353.29,1844.49 1353.58,1844.32 1353.86,1844.15 1354.15,1843.99 1354.44,1843.83 1354.72,1843.69 1355.01,1843.55 1355.29,1843.42 1355.58,1843.3 1355.86,1843.19 1356.14,1843.09 1356.42,1843 1356.7,1842.91 1356.98,1842.84 1357.26,1842.77 1357.53,1842.71 1357.8,1842.66 1358.07,1842.62 1358.34,1842.59 1358.6,1842.57 1358.86,1842.56 1359.12,1842.55 1359.37,1842.56 1359.62,1842.57 1359.87,1842.6 1360.12,1842.63 1360.36,1842.67 1360.59,1842.72 1360.83,1842.78 1361.05,1842.85 1361.28,1842.93 1361.5,1843.02 1361.71,1843.11 1361.92,1843.22 1362.13,1843.33 "
         id="polyline67" />
      <polyline
         fill="none"
         vector-effect="none"
         points="1365.67,1859.05 1365.83,1859.53 "
         id="polyline68" />
      <polyline
         fill="none"
         vector-effect="none"
         points="1359.95,1852.96 1360.13,1853.62 1360.31,1854.29 1360.47,1854.96 1360.63,1855.62 1360.77,1856.28 1360.91,1856.94 1361.03,1857.59 1361.14,1858.24 1361.25,1858.89 1361.34,1859.53 1361.42,1860.17 1361.49,1860.8 1361.55,1861.43 "
         id="polyline69" />
      <polyline
         fill="none"
         vector-effect="none"
         points="1363.62,1850.84 1363.85,1851.48 1364.08,1852.12 1364.29,1852.76 1364.48,1853.39 1364.67,1854.03 1364.84,1854.67 1365,1855.3 1365.15,1855.93 1365.28,1856.56 1365.4,1857.19 1365.5,1857.81 1365.59,1858.43 1365.67,1859.05 "
         id="polyline70" />
      <polyline
         fill="none"
         vector-effect="none"
         points="1352.84,1865.26 1353.51,1865.09 1354.18,1864.91 1354.84,1864.72 1355.49,1864.52 1356.13,1864.31 1356.77,1864.1 1357.4,1863.88 1358.02,1863.65 1358.63,1863.42 1359.23,1863.18 1359.83,1862.93 1360.41,1862.68 1360.98,1862.42 "
         id="polyline71" />
      <polyline
         fill="none"
         vector-effect="none"
         points="1359.95,1852.96 1360.44,1852.69 1360.92,1852.43 1361.39,1852.16 1361.85,1851.9 1362.31,1851.63 1362.75,1851.37 1363.19,1851.1 1363.62,1850.84 "
         id="polyline72" />
      <polyline
         fill="none"
         vector-effect="none"
         points="1306.98,1836.5 1306.98,1836.3 1306.99,1836.1 1307,1835.9 1307.02,1835.69 1307.05,1835.48 1307.08,1835.26 1307.12,1835.05 1307.16,1834.83 1307.21,1834.61 1307.26,1834.4 1307.32,1834.18 1307.38,1833.95 1307.45,1833.73 1307.53,1833.51 1307.61,1833.29 1307.69,1833.07 1307.78,1832.85 1307.88,1832.63 1307.98,1832.41 1308.08,1832.19 1308.19,1831.98 1308.3,1831.76 1308.42,1831.55 1308.54,1831.34 1308.67,1831.13 1308.8,1830.93 1308.93,1830.73 1309.06,1830.53 1309.2,1830.33 1309.35,1830.14 1309.49,1829.95 1309.64,1829.77 1309.79,1829.59 1309.95,1829.41 1310.11,1829.24 1310.26,1829.07 1310.43,1828.91 1310.59,1828.76 1310.75,1828.61 1310.92,1828.46 1311.09,1828.32 1311.26,1828.19 1311.42,1828.06 1311.6,1827.94 1311.77,1827.82 1311.94,1827.72 1312.11,1827.61 "
         id="polyline73" />
      <polyline
         fill="none"
         vector-effect="none"
         points="1360.98,1862.42 1361.48,1862.05 "
         id="polyline74" />
      <polyline
         fill="none"
         vector-effect="none"
         points="1366.25,1864.13 1365.83,1864.56 "
         id="polyline75" />
      <polyline
         fill="none"
         vector-effect="none"
         points="1352.84,1869.5 1352.86,1869 1352.87,1868.49 1352.88,1867.97 1352.88,1867.44 1352.88,1866.91 1352.87,1866.37 1352.86,1865.82 1352.84,1865.26 "
         id="polyline76" />
      <polyline
         fill="none"
         vector-effect="none"
         points="1352.84,1869.5 1353.51,1869.38 1354.18,1869.26 1354.84,1869.12 1355.49,1868.97 1356.13,1868.81 1356.77,1868.64 1357.4,1868.47 1358.02,1868.28 1358.63,1868.08 1359.23,1867.86 1359.83,1867.64 1360.41,1867.41 1360.98,1867.17 "
         id="polyline77" />
      <polyline
         fill="none"
         vector-effect="none"
         points="1361.55,1867.5 1361.48,1867.07 "
         id="polyline78" />
      <polyline
         fill="none"
         vector-effect="none"
         points="1361.55,1867.5 1361.49,1868.04 1361.42,1868.57 1361.34,1869.08 1361.25,1869.58 1361.14,1870.08 1361.03,1870.56 1360.91,1871.03 1360.77,1871.49 1360.63,1871.94 1360.47,1872.37 1360.31,1872.79 1360.13,1873.2 1359.95,1873.6 "
         id="polyline79" />
    </g>
    <g
       fill="#000000"
       fill-opacity="1"
       stroke="#000000"
       stroke-opacity="1"
       stroke-width="2"
       stroke-linecap="round"
       stroke-linejoin="bevel"
       transform="matrix(1,0,0,1,0,0)"
       font-family="Arial"
       font-size="12"
       font-weight="400"
       font-style="normal"
       id="g83">
      <polyline
         fill="none"
         vector-effect="none"
         points="1219.58,1780.12 1250.77,1798.13 "
         id="polyline80" />
      <polyline
         fill="none"
         vector-effect="none"
         points="1256.08,1801.19 1261.38,1804.25 "
         id="polyline81" />
      <polyline
         fill="none"
         vector-effect="none"
         points="1266.68,1807.31 1271.98,1810.37 "
         id="polyline82" />
      <polyline
         fill="none"
         vector-effect="none"
         points="1277.29,1813.44 1308.48,1831.44 "
         id="polyline83" />
    </g>
    <g
       fill="#000000"
       fill-opacity="1"
       stroke="#000000"
       stroke-opacity="1"
       stroke-width="1"
       stroke-linecap="round"
       stroke-linejoin="bevel"
       transform="matrix(1,0,0,1,0,0)"
       font-family="Arial"
       font-size="12"
       font-weight="400"
       font-style="normal"
       id="g84" />
    <g
       fill="#000000"
       fill-opacity="1"
       stroke="none"
       transform="matrix(1,0,0,1,0,0)"
       font-family="Arial"
       font-size="12"
       font-weight="400"
       font-style="normal"
       id="g85">
      <path
         vector-effect="none"
         fill-rule="evenodd"
         d="M1394.72,1586.38 L1397.18,1586.24 L1399.39,1585.81 L1401.35,1585.1 L1403.01,1584.11 L1404.34,1582.82 L1405.33,1581.26 L1405.94,1579.42 L1406.15,1577.3 L1406.02,1575.6 L1405.64,1574.11 L1404.99,1572.79 L1404.05,1571.62 L1402.86,1570.56 L1401.37,1569.58 L1399.57,1568.64 L1397.44,1567.69 L1395.65,1566.94 L1394.13,1566.28 L1392.89,1565.62 L1391.9,1564.95 L1391.16,1564.24 L1390.65,1563.48 L1390.36,1562.59 L1390.26,1561.55 L1390.34,1560.58 L1390.57,1559.69 L1390.96,1558.9 L1391.53,1558.22 L1392.3,1557.67 L1393.25,1557.26 L1394.41,1557 L1395.77,1556.92 L1396.96,1557.02 L1397.98,1557.34 L1398.82,1557.85 L1399.53,1558.53 L1400.05,1559.43 L1400.44,1560.48 L1400.67,1561.69 L1400.75,1563.05 L1402.5,1562.83 L1403.23,1562.54 L1403.83,1562.12 L1404.65,1561.02 L1404.93,1559.57 L1404.8,1558.53 L1404.39,1557.54 L1403.72,1556.62 L1402.78,1555.84 L1401.58,1555.19 L1400.12,1554.68 L1398.42,1554.37 L1396.48,1554.26 L1394.13,1554.39 L1392.01,1554.8 L1390.14,1555.46 L1388.56,1556.38 L1387.28,1557.53 L1386.33,1558.92 L1385.76,1560.56 L1385.56,1562.43 L1385.7,1564.2 L1386.1,1565.71 L1386.77,1567 L1387.71,1568.14 L1388.93,1569.18 L1390.43,1570.15 L1392.24,1571.07 L1394.33,1572.04 L1396.24,1572.9 L1397.81,1573.65 L1399.04,1574.35 L1399.98,1575.04 L1400.68,1575.75 L1401.11,1576.51 L1401.37,1577.35 L1401.45,1578.35 L1401.35,1579.46 L1401.03,1580.5 L1400.51,1581.39 L1399.79,1582.16 L1398.89,1582.77 L1397.81,1583.24 L1396.53,1583.51 L1395.06,1583.61 L1393.45,1583.46 L1392.1,1583.04 L1391.02,1582.35 L1390.17,1581.46 L1389.54,1580.36 L1389.13,1579.11 L1388.89,1577.73 L1388.82,1576.26 L1387.66,1576.45 L1386.47,1577.08 L1385.97,1577.61 L1385.54,1578.32 L1385.26,1579.18 L1385.17,1580.24 L1385.34,1581.68 L1385.85,1582.93 L1386.67,1583.97 L1387.77,1584.85 L1389.14,1585.51 L1390.77,1585.98 L1392.65,1586.28 L1394.72,1586.38"
         id="path84" />
    </g>
    <g
       fill="#000000"
       fill-opacity="1"
       stroke="#000000"
       stroke-opacity="1"
       stroke-width="1"
       stroke-linecap="round"
       stroke-linejoin="bevel"
       transform="matrix(1,0,0,1,0,0)"
       font-family="Arial"
       font-size="12"
       font-weight="400"
       font-style="normal"
       id="g86" />
    <g
       fill="#000000"
       fill-opacity="1"
       stroke="none"
       transform="matrix(1,0,0,1,0,0)"
       font-family="Arial"
       font-size="12"
       font-weight="400"
       font-style="normal"
       id="g87">
      <path
         vector-effect="none"
         fill-rule="evenodd"
         d="M1425.31,1586.38 L1427.72,1586.24 L1429.78,1585.81 L1431.54,1585.17 L1432.98,1584.4 L1434.09,1583.51 L1434.87,1582.56 L1435.32,1581.6 L1435.49,1580.67 L1435.38,1579.99 L1435.12,1579.39 L1434.76,1578.97 L1434.39,1578.69 L1433.06,1580.21 L1431.22,1581.49 L1430.11,1581.99 L1428.88,1582.39 L1427.55,1582.64 L1426.11,1582.73 L1424.16,1582.56 L1422.46,1582.05 L1421,1581.15 L1419.77,1579.87 L1418.82,1578.21 L1418.11,1576.14 L1417.67,1573.63 L1417.48,1570.69 L1436.76,1570.69 L1436.76,1568.03 L1436.55,1564.82 L1435.92,1562.03 L1434.91,1559.65 L1433.54,1557.71 L1431.82,1556.18 L1429.75,1555.08 L1427.38,1554.42 L1424.72,1554.2 L1421.82,1554.46 L1419.26,1555.25 L1417.07,1556.52 L1415.22,1558.3 L1413.76,1560.61 L1412.71,1563.42 L1412.09,1566.72 L1411.89,1570.52 L1412.11,1574.08 L1412.79,1577.24 L1413.92,1579.96 L1415.45,1582.22 L1417.36,1584.02 L1419.66,1585.33 L1422.33,1586.11 L1425.31,1586.38 M1424.61,1557.31 L1426.22,1557.51 L1427.55,1558.05 L1428.62,1558.95 L1429.5,1560.14 L1430.13,1561.63 L1430.57,1563.39 L1430.83,1565.38 L1430.91,1567.58 L1417.6,1567.58 L1417.83,1565.22 L1418.25,1563.17 L1418.85,1561.4 L1419.63,1559.94 L1420.6,1558.8 L1421.75,1557.99 L1423.09,1557.48 L1424.61,1557.31"
         id="path86" />
    </g>
    <g
       fill="#000000"
       fill-opacity="1"
       stroke="none"
       transform="matrix(1,0,0,1,0,0)"
       font-family="Arial"
       font-size="12"
       font-weight="400"
       font-style="normal"
       id="g88">
      <path
         vector-effect="none"
         fill-rule="evenodd"
         d="M1470.13,1555.98 L1469.9,1554.85 L1469.28,1553.89 L1468.2,1553.24 L1467.52,1553.05 L1466.7,1552.99 L1465.77,1553.07 L1464.89,1553.3 L1463.37,1554.09 L1462.1,1555.11 L1461.11,1556.1 L1459.98,1555.39 L1458.42,1554.8 L1456.55,1554.37 L1454.49,1554.2 L1451.93,1554.39 L1449.71,1554.94 L1447.85,1555.84 L1446.32,1557.06 L1445.13,1558.59 L1444.28,1560.42 L1443.78,1562.54 L1443.61,1564.92 L1443.69,1566.34 L1443.95,1567.72 L1444.38,1569.02 L1444.96,1570.23 L1445.71,1571.31 L1446.6,1572.27 L1447.66,1573.05 L1448.84,1573.65 L1447.13,1574.86 L1445.95,1576.11 L1445.27,1577.5 L1445.05,1579.08 L1445.33,1580.78 L1446.07,1582.14 L1447.08,1583.15 L1448.24,1583.83 L1446.84,1584.16 L1445.5,1584.65 L1444.27,1585.3 L1443.18,1586.12 L1442.29,1587.12 L1441.6,1588.3 L1441.15,1589.68 L1441.01,1591.27 L1441.19,1593.16 L1441.74,1594.83 L1442.69,1596.27 L1444,1597.49 L1445.69,1598.48 L1447.76,1599.18 L1450.21,1599.59 L1453.05,1599.72 L1456.72,1599.53 L1459.86,1598.96 L1462.52,1598.03 L1464.67,1596.78 L1466.32,1595.24 L1467.47,1593.39 L1468.17,1591.26 L1468.4,1588.89 L1468.27,1587.1 L1467.86,1585.44 L1467.19,1583.95 L1466.2,1582.7 L1464.89,1581.67 L1463.26,1580.89 L1461.25,1580.4 L1458.84,1580.24 L1452.29,1580.24 L1450.84,1580.18 L1449.71,1579.87 L1448.95,1579.2 L1448.75,1578.71 L1448.7,1578.06 L1448.92,1576.88 L1449.52,1575.92 L1450.42,1575.15 L1451.49,1574.53 L1452.09,1574.62 L1452.88,1574.67 L1453.73,1574.7 L1454.49,1574.7 L1456.95,1574.52 L1459.07,1573.97 L1460.87,1573.06 L1462.32,1571.87 L1463.46,1570.42 L1464.27,1568.73 L1464.76,1566.82 L1464.92,1564.75 L1464.76,1562.47 L1464.27,1560.62 L1463.56,1559.07 L1462.66,1557.74 L1463.82,1557.2 L1465.15,1557.03 L1466.11,1557.23 L1466.42,1557.45 L1466.68,1557.71 L1466.99,1558.33 L1467.07,1559.01 L1468.43,1558.78 L1469.39,1558.13 L1469.93,1557.17 L1470.13,1555.98 M1445.7,1590.9 L1445.83,1589.34 L1446.24,1588.1 L1446.86,1587.15 L1447.65,1586.43 L1448.61,1585.94 L1449.68,1585.64 L1452.06,1585.42 L1457.74,1585.42 L1459.1,1585.46 L1460.29,1585.61 L1461.3,1585.88 L1462.12,1586.29 L1462.77,1586.89 L1463.26,1587.65 L1463.55,1588.64 L1463.65,1589.85 L1463.53,1591.32 L1463.17,1592.65 L1462.49,1593.87 L1461.5,1594.89 L1460.1,1595.71 L1458.28,1596.33 L1456,1596.73 L1453.16,1596.87 L1451.15,1596.75 L1449.52,1596.41 L1448.22,1595.88 L1447.23,1595.17 L1446.5,1594.3 L1446.04,1593.27 L1445.78,1592.13 L1445.7,1590.9 M1449.06,1564.75 L1449.13,1562.93 L1449.35,1561.36 L1449.73,1560.03 L1450.25,1558.95 L1450.93,1558.13 L1451.86,1557.51 L1452.96,1557.15 L1454.26,1557.03 L1455.57,1557.15 L1456.67,1557.51 L1457.57,1558.1 L1458.28,1558.9 L1458.8,1559.96 L1459.16,1561.27 L1459.39,1562.84 L1459.47,1564.66 L1459.4,1566.43 L1459.18,1567.94 L1458.84,1569.18 L1458.31,1570.18 L1457.57,1570.94 L1456.7,1571.48 L1455.62,1571.8 L1454.32,1571.9 L1453.01,1571.8 L1451.89,1571.48 L1450.99,1570.94 L1450.28,1570.18 L1449.73,1569.2 L1449.35,1567.97 L1449.13,1566.49 L1449.06,1564.75"
         id="path87" />
    </g>
    <g
       fill="#000000"
       fill-opacity="1"
       stroke="#000000"
       stroke-opacity="1"
       stroke-width="1"
       stroke-linecap="round"
       stroke-linejoin="bevel"
       transform="matrix(1,0,0,1,0,0)"
       font-family="Arial"
       font-size="12"
       font-weight="400"
       font-style="normal"
       id="g89" />
    <g
       fill="#000000"
       fill-opacity="1"
       stroke="none"
       transform="matrix(1,0,0,1,0,0)"
       font-family="Arial"
       font-size="12"
       font-weight="400"
       font-style="normal"
       id="g90">
      <path
         vector-effect="none"
         fill-rule="evenodd"
         d="M1484.66,1582.98 L1483.01,1582.87 L1481.58,1582.53 L1480.38,1582 L1479.4,1581.32 L1478.65,1580.45 L1478.1,1579.45 L1477.78,1578.33 L1477.67,1577.13 L1476.03,1577.36 L1474.9,1578.04 L1474.22,1579.14 L1474.03,1580.55 L1474.15,1581.53 L1474.54,1582.56 L1475.23,1583.54 L1476.29,1584.43 L1477.74,1585.2 L1479.62,1585.81 L1482.02,1586.24 L1484.97,1586.38 L1488.1,1586.14 L1490.88,1585.44 L1493.27,1584.29 L1495.26,1582.76 L1496.85,1580.84 L1498,1578.57 L1498.72,1576.01 L1498.96,1573.2 L1498.71,1570.34 L1497.94,1567.86 L1496.76,1565.74 L1495.17,1564.01 L1493.23,1562.68 L1490.96,1561.72 L1488.46,1561.15 L1485.76,1560.96 L1483.41,1561.04 L1481.52,1561.27 L1480.07,1561.58 L1479,1561.89 L1480.11,1549.17 L1491.33,1549.17 L1492.15,1549.21 L1492.8,1549.31 L1493.73,1549.76 L1494.01,1550.1 L1494.21,1550.5 L1494.47,1551.55 L1494.69,1553.27 L1497.12,1553.27 L1496.84,1544.53 L1477.5,1544.53 L1475.64,1565.03 L1477.02,1565.43 L1478.18,1564.97 L1479.62,1564.58 L1481.55,1564.27 L1482.75,1564.18 L1484.15,1564.15 L1486.06,1564.3 L1487.77,1564.72 L1489.27,1565.41 L1490.54,1566.39 L1491.56,1567.66 L1492.32,1569.22 L1492.79,1571.06 L1492.94,1573.2 L1492.79,1575.73 L1492.32,1577.84 L1491.57,1579.53 L1490.57,1580.86 L1489.36,1581.84 L1487.94,1582.5 L1486.37,1582.86 L1484.66,1582.98"
         id="path89" />
    </g>
    <g
       fill="#000000"
       fill-opacity="1"
       stroke="#000000"
       stroke-opacity="1"
       stroke-width="1"
       stroke-linecap="round"
       stroke-linejoin="bevel"
       transform="matrix(1,0,0,1,0,0)"
       font-family="Arial"
       font-size="12"
       font-weight="400"
       font-style="normal"
       id="g91" />
    <g
       fill="#000000"
       fill-opacity="1"
       stroke="#000000"
       stroke-opacity="1"
       stroke-width="3"
       stroke-linecap="round"
       stroke-linejoin="bevel"
       transform="matrix(1,0,0,1,0,0)"
       font-family="Arial"
       font-size="12"
       font-weight="400"
       font-style="normal"
       id="g92" />
    <g
       fill="#000000"
       fill-opacity="1"
       stroke="none"
       transform="matrix(1,0,0,1,0,0)"
       font-family="Arial"
       font-size="12"
       font-weight="400"
       font-style="normal"
       id="g93">
      <path
         vector-effect="none"
         fill-rule="evenodd"
         d="M1318.05,1656.11 L1292.1,1671.02 L1311.82,1648.5 L1318.05,1656.11"
         id="path92" />
    </g>
    <g
       fill="#000000"
       fill-opacity="1"
       stroke="#000000"
       stroke-opacity="1"
       stroke-width="3"
       stroke-linecap="round"
       stroke-linejoin="bevel"
       transform="matrix(1,0,0,1,0,0)"
       font-family="Arial"
       font-size="12"
       font-weight="400"
       font-style="normal"
       id="g94">
      <polyline
         fill="none"
         vector-effect="none"
         points="1292.1,1671.02 1370.12,1607.1 1513.48,1607.1 "
         id="polyline93" />
    </g>
    <g
       fill="#000000"
       fill-opacity="1"
       stroke="#000000"
       stroke-opacity="1"
       stroke-width="1"
       stroke-linecap="round"
       stroke-linejoin="bevel"
       transform="matrix(1,0,0,1,0,0)"
       font-family="Arial"
       font-size="12"
       font-weight="400"
       font-style="normal"
       id="g95" />
    <g
       fill="#000000"
       fill-opacity="1"
       stroke="none"
       transform="matrix(1,0,0,1,0,0)"
       font-family="Arial"
       font-size="12"
       font-weight="400"
       font-style="normal"
       id="g96">
      <path
         vector-effect="none"
         fill-rule="evenodd"
         d="M1448.96,1896.36 L1464.37,1896.36 L1464.37,1893.93 L1463.64,1893.93 L1461.77,1893.79 L1460.97,1893.58 L1460.27,1893.23 L1459.68,1892.69 L1459.25,1891.95 L1458.98,1891 L1458.89,1889.78 L1458.89,1861.62 L1458.98,1860.4 L1459.25,1859.44 L1459.68,1858.73 L1460.27,1858.2 L1460.97,1857.82 L1461.77,1857.6 L1463.64,1857.46 L1464.37,1857.46 L1464.37,1855.03 L1451.54,1855.03 L1439.66,1888.14 L1427.67,1855.03 L1414.47,1855.03 L1414.47,1857.46 L1415.21,1857.46 L1417.02,1857.6 L1417.84,1857.79 L1418.54,1858.14 L1419.11,1858.68 L1419.56,1859.36 L1419.86,1860.25 L1419.96,1861.39 L1419.96,1890.06 L1419.86,1891.21 L1419.56,1892.12 L1419.11,1892.8 L1418.54,1893.28 L1417.84,1893.61 L1417.02,1893.82 L1415.21,1893.93 L1414.47,1893.93 L1414.47,1896.36 L1427.84,1896.36 L1427.84,1893.93 L1427.67,1893.93 L1425.92,1893.79 L1425.21,1893.58 L1424.59,1893.23 L1424.11,1892.69 L1423.77,1891.95 L1423.56,1891 L1423.49,1889.78 L1423.49,1859.47 L1436.92,1896.36 L1440.06,1896.36 L1453.32,1859.36 L1453.32,1890.29 L1453.2,1891.36 L1452.95,1892.21 L1452.58,1892.84 L1452.1,1893.31 L1451.53,1893.62 L1450.83,1893.82 L1449.16,1893.93 L1448.96,1893.93 L1448.96,1896.36"
         id="path95" />
    </g>
    <g
       fill="#000000"
       fill-opacity="1"
       stroke="#000000"
       stroke-opacity="1"
       stroke-width="1"
       stroke-linecap="round"
       stroke-linejoin="bevel"
       transform="matrix(1,0,0,1,0,0)"
       font-family="Arial"
       font-size="12"
       font-weight="400"
       font-style="normal"
       id="g97" />
    <g
       fill="#000000"
       fill-opacity="1"
       stroke="none"
       transform="matrix(1,0,0,1,0,0)"
       font-family="Arial"
       font-size="12"
       font-weight="400"
       font-style="normal"
       id="g98">
      <path
         vector-effect="none"
         fill-rule="evenodd"
         d="M1480.94,1893.82 L1479.28,1893.69 L1477.8,1893.31 L1476.55,1892.67 L1475.51,1891.84 L1474.68,1890.82 L1474.07,1889.64 L1473.71,1888.28 L1473.59,1886.81 L1472.09,1887.06 L1470.93,1887.8 L1470.17,1888.96 L1469.94,1890.51 L1470.1,1891.76 L1470.56,1892.97 L1471.38,1894.06 L1472.54,1895.01 L1474.07,1895.79 L1475.96,1896.39 L1478.22,1896.79 L1480.88,1896.93 L1484.27,1896.65 L1485.98,1896.31 L1487.64,1895.8 L1489.23,1895.11 L1490.72,1894.24 L1492.07,1893.18 L1493.24,1891.93 L1494.22,1890.43 L1494.96,1888.7 L1495.43,1886.74 L1495.58,1884.55 L1495.46,1882.74 L1495.07,1881.18 L1494.5,1879.8 L1493.74,1878.61 L1492.85,1877.59 L1491.82,1876.74 L1489.56,1875.47 L1487.16,1874.71 L1484.87,1874.31 L1486.8,1873.7 L1488.57,1872.84 L1490.15,1871.75 L1491.51,1870.47 L1492.61,1868.98 L1493.43,1867.33 L1493.96,1865.55 L1494.14,1863.65 L1493.92,1861.58 L1493.26,1859.75 L1492.2,1858.17 L1490.78,1856.87 L1489.03,1855.82 L1486.96,1855.06 L1484.6,1854.59 L1481.98,1854.44 L1479.35,1854.59 L1477.06,1855.03 L1475.11,1855.72 L1473.5,1856.64 L1472.24,1857.79 L1471.33,1859.13 L1470.8,1860.61 L1470.62,1862.21 L1470.71,1863.22 L1470.99,1864.05 L1471.45,1864.69 L1472.06,1865.21 L1472.8,1865.57 L1473.64,1865.8 L1475.59,1865.97 L1475.85,1862.69 L1476.22,1861.23 L1476.81,1859.95 L1477.65,1858.88 L1478.76,1858.06 L1480.19,1857.53 L1481.98,1857.35 L1483.52,1857.47 L1484.81,1857.83 L1485.89,1858.42 L1486.73,1859.24 L1487.39,1860.27 L1487.84,1861.5 L1488.09,1862.93 L1488.18,1864.53 L1488,1866.49 L1487.47,1868.26 L1486.63,1869.78 L1485.52,1871.06 L1484.19,1872.09 L1482.63,1872.87 L1480.92,1873.34 L1479.07,1873.49 L1477.23,1873.49 L1477.23,1876.43 L1479.07,1876.43 L1481.38,1876.58 L1483.45,1877.03 L1485.26,1877.71 L1486.76,1878.64 L1487.96,1879.8 L1488.83,1881.18 L1489.38,1882.74 L1489.56,1884.49 L1489.38,1886.89 L1488.85,1888.87 L1488.03,1890.48 L1486.96,1891.76 L1485.68,1892.7 L1484.22,1893.34 L1482.62,1893.7 L1480.94,1893.82"
         id="path97" />
    </g>
    <g
       fill="#000000"
       fill-opacity="1"
       stroke="#000000"
       stroke-opacity="1"
       stroke-width="1"
       stroke-linecap="round"
       stroke-linejoin="bevel"
       transform="matrix(1,0,0,1,0,0)"
       font-family="Arial"
       font-size="12"
       font-weight="400"
       font-style="normal"
       id="g99" />
    <g
       fill="#000000"
       fill-opacity="1"
       stroke="none"
       transform="matrix(1,0,0,1,0,0)"
       font-family="Arial"
       font-size="12"
       font-weight="400"
       font-style="normal"
       id="g100">
      <path
         vector-effect="none"
         fill-rule="evenodd"
         d="M1521.17,1869.45 L1521.07,1870.26 L1520.77,1871.12 L1519.73,1872.98 L1516.73,1877.31 L1512.91,1872.11 L1512.33,1871.29 L1511.9,1870.64 L1511.64,1870.04 L1511.56,1869.45 L1511.7,1868.8 L1511.9,1868.52 L1512.21,1868.26 L1513.22,1867.89 L1513.96,1867.79 L1514.86,1867.75 L1515.03,1867.75 L1515.03,1865.32 L1500.33,1865.32 L1500.33,1867.75 L1501.1,1867.75 L1502.37,1867.95 L1503.58,1868.54 L1504.81,1869.51 L1506.07,1870.83 L1513.37,1880.79 L1506.07,1890.23 L1505.26,1891.22 L1504.52,1892.04 L1503.1,1893.17 L1501.6,1893.76 L1499.77,1893.93 L1499.23,1893.93 L1499.23,1896.36 L1513.03,1896.36 L1513.03,1893.93 L1512.86,1893.93 L1511.19,1893.83 L1510.09,1893.54 L1509.72,1893.31 L1509.46,1892.97 L1509.29,1892.6 L1509.27,1892.12 L1509.41,1891.19 L1509.77,1890.2 L1510.28,1889.27 L1510.82,1888.48 L1514.86,1882.82 L1518.74,1888.02 L1519.35,1888.86 L1519.84,1889.55 L1520.52,1890.62 L1520.86,1891.39 L1520.94,1892.01 L1520.89,1892.46 L1520.72,1892.86 L1520.43,1893.2 L1520.07,1893.45 L1518.98,1893.81 L1517.46,1893.93 L1517.18,1893.93 L1517.18,1896.36 L1532.14,1896.36 L1532.14,1893.93 L1531.37,1893.93 L1530.27,1893.76 L1529.14,1893.25 L1527.97,1892.3 L1526.74,1890.85 L1518.23,1879.4 L1524.19,1871.46 L1525.03,1870.4 L1525.78,1869.56 L1526.47,1868.91 L1527.13,1868.43 L1528.49,1867.89 L1530.05,1867.75 L1530.55,1867.75 L1530.55,1865.32 L1517.89,1865.32 L1517.89,1867.75 L1518.06,1867.75 L1519.27,1867.84 L1520.26,1868.09 L1520.66,1868.32 L1520.94,1868.6 L1521.11,1869 L1521.17,1869.45"
         id="path99" />
    </g>
    <g
       fill="#000000"
       fill-opacity="1"
       stroke="#000000"
       stroke-opacity="1"
       stroke-width="1"
       stroke-linecap="round"
       stroke-linejoin="bevel"
       transform="matrix(1,0,0,1,0,0)"
       font-family="Arial"
       font-size="12"
       font-weight="400"
       font-style="normal"
       id="g101" />
    <g
       fill="#000000"
       fill-opacity="1"
       stroke="none"
       transform="matrix(1,0,0,1,0,0)"
       font-family="Arial"
       font-size="12"
       font-weight="400"
       font-style="normal"
       id="g102">
      <path
         vector-effect="none"
         fill-rule="evenodd"
         d="M1537.99,1896.36 L1560.04,1896.36 L1560.04,1893.93 L1557.21,1893.93 L1555.35,1893.79 L1554.55,1893.58 L1553.85,1893.23 L1553.26,1892.69 L1552.83,1891.95 L1552.56,1891 L1552.47,1889.78 L1552.47,1854.8 L1548.76,1854.8 L1544.69,1857.8 L1543.31,1858.78 L1542.06,1859.61 L1539.88,1860.88 L1537.99,1861.73 L1536.24,1862.27 L1536.44,1863.54 L1537.06,1864.53 L1537.99,1865.18 L1539.15,1865.38 L1540,1865.27 L1540.85,1864.95 L1541.73,1864.42 L1542.63,1863.71 L1544.52,1861.82 L1546.61,1859.36 L1546.61,1889.78 L1546.51,1891 L1546.22,1891.95 L1545.76,1892.69 L1545.2,1893.23 L1544.51,1893.58 L1543.7,1893.79 L1541.86,1893.93 L1537.99,1893.93 L1537.99,1896.36"
         id="path101" />
    </g>
    <g
       fill="#000000"
       fill-opacity="1"
       stroke="#000000"
       stroke-opacity="1"
       stroke-width="1"
       stroke-linecap="round"
       stroke-linejoin="bevel"
       transform="matrix(1,0,0,1,0,0)"
       font-family="Arial"
       font-size="12"
       font-weight="400"
       font-style="normal"
       id="g103" />
    <g
       fill="#000000"
       fill-opacity="1"
       stroke="none"
       transform="matrix(1,0,0,1,0,0)"
       font-family="Arial"
       font-size="12"
       font-weight="400"
       font-style="normal"
       id="g104">
      <path
         vector-effect="none"
         fill-rule="evenodd"
         d="M1594.56,1875.64 L1594.35,1871.04 L1593.71,1866.9 L1593.25,1865.01 L1592.67,1863.26 L1591.99,1861.66 L1591.2,1860.2 L1590.3,1858.9 L1589.29,1857.75 L1588.18,1856.76 L1586.96,1855.94 L1585.64,1855.29 L1584.21,1854.83 L1582.69,1854.54 L1581.05,1854.44 L1579.31,1854.53 L1577.7,1854.81 L1576.22,1855.28 L1574.86,1855.94 L1573.63,1856.76 L1572.51,1857.75 L1571.51,1858.9 L1570.62,1860.2 L1569.85,1861.66 L1569.19,1863.26 L1568.63,1865 L1568.18,1866.88 L1567.59,1871 L1567.39,1875.58 L1567.59,1880.18 L1568.18,1884.35 L1568.63,1886.24 L1569.19,1888 L1569.85,1889.61 L1570.62,1891.08 L1571.51,1892.4 L1572.51,1893.56 L1573.63,1894.56 L1574.86,1895.4 L1576.19,1896.07 L1577.66,1896.56 L1579.27,1896.84 L1580.99,1896.93 L1582.64,1896.84 L1584.19,1896.56 L1585.63,1896.07 L1586.96,1895.4 L1588.18,1894.56 L1589.29,1893.56 L1590.3,1892.4 L1591.2,1891.08 L1591.99,1889.61 L1592.67,1888 L1593.25,1886.24 L1593.71,1884.35 L1594.35,1880.21 L1594.56,1875.64 M1573.41,1875.64 L1573.51,1871.58 L1573.81,1867.98 L1574.33,1864.88 L1575.11,1862.3 L1576.15,1860.26 L1577.46,1858.79 L1579.07,1857.89 L1580.02,1857.65 L1581.05,1857.57 L1582.05,1857.65 L1582.97,1857.89 L1584.55,1858.79 L1585.85,1860.26 L1586.87,1862.3 L1587.64,1864.88 L1588.14,1867.98 L1588.44,1871.58 L1588.54,1875.64 L1588.44,1879.71 L1588.14,1883.33 L1587.64,1886.44 L1586.87,1889.04 L1585.85,1891.09 L1584.55,1892.6 L1583.78,1893.15 L1582.94,1893.54 L1580.99,1893.82 L1579.04,1893.54 L1578.2,1893.15 L1577.43,1892.6 L1576.12,1891.09 L1575.08,1889.04 L1574.33,1886.44 L1573.81,1883.33 L1573.51,1879.71 L1573.41,1875.64"
         id="path103" />
    </g>
    <g
       fill="#000000"
       fill-opacity="1"
       stroke="#000000"
       stroke-opacity="1"
       stroke-width="3"
       stroke-linecap="round"
       stroke-linejoin="bevel"
       transform="matrix(1,0,0,1,0,0)"
       font-family="Arial"
       font-size="12"
       font-weight="400"
       font-style="normal"
       id="g105">
      <polyline
         fill="none"
         vector-effect="none"
         points="1352.04,1875.68 1399.43,1904.31 1599.09,1904.31 "
         id="polyline104" />
    </g>
    <g
       fill="none"
       stroke="#000000"
       stroke-opacity="1"
       stroke-width="1"
       stroke-linecap="square"
       stroke-linejoin="bevel"
       transform="matrix(1,0,0,1,0,0)"
       font-family="Arial"
       font-size="12"
       font-weight="400"
       font-style="normal"
       id="g106" />
  </g>
</svg>
