  0
SECTION
  2
HEADER
  9
$ACADVER
  1
AC1014
  9
$ACADMAINTVER
 70
     9
  9
$DWGCODEPAGE
  3
ANSI_1252
  9
$INSBASE
 10
0.0
 20
0.0
 30
0.0
  9
$EXTMIN
 10
1.000000000000000E+20
 20
1.000000000000000E+20
 30
1.000000000000000E+20
  9
$EXTMAX
 10
-1.000000000000000E+20
 20
-1.000000000000000E+20
 30
-1.000000000000000E+20
  9
$LIMMIN
 10
0.0
 20
0.0
  9
$LIMMAX
 10
420.0
 20
297.0
  9
$ORTHOMODE
 70
     0
  9
$REGENMODE
 70
     1
  9
$FILLMODE
 70
     1
  9
$QTEXTMODE
 70
     0
  9
$MIRRTEXT
 70
     1
  9
$DRAGMODE
 70
     2
  9
$LTSCALE
 40
1.0
  9
$OSMODE
 70
    37
  9
$ATTMODE
 70
     1
  9
$TEXTSIZE
 40
2.5
  9
$TRACEWID
 40
1.0
  9
$TEXTSTYLE
  7
STANDARD
  9
$CLAYER
  8
0
  9
$CELTYPE
  6
BYLAYER
  9
$CECOLOR
 62
   256
  9
$CELTSCALE
 40
1.0
  9
$DELOBJ
 70
     1
  9
$DISPSILH
 70
     0
  9
$DIMSCALE
 40
1.0
  9
$DIMASZ
 40
2.5
  9
$DIMEXO
 40
0.625
  9
$DIMDLI
 40
3.75
  9
$DIMRND
 40
0.0
  9
$DIMDLE
 40
0.0
  9
$DIMEXE
 40
1.25
  9
$DIMTP
 40
0.0
  9
$DIMTM
 40
0.0
  9
$DIMTXT
 40
2.5
  9
$DIMCEN
 40
2.5
  9
$DIMTSZ
 40
0.0
  9
$DIMTOL
 70
     0
  9
$DIMLIM
 70
     0
  9
$DIMTIH
 70
     0
  9
$DIMTOH
 70
     0
  9
$DIMSE1
 70
     0
  9
$DIMSE2
 70
     0
  9
$DIMTAD
 70
     1
  9
$DIMZIN
 70
     8
  9
$DIMBLK
  1

  9
$DIMASO
 70
     1
  9
$DIMSHO
 70
     1
  9
$DIMPOST
  1

  9
$DIMAPOST
  1

  9
$DIMALT
 70
     0
  9
$DIMALTD
 70
     3
  9
$DIMALTF
 40
0.03937007874016
  9
$DIMLFAC
 40
1.0
  9
$DIMTOFL
 70
     1
  9
$DIMTVP
 40
0.0
  9
$DIMTIX
 70
     0
  9
$DIMSOXD
 70
     0
  9
$DIMSAH
 70
     0
  9
$DIMBLK1
  1

  9
$DIMBLK2
  1

  9
$DIMSTYLE
  2
ISO-25
  9
$DIMCLRD
 70
     0
  9
$DIMCLRE
 70
     0
  9
$DIMCLRT
 70
     0
  9
$DIMTFAC
 40
1.0
  9
$DIMGAP
 40
0.625
  9
$DIMJUST
 70
     0
  9
$DIMSD1
 70
     0
  9
$DIMSD2
 70
     0
  9
$DIMTOLJ
 70
     0
  9
$DIMTZIN
 70
     8
  9
$DIMALTZ
 70
     0
  9
$DIMALTTZ
 70
     0
  9
$DIMFIT
 70
     3
  9
$DIMUPT
 70
     0
  9
$DIMUNIT
 70
     2
  9
$DIMDEC
 70
     2
  9
$DIMTDEC
 70
     2
  9
$DIMALTU
 70
     2
  9
$DIMALTTD
 70
     3
  9
$DIMTXSTY
  7
STANDARD
  9
$DIMAUNIT
 70
     0
  9
$LUNITS
 70
     2
  9
$LUPREC
 70
     4
  9
$SKETCHINC
 40
1.0
  9
$FILLETRAD
 40
0.0
  9
$AUNITS
 70
     0
  9
$AUPREC
 70
     0
  9
$MENU
  1
.
  9
$ELEVATION
 40
0.0
  9
$PELEVATION
 40
0.0
  9
$THICKNESS
 40
0.0
  9
$LIMCHECK
 70
     0
  9
$CHAMFERA
 40
0.0
  9
$CHAMFERB
 40
0.0
  9
$CHAMFERC
 40
0.0
  9
$CHAMFERD
 40
0.0
  9
$SKPOLY
 70
     0
  9
$TDCREATE
 40
2461321.482535197
  9
$TDUPDATE
 40
2461321.482535232
  9
$TDINDWG
 40
0.0000000116
  9
$TDUSRTIMER
 40
0.0000000116
  9
$USRTIMER
 70
     1
  9
$ANGBASE
 50
0.0
  9
$ANGDIR
 70
     0
  9
$PDMODE
 70
     0
  9
$PDSIZE
 40
0.0
  9
$PLINEWID
 40
0.0
  9
$COORDS
 70
     1
  9
$SPLFRAME
 70
     0
  9
$SPLINETYPE
 70
     6
  9
$SPLINESEGS
 70
     8
  9
$ATTDIA
 70
     0
  9
$ATTREQ
 70
     1
  9
$HANDLING
 70
     1
  9
$HANDSEED
  5
100000EB
  9
$SURFTAB1
 70
     6
  9
$SURFTAB2
 70
     6
  9
$SURFTYPE
 70
     6
  9
$SURFU
 70
     6
  9
$SURFV
 70
     6
  9
$UCSNAME
  2

  9
$UCSORG
 10
0.0
 20
0.0
 30
0.0
  9
$UCSXDIR
 10
1.0
 20
0.0
 30
0.0
  9
$UCSYDIR
 10
0.0
 20
1.0
 30
0.0
  9
$PUCSNAME
  2

  9
$PUCSORG
 10
0.0
 20
0.0
 30
0.0
  9
$PUCSXDIR
 10
1.0
 20
0.0
 30
0.0
  9
$PUCSYDIR
 10
0.0
 20
1.0
 30
0.0
  9
$USERI1
 70
     0
  9
$USERI2
 70
     0
  9
$USERI3
 70
     0
  9
$USERI4
 70
     0
  9
$USERI5
 70
     0
  9
$USERR1
 40
0.0
  9
$USERR2
 40
0.0
  9
$USERR3
 40
0.0
  9
$USERR4
 40
0.0
  9
$USERR5
 40
0.0
  9
$WORLDVIEW
 70
     1
  9
$SHADEDGE
 70
     3
  9
$SHADEDIF
 70
    70
  9
$TILEMODE
 70
     1
  9
$MAXACTVP
 70
    64
  9
$PINSBASE
 10
0.0
 20
0.0
 30
0.0
  9
$PLIMCHECK
 70
     0
  9
$PEXTMIN
 10
1.000000000000000E+20
 20
1.000000000000000E+20
 30
1.000000000000000E+20
  9
$PEXTMAX
 10
-1.000000000000000E+20
 20
-1.000000000000000E+20
 30
-1.000000000000000E+20
  9
$PLIMMIN
 10
0.0
 20
0.0
  9
$PLIMMAX
 10
420.0
 20
297.0
  9
$UNITMODE
 70
     0
  9
$VISRETAIN
 70
     1
  9
$PLINEGEN
 70
     0
  9
$PSLTSCALE
 70
     1
  9
$TREEDEPTH
 70
  3020
  9
$PICKSTYLE
 70
     1
  9
$CMLSTYLE
  2
STANDARD
  9
$CMLJUST
 70
     0
  9
$CMLSCALE
 40
20.0
  9
$PROXYGRAPHICS
 70
     1
  9
$MEASUREMENT
 70
     1
  0
ENDSEC
  0
SECTION
  2
CLASSES
  0
CLASS
  1
ACDBDICTIONARYWDFLT
  2
AcDbDictionaryWithDefault
  3
ObjectDBX Classes
 90
        0
280
     0
281
     0
  0
CLASS
  1
VISUALSTYLE
  2
AcDbVisualStyle
  3
ObjectDBX Classes
 90
     4095
280
     0
281
     0
  0
CLASS
  1
MATERIAL
  2
AcDbMaterial
  3
ObjectDBX Classes
 90
     1153
280
     0
281
     0
  0
CLASS
  1
SCALE
  2
AcDbScale
  3
ObjectDBX Classes
 90
     1153
280
     0
281
     0
  0
CLASS
  1
TABLESTYLE
  2
AcDbTableStyle
  3
ObjectDBX Classes
 90
     4095
280
     0
281
     0
  0
CLASS
  1
MLEADERSTYLE
  2
AcDbMLeaderStyle
  3
ACDB_MLEADERSTYLE_CLASS
 90
     4095
280
     0
281
     0
  0
CLASS
  1
SUN
  2
AcDbSun
  3
SCENEOE
 90
     1153
280
     0
281
     0
  0
CLASS
  1
SORTENTSTABLE
  2
AcDbSortentsTable
  3
ObjectDBX Classes
 90
        0
280
     0
281
     0
  0
CLASS
  1
DICTIONARYVAR
  2
AcDbDictionaryVar
  3
ObjectDBX Classes
 90
        0
280
     0
281
     0
  0
CLASS
  1
XRECORD
  2
AcDbXrecord
  3
ObjectDBX Classes
 90
        0
280
     0
281
     0
  0
CLASS
  1
LWPOLYLINE
  2
AcDbPolyline
  3
ObjectDBX Classes
 90
        0
280
     0
281
     1
  0
CLASS
  1
HATCH
  2
AcDbHatch
  3
ObjectDBX Classes
 90
        0
280
     0
281
     1
  0
CLASS
  1
ACDBPLACEHOLDER
  2
AcDbPlaceHolder
  3
ObjectDBX Classes
 90
        0
280
     0
281
     0
  0
CLASS
  1
LAYOUT
  2
AcDbLayout
  3
ObjectDBX Classes
 90
        0
280
     0
281
     0
  0
ENDSEC
  0
SECTION
  2
TABLES
  0
TABLE
  2
VPORT
  5
8
102
{ACAD_XDICTIONARY
360
100000E0
102
}
330
0
100
AcDbSymbolTable
 70
     1
  0
VPORT
  5
29
330
8
100
AcDbSymbolTableRecord
100
AcDbViewportTableRecord
  2
*ACTIVE
 70
     0
 10
0.0
 20
0.0
 11
1.0
 21
1.0
 12
344.1869158878504
 22
148.5
 13
0.0
 23
0.0
 14
10.0
 24
10.0
 15
10.0
 25
10.0
 16
0.0
 26
0.0
 36
1.0
 17
0.0
 27
0.0
 37
0.0
 40
297.0
 41
1.972972972850329
 42
50.0
 43
0.0
 44
0.0
 50
0.0
 51
0.0
 71
     0
 72
   100
 73
     1
 74
     3
 75
     0
 76
     0
 77
     0
 78
     0
  0
ENDTAB
  0
TABLE
  2
LTYPE
  5
5
330
0
100
AcDbSymbolTable
 70
     7
  0
LTYPE
  5
14
330
5
100
AcDbSymbolTableRecord
100
AcDbLinetypeTableRecord
  2
BYBLOCK
 70
     0
  3

 72
    65
 73
     0
 40
0.0
  0
LTYPE
  5
15
330
5
100
AcDbSymbolTableRecord
100
AcDbLinetypeTableRecord
  2
BYLAYER
 70
     0
  3

 72
    65
 73
     0
 40
0.0
  0
LTYPE
  5
16
330
5
100
AcDbSymbolTableRecord
100
AcDbLinetypeTableRecord
  2
CONTINUOUS
 70
     0
  3
Solid line
 72
    65
 73
     0
 40
0.0
  0
LTYPE
  5
10000024
330
5
100
AcDbSymbolTableRecord
100
AcDbLinetypeTableRecord
  2
ONS_PHANTOM
 70
     0
  3
Onshape Phantom line ______ __ __ ______
 72
    65
 73
     6
 40
0.4999999999999999
 49
0.25
 74
     0
 49
-0.05
 74
     0
 49
0.05
 74
     0
 49
-0.05
 74
     0
 49
0.05
 74
     0
 49
-0.05
 74
     0
  0
LTYPE
  5
10000025
330
5
100
AcDbSymbolTableRecord
100
AcDbLinetypeTableRecord
  2
CENTER
 70
     0
  3
Center line ____ _ ____ _ ____ _
 72
    65
 73
     4
 40
0.7874015748031495
 49
0.4921259842519685
 74
     0
 49
-0.0984251968503937
 74
     0
 49
0.0984251968503937
 74
     0
 49
-0.0984251968503937
 74
     0
  0
LTYPE
  5
10000026
330
5
100
AcDbSymbolTableRecord
100
AcDbLinetypeTableRecord
  2
DASHED
 70
     0
  3
Dashed line __ __ __ __ __
 72
    65
 73
     2
 40
0.75
 49
0.5
 74
     0
 49
-0.25
 74
     0
  0
LTYPE
  5
10000027
330
5
100
AcDbSymbolTableRecord
100
AcDbLinetypeTableRecord
  2
ONS_DASHDOT
 70
     0
  3
Onshape Dashed with Dot _ . ____ . ____
 72
    65
 73
     4
 40
0.71
 49
0.5
 74
     0
 49
-0.1
 74
     0
 49
0.01
 74
     0
 49
-0.1
 74
     0
  0
LTYPE
  5
10000028
330
5
100
AcDbSymbolTableRecord
100
AcDbLinetypeTableRecord
  2
ONS_DOTTED
 70
     0
  3
Onshape Dotted line . . . . . . .
 72
    65
 73
     2
 40
0.11
 49
0.01
 74
     0
 49
-0.1
 74
     0
  0
LTYPE
  5
10000029
330
5
100
AcDbSymbolTableRecord
100
AcDbLinetypeTableRecord
  2
HIDDEN
 70
     0
  3
Hidden line ____ ____ ____ ____ 
 72
    65
 73
     2
 40
0.15
 49
0.1
 74
     0
 49
-0.05
 74
     0
  0
ENDTAB
  0
TABLE
  2
LAYER
  5
2
330
0
100
AcDbSymbolTable
 70
    48
  0
LAYER
  5
10
330
2
100
AcDbSymbolTableRecord
100
AcDbLayerTableRecord
  2
0
 70
     0
 62
     7
  6
CONTINUOUS
  0
LAYER
  5
1000002A
330
2
100
AcDbSymbolTableRecord
100
AcDbLayerTableRecord
  2
SECTION_CUTTING_LINE
 70
     0
 62
     7
  6
ONS_DASHDOT
  0
LAYER
  5
1000002B
330
2
100
AcDbSymbolTableRecord
100
AcDbLayerTableRecord
  2
DETAIL_VIEW_BORDER
 70
     0
 62
     7
  6
CONTINUOUS
  0
LAYER
  5
1000002C
330
2
100
AcDbSymbolTableRecord
100
AcDbLayerTableRecord
  2
DETAIL_VIEW_PARENT_BORDER
 70
     0
 62
     7
  6
ONS_PHANTOM
  0
LAYER
  5
1000002D
330
2
100
AcDbSymbolTableRecord
100
AcDbLayerTableRecord
  2
TEXT
 70
     0
 62
     7
  6
CONTINUOUS
  0
LAYER
  5
1000002E
330
2
100
AcDbSymbolTableRecord
100
AcDbLayerTableRecord
  2
SKETCHED_GEOMETRY
 70
     0
 62
    -7
  6
CONTINUOUS
  0
LAYER
  5
1000002F
330
2
100
AcDbSymbolTableRecord
100
AcDbLayerTableRecord
  2
VIRTUAL_SHARPS
 70
     0
 62
    -7
  6
CONTINUOUS
  0
LAYER
  5
10000030
330
2
100
AcDbSymbolTableRecord
100
AcDbLayerTableRecord
  2
CENTERLINES
 70
     0
 62
    -7
  6
CENTER
  0
LAYER
  5
10000031
330
2
100
AcDbSymbolTableRecord
100
AcDbLayerTableRecord
  2
CENTERMARKS
 70
     0
 62
    -7
  6
CONTINUOUS
  0
LAYER
  5
10000032
330
2
100
AcDbSymbolTableRecord
100
AcDbLayerTableRecord
  2
TABLES
 70
     0
 62
     7
  6
CONTINUOUS
  0
LAYER
  5
10000033
330
2
100
AcDbSymbolTableRecord
100
AcDbLayerTableRecord
  2
IMAGES
 70
     0
 62
    -7
  6
CONTINUOUS
  0
LAYER
  5
10000034
330
2
100
AcDbSymbolTableRecord
100
AcDbLayerTableRecord
  2
ANNOTATION_LINES
 70
     0
 62
    -7
  6
CONTINUOUS
  0
LAYER
  5
10000035
330
2
100
AcDbSymbolTableRecord
100
AcDbLayerTableRecord
  2
ANNOTATION_TEXT
 70
     0
 62
    -7
  6
CONTINUOUS
  0
LAYER
  5
10000036
330
2
100
AcDbSymbolTableRecord
100
AcDbLayerTableRecord
  2
SIDE_THREAD_SYMBOLS
 70
     0
 62
     7
  6
CONTINUOUS
  0
LAYER
  5
10000037
330
2
100
AcDbSymbolTableRecord
100
AcDbLayerTableRecord
  2
SIDE_THREAD_SYMBOLS_HIDDEN
 70
     0
 62
    -7
  6
HIDDEN
  0
LAYER
  5
10000038
330
2
100
AcDbSymbolTableRecord
100
AcDbLayerTableRecord
  2
SURFACE_THREAD_SYMBOLS
 70
     0
 62
     7
  6
CONTINUOUS
  0
LAYER
  5
10000039
330
2
100
AcDbSymbolTableRecord
100
AcDbLayerTableRecord
  2
SURFACE_THREAD_SYMBOLS_ON_
 70
     0
 62
     7
  6
CONTINUOUS
  0
LAYER
  5
1000003A
330
2
100
AcDbSymbolTableRecord
100
AcDbLayerTableRecord
  2
SURFACE_THREAD_SYMBOLS_HID
 70
     0
 62
    -7
  6
HIDDEN
  0
LAYER
  5
1000003B
330
2
100
AcDbSymbolTableRecord
100
AcDbLayerTableRecord
  2
BLIND_THREAD_SYMBOLS
 70
     0
 62
     7
  6
CONTINUOUS
  0
LAYER
  5
1000003C
330
2
100
AcDbSymbolTableRecord
100
AcDbLayerTableRecord
  2
BLIND_THREAD_SYMBOLS_HIDDE
 70
     0
 62
    -7
  6
HIDDEN
  0
LAYER
  5
1000003D
330
2
100
AcDbSymbolTableRecord
100
AcDbLayerTableRecord
  2
EXPLODE_LINES
 70
     0
 62
     7
  6
ONS_PHANTOM
  0
LAYER
  5
1000003E
330
2
100
AcDbSymbolTableRecord
100
AcDbLayerTableRecord
  2
HIDDEN_EXPLODE_LINES
 70
     0
 62
    -7
  6
ONS_PHANTOM
  0
LAYER
  5
1000003F
330
2
100
AcDbSymbolTableRecord
100
AcDbLayerTableRecord
  2
BREAK_LINES
 70
     0
 62
    -7
  6
CONTINUOUS
  0
LAYER
  5
10000040
330
2
100
AcDbSymbolTableRecord
100
AcDbLayerTableRecord
  2
SHEETMETAL_BEND_LINES_UP
 70
     0
 62
     7
  6
CENTER
  0
LAYER
  5
10000041
330
2
100
AcDbSymbolTableRecord
100
AcDbLayerTableRecord
  2
SHEETMETAL_BEND_LINES_DOWN
 70
     0
 62
     7
  6
CENTER
  0
LAYER
  5
10000042
330
2
100
AcDbSymbolTableRecord
100
AcDbLayerTableRecord
  2
SHEETMETAL_BEND_TANGENT_LI
 70
     0
 62
     7
  6
CONTINUOUS
  0
LAYER
  5
10000043
330
2
100
AcDbSymbolTableRecord
100
AcDbLayerTableRecord
  2
SHEETMETAL_CUT_LINES
 70
     0
 62
     7
  6
CONTINUOUS
  0
LAYER
  5
10000044
330
2
100
AcDbSymbolTableRecord
100
AcDbLayerTableRecord
  2
SHEETMETAL_CBORE_CSINK_UP
 70
     0
 62
     7
  6
CONTINUOUS
  0
LAYER
  5
10000045
330
2
100
AcDbSymbolTableRecord
100
AcDbLayerTableRecord
  2
SHEETMETAL_CBORE_CSINK_DOW
 70
     0
 62
     7
  6
CONTINUOUS
  0
LAYER
  5
10000046
330
2
100
AcDbSymbolTableRecord
100
AcDbLayerTableRecord
  2
SHEETMETAL_CBORE_CSINK_UP_
 70
     0
 62
    -7
  6
HIDDEN
  0
LAYER
  5
10000047
330
2
100
AcDbSymbolTableRecord
100
AcDbLayerTableRecord
  2
SHEETMETAL_CBORE_CSINK_DO0
 70
     0
 62
    -7
  6
HIDDEN
  0
LAYER
  5
10000048
330
2
100
AcDbSymbolTableRecord
100
AcDbLayerTableRecord
  2
SHEETMETAL_FORM_TEAR
 70
     0
 62
     7
  6
CONTINUOUS
  0
LAYER
  5
10000049
330
2
100
AcDbSymbolTableRecord
100
AcDbLayerTableRecord
  2
SHEETMETAL_FORM_UP
 70
     0
 62
     7
  6
CENTER
  0
LAYER
  5
1000004A
330
2
100
AcDbSymbolTableRecord
100
AcDbLayerTableRecord
  2
SHEETMETAL_FORM_DOWN
 70
     0
 62
     7
  6
CENTER
  0
LAYER
  5
1000004B
330
2
100
AcDbSymbolTableRecord
100
AcDbLayerTableRecord
  2
SHEETMETAL_FORM_CENTERMARK
 70
     0
 62
     7
  6
CENTER
  0
LAYER
  5
1000004C
330
2
100
AcDbSymbolTableRecord
100
AcDbLayerTableRecord
  2
REGION_ASSOC_POINTS
 70
     0
 62
    -7
  6
CONTINUOUS
  0
LAYER
  5
1000004D
330
2
100
AcDbSymbolTableRecord
100
AcDbLayerTableRecord
  2
PATTERN_CENTERLINES
 70
     1
 62
    -7
  6
CENTER
  0
LAYER
  5
1000004E
330
2
100
AcDbSymbolTableRecord
100
AcDbLayerTableRecord
  2
HIDDEN
 70
     0
 62
    -7
  6
HIDDEN
  0
LAYER
  5
1000004F
330
2
100
AcDbSymbolTableRecord
100
AcDbLayerTableRecord
  2
VISIBLE
 70
     0
 62
     7
  6
CONTINUOUS
  0
LAYER
  5
10000050
330
2
100
AcDbSymbolTableRecord
100
AcDbLayerTableRecord
  2
MODELSKETCH_VISIBLE
 70
     0
 62
     7
  6
CONTINUOUS
  0
LAYER
  5
10000051
330
2
100
AcDbSymbolTableRecord
100
AcDbLayerTableRecord
  2
MODELSKETCH_POINT
 70
     0
 62
     7
  6
CONTINUOUS
  0
LAYER
  5
10000052
330
2
100
AcDbSymbolTableRecord
100
AcDbLayerTableRecord
  2
MODELSKETCH_CONSTRUCTION
 70
     0
 62
    -7
  6
CENTER
  0
LAYER
  5
10000053
330
2
100
AcDbSymbolTableRecord
100
AcDbLayerTableRecord
  2
HIDDEN_BASE_VIEW
 70
     0
 62
     7
  6
CONTINUOUS
  0
LAYER
  5
10000054
330
2
100
AcDbSymbolTableRecord
100
AcDbLayerTableRecord
  2
TANGENT_LINES
 70
     0
 62
    -7
  6
CONTINUOUS
  0
LAYER
  5
10000055
330
2
100
AcDbSymbolTableRecord
100
AcDbLayerTableRecord
  2
TANGENT_HIDDEN
 70
     0
 62
    -7
  6
HIDDEN
  0
LAYER
  5
10000056
330
2
100
AcDbSymbolTableRecord
100
AcDbLayerTableRecord
  2
INVISIBLE_LINES
 70
     0
 62
    -7
  6
CONTINUOUS
  0
LAYER
  5
10000057
330
2
100
AcDbSymbolTableRecord
100
AcDbLayerTableRecord
  2
VIEW_HATCHES
 70
     0
 62
    -7
  6
CONTINUOUS
  0
LAYER
  5
10000058
330
2
100
AcDbSymbolTableRecord
100
AcDbLayerTableRecord
  2
SECTION_JOG_LINES
 70
     0
 62
    -7
  6
CONTINUOUS
  0
ENDTAB
  0
TABLE
  2
STYLE
  5
3
330
0
100
AcDbSymbolTable
 70
     2
  0
STYLE
  5
11
330
3
100
AcDbSymbolTableRecord
100
AcDbTextStyleTableRecord
  2
STANDARD
 70
     0
 40
0.0
 41
1.0
 50
0.0
 71
     0
 42
2.5
  3
txt
  4

  0
STYLE
  5
10000004
330
3
100
AcDbSymbolTableRecord
100
AcDbTextStyleTableRecord
  2
TTFSTYLE
 70
     0
 40
0.0
 41
1.0
 50
0.0
 71
     0
 42
2.5
  3

  4

1001
ACAD
1000
Verdana
1071
       34
  0
ENDTAB
  0
TABLE
  2
VIEW
  5
6
330
0
100
AcDbSymbolTable
 70
     0
  0
ENDTAB
  0
TABLE
  2
UCS
  5
7
330
0
100
AcDbSymbolTable
 70
     0
  0
ENDTAB
  0
TABLE
  2
APPID
  5
9
330
0
100
AcDbSymbolTable
 70
     2
  0
APPID
  5
12
330
9
100
AcDbSymbolTableRecord
100
AcDbRegAppTableRecord
  2
ACAD
 70
     0
  0
APPID
  5
100000EA
330
9
100
AcDbSymbolTableRecord
100
AcDbRegAppTableRecord
  2
ACAD_MLEADERVER
 70
     0
  0
ENDTAB
  0
TABLE
  2
DIMSTYLE
  5
A
330
0
100
AcDbSymbolTable
 70
     1
  0
DIMSTYLE
105
27
330
A
100
AcDbSymbolTableRecord
100
AcDbDimStyleTableRecord
  2
ISO-25
 70
     0
  3

  4

  5

  6

  7

 40
1.0
 41
2.5
 42
0.625
 43
3.75
 44
1.25
 45
0.0
 46
0.0
 47
0.0
 48
0.0
140
2.5
141
2.5
142
0.0
143
0.03937007874016
144
1.0
145
0.0
146
1.0
147
0.625
 71
     0
 72
     0
 73
     0
 74
     0
 75
     0
 76
     0
 77
     1
 78
     8
170
     0
171
     3
172
     1
173
     0
174
     0
175
     0
176
     0
177
     0
178
     0
270
     2
271
     2
272
     2
273
     2
274
     3
340
11
275
     0
280
     0
281
     0
282
     0
283
     0
284
     8
285
     0
286
     0
287
     3
288
     0
  0
ENDTAB
  0
TABLE
  2
BLOCK_RECORD
  5
1
330
0
100
AcDbSymbolTable
 70
     0
  0
BLOCK_RECORD
  5
1F
102
{ACAD_XDICTIONARY
360
100000B1
102
}
330
1
100
AcDbSymbolTableRecord
100
AcDbBlockTableRecord
  2
*MODEL_SPACE
  0
BLOCK_RECORD
  5
1B
330
1
100
AcDbSymbolTableRecord
100
AcDbBlockTableRecord
  2
*PAPER_SPACE
  0
ENDTAB
  0
ENDSEC
  0
SECTION
  2
BLOCKS
  0
BLOCK
  5
20
330
1F
100
AcDbEntity
  8
0
100
AcDbBlockBegin
  2
*MODEL_SPACE
 70
     0
 10
0.0
 20
0.0
 30
0.0
  3
*MODEL_SPACE
  1

  0
ENDBLK
  5
21
330
1F
100
AcDbEntity
  8
0
100
AcDbBlockEnd
  0
BLOCK
  5
1C
330
1B
100
AcDbEntity
 67
     1
  8
0
100
AcDbBlockBegin
  2
*PAPER_SPACE
 70
     0
 10
0.0
 20
0.0
 30
0.0
  3
*PAPER_SPACE
  1

  0
ENDBLK
  5
1D
330
1B
100
AcDbEntity
 67
     1
  8
0
100
AcDbBlockEnd
  0
ENDSEC
  0
SECTION
  2
ENTITIES
  0
CIRCLE
  5
10000059
102
{ACAD_XDICTIONARY
360
1000005A
102
}
330
1F
100
AcDbEntity
  8
MODELSKETCH_VISIBLE
100
AcDbCircle
 10
21.29172944569073
 20
-16.52394056929351
 30
0.0
 40
7.800000000000002
  0
CIRCLE
  5
1000005D
102
{ACAD_XDICTIONARY
360
1000005E
102
}
330
1F
100
AcDbEntity
  8
MODELSKETCH_VISIBLE
100
AcDbCircle
 10
21.29172944569072
 20
15.4760594307065
 30
0.0
 40
7.800000000000002
  0
CIRCLE
  5
10000061
102
{ACAD_XDICTIONARY
360
10000062
102
}
330
1F
100
AcDbEntity
  8
MODELSKETCH_VISIBLE
100
AcDbCircle
 10
49.00454236679276
 20
-32.5239405692935
 30
0.0
 40
7.800000000000001
  0
CIRCLE
  5
10000065
102
{ACAD_XDICTIONARY
360
10000066
102
}
330
1F
100
AcDbEntity
  8
MODELSKETCH_VISIBLE
100
AcDbCircle
 10
76.71735528789479
 20
-16.52394056929349
 30
0.0
 40
7.799999999999999
  0
CIRCLE
  5
10000069
102
{ACAD_XDICTIONARY
360
1000006A
102
}
330
1F
100
AcDbEntity
  8
MODELSKETCH_VISIBLE
100
AcDbCircle
 10
76.71735528789479
 20
15.4760594307065
 30
0.0
 40
7.800000000000002
  0
CIRCLE
  5
1000006D
102
{ACAD_XDICTIONARY
360
1000006E
102
}
330
1F
100
AcDbEntity
  8
MODELSKETCH_VISIBLE
100
AcDbCircle
 10
49.00454236679276
 20
31.47605943070651
 30
0.0
 40
7.800000000000001
  0
CIRCLE
  5
10000071
102
{ACAD_XDICTIONARY
360
10000072
102
}
330
1F
100
AcDbEntity
  8
MODELSKETCH_VISIBLE
100
AcDbCircle
 10
39.00454236679276
 20
34.7760594307065
 30
0.0
 40
1.5
  0
CIRCLE
  5
10000075
102
{ACAD_XDICTIONARY
360
10000076
102
}
330
1F
100
AcDbEntity
  8
MODELSKETCH_VISIBLE
100
AcDbCircle
 10
-79.30827055430933
 20
15.4760594307065
 30
0.0
 40
7.800000000000002
  0
CIRCLE
  5
10000079
102
{ACAD_XDICTIONARY
360
1000007A
102
}
330
1F
100
AcDbEntity
  8
MODELSKETCH_VISIBLE
100
AcDbCircle
 10
-23.88264471210525
 20
-16.52394056929349
 30
0.0
 40
7.799999999999999
  0
SPLINE
  5
1000007D
102
{ACAD_XDICTIONARY
360
1000007E
102
}
330
1F
100
AcDbEntity
  8
MODELSKETCH_VISIBLE
100
AcDbSpline
210
0.0
220
0.0
230
1.0
 70
     8
 71
     3
 72
   110
 73
   106
 74
     0
 42
0.0000000001
 43
0.00000001
 40
0.0
 40
0.0
 40
0.0
 40
0.0
 40
0.0058707474009538
 40
0.0116415739939358
 40
0.0156101827275022
 40
0.0195380159807799
 40
0.0234936447242374
 40
0.0276902643109069
 40
0.0326472089050046
 40
0.038039685766068
 40
0.0436924664168786
 40
0.048558699936712
 40
0.0526207548015405
 40
0.0562803988270317
 40
0.0623048272225703
 40
0.0684547553245229
 40
0.07474157854125
 40
0.0810291739151711
 40
0.0871811280639234
 40
0.0932045252005416
 40
0.0968610449141556
 40
0.1009114740375478
 40
0.1057574596457563
 40
0.111406009166129
 40
0.1168215187061097
 40
0.121331750451281
 40
0.1252028234419482
 40
0.1308689283124154
 40
0.1365361636337697
 40
0.1423478668220262
 40
0.1482290764331554
 40
0.1540783387851215
 40
0.1585404122869315
 40
0.1629292604087599
 40
0.1672682828276816
 40
0.1717015067575063
 40
0.1767437595351848
 40
0.1806786206763245
 40
0.1850752716550137
 40
0.1897206458176452
 40
0.1940874247050149
 40
0.1992718895299619
 40
0.2035708810700769
 40
0.2075740302879902
 40
0.2115333161043563
 40
0.2155307036451581
 40
0.2195845572536621
 40
0.2254127004396419
 40
0.2312966691576084
 40
0.2371321806176873
 40
0.24283360214388
 40
0.2463857169011827
 40
0.2499396695254497
 40
0.2535779220646843
 40
0.2574986170427421
 40
0.2620811813401247
 40
0.2676118370371338
 40
0.2733304233592129
 40
0.2783564454685554
 40
0.2825285247599251
 40
0.286348286822845
 40
0.2900728747461508
 40
0.2938043851492934
 40
0.3003789269839267
 40
0.3071059950081204
 40
0.3137932216089544
 40
0.3197569152535036
 40
0.3257341603226173
 40
0.3294788514461003
 40
0.3338091002555939
 40
0.3389203998730127
 40
0.3443253701809563
 40
0.3491235473380179
 40
0.3542723714356994
 40
0.3587748907362964
 40
0.3631848560009476
 40
0.3676501590016736
 40
0.3721917060316696
 40
0.3780473632604045
 40
0.3839265306321227
 40
0.3897284330715076
 40
0.3953850091448535
 40
0.3989263140409889
 40
0.4025235017633513
 40
0.4063397430721623
 40
0.4107063707849435
 40
0.4160125005849955
 40
0.4206538884479146
 40
0.4250793230154437
 40
0.4297929236237443
 40
0.4337646518146932
 40
0.4373638966010055
 40
0.4408200131252821
 40
0.4464401234892239
 40
0.4522003067038359
 40
0.4580670968134635
 40
0.463941038527234
 40
0.4697223639666621
 40
0.4753578436202881
 40
0.4793365344305247
 40
0.4835278542721839
 40
0.4884379713488959
 40
0.4926045068764898
 40
0.4971661553058229
 40
0.5
 40
0.5
 40
0.5
 40
0.5
 10
49.00454236679276
 20
45.0760594307065
 30
0.0
 10
49.66813469585754
 20
45.041473087543
 30
0.0
 10
50.98402493486881
 20
44.97288906482521
 30
0.0
 10
52.86520378507753
 20
44.27973076693425
 30
0.0
 10
53.67985050509373
 20
43.84149983777485
 30
0.0
 10
54.47709788819876
 20
43.34154693426648
 30
0.0
 10
55.21464919631652
 20
42.7834891014473
 30
0.0
 10
56.01599579948669
 20
42.11622654098014
 30
0.0
 10
57.16848052612107
 20
41.22381814162125
 30
0.0
 10
58.68084014941314
 20
40.46667663076893
 30
0.0
 10
60.55135834961298
 20
40.19582472107632
 30
0.0
 10
61.9177580203631
 20
40.35864927914584
 30
0.0
 10
62.9304162676232
 20
40.55834985318929
 30
0.0
 10
63.70181433129765
 20
40.73195783971436
 30
0.0
 10
65.88899657420478
 20
41.03224417855953
 30
0.0
 10
68.01651098140147
 20
40.7556500093912
 30
0.0
 10
70.23417078231533
 20
39.95284967319909
 30
0.0
 10
72.15859168193099
 20
38.58867332807601
 30
0.0
 10
73.59995732903407
 20
36.99755657832203
 30
0.0
 10
74.59893794496247
 20
35.02967759202527
 30
0.0
 10
74.89417260592137
 20
34.29745074441288
 30
0.0
 10
75.30147433049449
 20
33.35571328869883
 30
0.0
 10
75.93630199170198
 20
32.14487984199961
 30
0.0
 10
77.19596191898016
 20
30.75491531284546
 30
0.0
 10
78.68667444275285
 20
29.93447898346175
 30
0.0
 10
79.87600772753969
 20
29.53971324811916
 30
0.0
 10
80.72516372418775
 20
29.30584057259484
 30
0.0
 10
82.57594900627066
 20
28.72103520179201
 30
0.0
 10
84.17078113400366
 20
27.82891635123611
 30
0.0
 10
85.71232536047907
 20
26.51043172863784
 30
0.0
 10
86.92323916829672
 20
24.92984319800448
 30
0.0
 10
87.7452293097981
 20
23.05857010141665
 30
0.0
 10
88.02401358114761
 20
21.92262254096141
 30
0.0
 10
88.19063325851143
 20
20.77522153497432
 30
0.0
 10
88.21372519961844
 20
19.65126236286718
 30
0.0
 10
88.13621378113443
 20
18.53282865313383
 30
0.0
 10
88.01965044268353
 20
17.02023698932909
 30
0.0
 10
88.05901548381928
 20
16.12556298367833
 30
0.0
 10
88.23598631874171
 20
14.97791062119135
 30
0.0
 10
88.71901003364387
 20
13.78729155686368
 30
0.0
 10
89.28953425025516
 20
12.85144997088357
 30
0.0
 10
90.37170004794343
 20
11.67405755816106
 30
0.0
 10
91.15289780329964
 20
10.9570415275448
 30
0.0
 10
91.82674367765499
 20
10.26315488916573
 30
0.0
 10
92.41657777802732
 20
9.564095438495714
 30
0.0
 10
92.96280822522645
 20
8.758506887790253
 30
0.0
 10
93.44674521213838
 20
7.923400543060913
 30
0.0
 10
94.17758830511694
 20
6.02405839842201
 30
0.0
 10
94.39688547666888
 20
4.034531764956945
 30
0.0
 10
94.2677312678093
 20
2.091557552037868
 30
0.0
 10
93.64659147048052
 20
0.2289031519978333
 30
0.0
 10
93.31810245079478
 20
-0.4384982670260986
 30
0.0
 10
92.95081027316922
 20
-1.124634980633997
 30
0.0
 10
92.5422276677352
 20
-1.784849618048565
 30
0.0
 10
92.04594090925715
 20
-2.561118575413458
 30
0.0
 10
91.41861815105219
 20
-3.632848716824205
 30
0.0
 10
90.82519039457011
 20
-5.331076769722248
 30
0.0
 10
90.83709994977634
 20
-7.241806449795535
 30
0.0
 10
91.22460747690262
 20
-8.680852619236035
 30
0.0
 10
91.56100612038455
 20
-9.664170827139875
 30
0.0
 10
91.82658028225178
 20
-10.48011678002219
 30
0.0
 10
92.03237300009157
 20
-11.31711718566092
 30
0.0
 10
92.21112150011798
 20
-12.12156125902107
 30
0.0
 10
92.30425462568539
 20
-14.76185680634288
 30
0.0
 10
91.57038677149798
 20
-17.1929104888663
 30
0.0
 10
90.10889960564958
 20
-19.48481385102592
 30
0.0
 10
88.65122090115871
 20
-20.8589171074472
 30
0.0
 10
86.78021615943778
 20
-21.98765844209898
 30
0.0
 10
86.06662101614081
 20
-22.38989150145553
 30
0.0
 10
85.0886523608873
 20
-23.02395210196708
 30
0.0
 10
83.97496725495022
 20
-24.03651245327093
 30
0.0
 10
83.08914600573219
 20
-25.5412128755677
 30
0.0
 10
82.69634603383564
 20
-26.81179055137274
 30
0.0
 10
82.44301067963319
 20
-28.37275502326928
 30
0.0
 10
82.23926109972827
 20
-29.53294643692992
 30
0.0
 10
81.93370594496908
 20
-30.64903217589278
 30
0.0
 10
81.47252976549638
 20
-31.75647346782558
 30
0.0
 10
80.89304118161728
 20
-32.82115301370018
 30
0.0
 10
79.62512814307357
 20
-34.42111025930667
 30
0.0
 10
78.02054087572722
 20
-35.64372951923846
 30
0.0
 10
76.30741878416119
 20
-36.51366477484635
 30
0.0
 10
74.42079321348804
 20
-36.93845252498708
 30
0.0
 10
73.68403107668081
 20
-37.00948205918016
 30
0.0
 10
72.88762263530353
 20
-37.06505213895245
 30
0.0
 10
72.02271603308184
 20
-37.09587842648671
 30
0.0
 10
70.91427858254718
 20
-37.14656730596737
 30
0.0
 10
69.29910403859236
 20
-37.51244455708279
 30
0.0
 10
68.18082246415464
 20
-38.10633599458271
 30
0.0
 10
67.25659860290324
 20
-38.79786464790729
 30
0.0
 10
66.37550337772194
 20
-39.77242299866964
 30
0.0
 10
65.83557824574628
 20
-40.50206533263653
 30
0.0
 10
65.34393925781839
 20
-41.14609158603976
 30
0.0
 10
64.91366022041093
 20
-41.70213962802366
 30
0.0
 10
63.58360672086355
 20
-43.07994299970584
 30
0.0
 10
61.99586759939029
 20
-44.08715384771651
 30
0.0
 10
60.08773174868785
 20
-44.83722261073672
 30
0.0
 10
58.06189798328291
 20
-45.12910653619269
 30
0.0
 10
56.14485093019795
 20
-45.02710174019101
 30
0.0
 10
54.31682338922445
 20
-44.48682423658395
 30
0.0
 10
53.44912264688121
 20
-44.10708713245002
 30
0.0
 10
52.50966202695087
 20
-43.65337453594993
 30
0.0
 10
51.20587377858402
 20
-43.08088923727271
 30
0.0
 10
50.23529939353894
 20
-42.82093618897373
 30
0.0
 10
49.16590799131492
 20
-42.6918722292347
 30
0.0
 10
48.47779097541397
 20
-42.7443004408414
 30
0.0
 10
48.22757098844288
 20
-42.77578588746694
 30
0.0
  0
CIRCLE
  5
10000081
102
{ACAD_XDICTIONARY
360
10000082
102
}
330
1F
100
AcDbEntity
  8
MODELSKETCH_VISIBLE
100
AcDbCircle
 10
-23.88264471210525
 20
15.4760594307065
 30
0.0
 40
7.800000000000002
  0
CIRCLE
  5
10000085
102
{ACAD_XDICTIONARY
360
10000086
102
}
330
1F
100
AcDbEntity
  8
MODELSKETCH_VISIBLE
100
AcDbCircle
 10
-51.5954576332073
 20
31.47605943070651
 30
0.0
 40
7.800000000000001
  0
SPLINE
  5
10000089
102
{ACAD_XDICTIONARY
360
1000008A
102
}
330
1F
100
AcDbEntity
  8
MODELSKETCH_VISIBLE
100
AcDbSpline
210
0.0
220
0.0
230
1.0
 70
     8
 71
     3
 72
   111
 73
   107
 74
     0
 42
0.0000000001
 43
0.00000001
 40
0.5
 40
0.5
 40
0.5
 40
0.5
 40
0.501727803735156
 40
0.5058943392627503
 40
0.5111193310082248
 40
0.5155580973548891
 40
0.5198372092266694
 40
0.5241452986855349
 40
0.5285228284253817
 40
0.532963583763051
 40
0.5388375254768215
 40
0.5447043155864488
 40
0.5504644988010609
 40
0.5560846091650028
 40
0.5600985782421286
 40
0.5644396413826807
 40
0.5679243604620317
 40
0.5718995962142367
 40
0.576325030781766
 40
0.5809664186446857
 40
0.5862725484447368
 40
0.5906391761575187
 40
0.5944554174663289
 40
0.5980526051886916
 40
0.6015939100848271
 40
0.6072504861581729
 40
0.6130523885975581
 40
0.6189315559692762
 40
0.624787213198011
 40
0.6296175960794804
 40
0.6343573626079345
 40
0.6390560522791932
 40
0.6440683008939734
 40
0.6488661626640199
 40
0.6547314985995559
 40
0.6605942199494279
 40
0.6653890676866736
 40
0.6694525943648494
 40
0.6759127112963962
 40
0.6825017070247925
 40
0.6892323871446436
 40
0.6939871570725605
 40
0.6986878242519725
 40
0.7033079004438304
 40
0.7078550337542743
 40
0.7124582193551253
 40
0.7176567320128229
 40
0.7230858055362657
 40
0.729167287401885
 40
0.7344563271408286
 40
0.7387691610401576
 40
0.7426399441261219
 40
0.7463759992106742
 40
0.7501042565222485
 40
0.7558056780484413
 40
0.7616411895085203
 40
0.7675251582264868
 40
0.7733533014124665
 40
0.7790429506286919
 40
0.7846713943449556
 40
0.7881016994585488
 40
0.7918759570739984
 40
0.7962761057650797
 40
0.8006428846524495
 40
0.8052882588150807
 40
0.8096849097937702
 40
0.81361977093491
 40
0.8182949333181361
 40
0.8224052014746094
 40
0.8263706641348787
 40
0.8303433195434086
 40
0.8360693318451444
 40
0.8419185941971107
 40
0.8477998038082397
 40
0.8536115069964961
 40
0.8592787423178506
 40
0.8649448471883178
 40
0.8685040008395878
 40
0.8725218766753856
 40
0.8772782545074826
 40
0.8818638282596245
 40
0.8863992528056435
 40
0.8915136842439726
 40
0.8957247197086805
 40
0.8995043442004879
 40
0.9031372752918287
 40
0.9067502353917799
 40
0.9103919349388053
 40
0.9161413202270411
 40
0.9220030157976469
 40
0.9278797615692461
 40
0.9336714458998823
 40
0.9393170397272933
 40
0.9450469520735594
 40
0.9487880224098441
 40
0.9531276131443444
 40
0.9581928116074181
 40
0.9628262267472316
 40
0.9671301239786135
 40
0.9709446203089308
 40
0.9743151295751972
 40
0.9791696909040442
 40
0.9837468875208389
 40
0.9883584260060643
 40
0.9941292525990463
 40
1.0
 40
1.0
 40
1.0
 40
1.0
 10
48.22757098844288
 20
-42.77578588746694
 30
0.0
 10
48.07501110081472
 20
-42.79498266010393
 30
0.0
 10
47.57162359831591
 20
-42.87492346170314
 30
0.0
 10
46.80178542579555
 20
-43.07681454134158
 30
0.0
 10
45.31474729596793
 20
-43.74085459451214
 30
0.0
 10
44.3041530707487
 20
-44.23036855848932
 30
0.0
 10
43.27143381159253
 20
-44.62315913158645
 30
0.0
 10
42.22535021662855
 20
-44.90470469120697
 30
0.0
 10
41.07745686830376
 20
-45.06134681226741
 30
0.0
 10
39.92172540612594
 20
-45.10580292439013
 30
0.0
 10
37.88189948078206
 20
-44.83657946683615
 30
0.0
 10
36.0263994500548
 20
-44.09069586512355
 30
0.0
 10
34.41186260434577
 20
-43.06682464111483
 30
0.0
 10
33.08091935132859
 20
-41.69232525085248
 30
0.0
 10
32.52576920937715
 20
-40.96787746547147
 30
0.0
 10
31.83226011360059
 20
-40.04138904734663
 30
0.0
 10
31.39105594195503
 20
-39.49885675904768
 30
0.0
 10
30.73809000325739
 20
-38.79965898666231
 30
0.0
 10
29.81793457340854
 20
-38.09491378098971
 30
0.0
 10
28.71327622657964
 20
-37.51608929359084
 30
0.0
 10
27.09405114488181
 20
-37.1457325082616
 30
0.0
 10
25.98652752189702
 20
-37.09605344408676
 30
0.0
 10
25.12142755719524
 20
-37.06501594175544
 30
0.0
 10
24.32505196385163
 20
-37.00947319465901
 30
0.0
 10
23.58833896127721
 20
-36.93853717242138
 30
0.0
 10
21.70133843611427
 20
-36.51309788439896
 30
0.0
 10
19.98979386918545
 20
-35.64589007616239
 30
0.0
 10
18.37923818258405
 20
-34.41295565987089
 30
0.0
 10
17.10976845990227
 20
-32.82080119562387
 30
0.0
 10
16.4602614483243
 20
-31.61532854022391
 30
0.0
 10
15.97319454507004
 20
-30.34668154261611
 30
0.0
 10
15.67783637267667
 20
-29.10048814001903
 30
0.0
 10
15.45138331462362
 20
-27.60879225891586
 30
0.0
 10
15.1975020565286
 20
-26.29335820527016
 30
0.0
 10
14.38106264363721
 20
-24.40457933144292
 30
0.0
 10
12.95509809822411
 20
-23.01861807380662
 30
0.0
 10
11.74395493913032
 20
-22.26941493320213
 30
0.0
 10
10.88929751623816
 20
-21.80623592541246
 30
0.0
 10
8.748387198399605
 20
-20.40577496663018
 30
0.0
 10
7.180410558083876
 20
-18.58940284072548
 30
0.0
 10
6.082045554233216
 20
-16.07037245867784
 30
0.0
 10
5.84274896607636
 20
-14.77124685850099
 30
0.0
 10
5.724130596447018
 20
-13.43166713948368
 30
0.0
 10
5.805783348839181
 20
-12.18831685737075
 30
0.0
 10
6.036964459691825
 20
-10.97493654886053
 30
0.0
 10
6.401776641445665
 20
-9.784855514569667
 30
0.0
 10
6.929126891938774
 20
-8.261662599060319
 30
0.0
 10
7.26436243620878
 20
-6.58156767705487
 30
0.0
 10
6.959324236102973
 20
-4.405363653675868
 30
0.0
 10
6.205646969287097
 20
-2.948609511606012
 30
0.0
 10
5.609277206292326
 20
-2.007206085495143
 30
0.0
 10
5.13630920763123
 20
-1.259369247232801
 30
0.0
 10
4.724105099317796
 20
-0.5070925835713396
 30
0.0
 10
4.360685572802107
 20
0.2264701505450426
 30
0.0
 10
3.745760181005947
 20
2.088140342589775
 30
0.0
 10
3.605457692621529
 20
4.025070999610362
 30
0.0
 10
3.854050882496844
 20
6.065542654145697
 30
0.0
 10
4.556450195248446
 20
7.967303956165694
 30
0.0
 10
5.498880456669283
 20
9.535529747508583
 30
0.0
 10
6.823630991714076
 20
10.92675997424219
 30
0.0
 10
7.332615671209797
 20
11.4018244285089
 30
0.0
 10
7.961099168367604
 20
12.00923319514702
 30
0.0
 10
8.708499014829258
 20
12.86022587499817
 30
0.0
 10
9.302329360034507
 20
13.79918534546777
 30
0.0
 10
9.769721367708776
 20
14.97645319723801
 30
0.0
 10
9.951503142891568
 20
16.12045568086871
 30
0.0
 10
9.985611646847268
 20
17.01627312151438
 30
0.0
 10
9.894729942950327
 20
18.3169704431148
 30
0.0
 10
9.813088412483504
 20
19.2745862616208
 30
0.0
 10
9.804616608168518
 20
20.2473950609661
 30
0.0
 10
9.84916772553534
 20
21.17213578236055
 30
0.0
 10
10.23626867495084
 20
23.10524632288628
 30
0.0
 10
11.07608361414728
 20
24.87744704818098
 30
0.0
 10
12.29863565016038
 20
26.52413056457982
 30
0.0
 10
13.8404153830386
 20
27.82609288316581
 30
0.0
 10
15.42316364452626
 20
28.71914722864982
 30
0.0
 10
17.27789241044061
 20
29.30268908054893
 30
0.0
 10
17.99813145270987
 20
29.50272404864008
 30
0.0
 10
18.94255562675003
 20
29.79868795147392
 30
0.0
 10
20.13337824691187
 20
30.35200963113017
 30
0.0
 10
21.12422087461839
 20
31.11165847041993
 30
0.0
 10
21.94049528840285
 20
31.98988764903464
 30
0.0
 10
22.71058069236017
 20
33.33055414392125
 30
0.0
 10
23.10117382178348
 20
34.27960137184343
 30
0.0
 10
23.44229951969533
 20
35.07006262170153
 30
0.0
 10
23.7729268497524
 20
35.76560467730471
 30
0.0
 10
24.17321428610195
 20
36.46103565780324
 30
0.0
 10
24.59047514243611
 20
37.12073897785135
 30
0.0
 10
25.89151333411166
 20
38.6349059152801
 30
0.0
 10
27.49435251316033
 20
39.7518132511818
 30
0.0
 10
29.37035232153002
 20
40.5817667082806
 30
0.0
 10
31.34139578489017
 20
40.95063939846095
 30
0.0
 10
33.1478148472865
 20
40.94764395722471
 30
0.0
 10
35.09504837411582
 20
40.55858578410484
 30
0.0
 10
35.90097343836897
 20
40.39695778518765
 30
0.0
 10
37.03702961848597
 20
40.23076913375996
 30
0.0
 10
38.52673441670065
 20
40.3109739581296
 30
0.0
 10
39.72482741685706
 20
40.67752497081406
 30
0.0
 10
40.69515706490962
 20
41.16920812867431
 30
0.0
 10
41.4270825304219
 20
41.67899039088
 30
0.0
 10
41.95024625763718
 20
42.08388061905497
 30
0.0
 10
43.03296117481312
 20
42.98571732503832
 30
0.0
 10
44.02734052975114
 20
43.67344831764251
 30
0.0
 10
45.13765797367927
 20
44.28903743120453
 30
0.0
 10
47.00522831423359
 20
44.96235343436036
 30
0.0
 10
48.33430182511464
 20
45.03794117285424
 30
0.0
 10
49.00454236679276
 20
45.0760594307065
 30
0.0
  0
CIRCLE
  5
1000008D
102
{ACAD_XDICTIONARY
360
1000008E
102
}
330
1F
100
AcDbEntity
  8
MODELSKETCH_VISIBLE
100
AcDbCircle
 10
-61.59545763320729
 20
-39.2239405692935
 30
0.0
 40
1.5
  0
CIRCLE
  5
10000091
102
{ACAD_XDICTIONARY
360
10000092
102
}
330
1F
100
AcDbEntity
  8
MODELSKETCH_VISIBLE
100
AcDbCircle
 10
-41.59545763320729
 20
-39.2239405692935
 30
0.0
 40
1.5
  0
CIRCLE
  5
10000095
102
{ACAD_XDICTIONARY
360
10000096
102
}
330
1F
100
AcDbEntity
  8
MODELSKETCH_VISIBLE
100
AcDbCircle
 10
-51.5954576332073
 20
-0.5239405692934955
 30
0.0
 40
21.0
  0
CIRCLE
  5
10000099
102
{ACAD_XDICTIONARY
360
1000009A
102
}
330
1F
100
AcDbEntity
  8
MODELSKETCH_VISIBLE
100
AcDbCircle
 10
-51.59545763320728
 20
-32.5239405692935
 30
0.0
 40
7.800000000000001
  0
SPLINE
  5
1000009D
102
{ACAD_XDICTIONARY
360
1000009E
102
}
330
1F
100
AcDbEntity
  8
MODELSKETCH_VISIBLE
100
AcDbSpline
210
0.0
220
0.0
230
1.0
 70
     8
 71
     3
 72
   111
 73
   107
 74
     0
 42
0.0000000001
 43
0.00000001
 40
0.5
 40
0.5
 40
0.5
 40
0.5
 40
0.501727803735156
 40
0.5058943392627503
 40
0.5111193310082248
 40
0.5155580973548891
 40
0.5198372092266694
 40
0.5241452986855349
 40
0.5285228284253817
 40
0.532963583763051
 40
0.5388375254768215
 40
0.5447043155864488
 40
0.5504644988010609
 40
0.5560846091650028
 40
0.5600985782421286
 40
0.5644396413826807
 40
0.5679243604620317
 40
0.5718995962142367
 40
0.576325030781766
 40
0.5809664186446857
 40
0.5862725484447368
 40
0.5906391761575187
 40
0.5944554174663289
 40
0.5980526051886916
 40
0.6015939100848271
 40
0.6072504861581729
 40
0.6130523885975581
 40
0.6189315559692762
 40
0.624787213198011
 40
0.6296175960794804
 40
0.6343573626079345
 40
0.6390560522791932
 40
0.6440683008939734
 40
0.6488661626640199
 40
0.6547314985995559
 40
0.6605942199494279
 40
0.6653890676866736
 40
0.6694525943648494
 40
0.6759127112963962
 40
0.6825017070247925
 40
0.6892323871446436
 40
0.6939871570725605
 40
0.6986878242519725
 40
0.7033079004438304
 40
0.7078550337542743
 40
0.7124582193551253
 40
0.7176567320128229
 40
0.7230858055362657
 40
0.729167287401885
 40
0.7344563271408286
 40
0.7387691610401576
 40
0.7426399441261219
 40
0.7463759992106742
 40
0.7501042565222485
 40
0.7558056780484413
 40
0.7616411895085203
 40
0.7675251582264868
 40
0.7733533014124665
 40
0.7790429506286919
 40
0.7846713943449556
 40
0.7881016994585488
 40
0.7918759570739984
 40
0.7962761057650797
 40
0.8006428846524495
 40
0.8052882588150807
 40
0.8096849097937702
 40
0.81361977093491
 40
0.8182949333181361
 40
0.8224052014746094
 40
0.8263706641348787
 40
0.8303433195434086
 40
0.8360693318451444
 40
0.8419185941971107
 40
0.8477998038082397
 40
0.8536115069964961
 40
0.8592787423178506
 40
0.8649448471883178
 40
0.8685040008395878
 40
0.8725218766753856
 40
0.8772782545074826
 40
0.8818638282596245
 40
0.8863992528056435
 40
0.8915136842439726
 40
0.8957247197086805
 40
0.8995043442004879
 40
0.9031372752918287
 40
0.9067502353917799
 40
0.9103919349388053
 40
0.9161413202270411
 40
0.9220030157976469
 40
0.9278797615692461
 40
0.9336714458998823
 40
0.9393170397272933
 40
0.9450469520735594
 40
0.9487880224098441
 40
0.9531276131443444
 40
0.9581928116074181
 40
0.9628262267472316
 40
0.9671301239786135
 40
0.9709446203089308
 40
0.9743151295751972
 40
0.9791696909040442
 40
0.9837468875208389
 40
0.9883584260060643
 40
0.9941292525990463
 40
1.0
 40
1.0
 40
1.0
 40
1.0
 10
-52.37242901155717
 20
-42.77578588746694
 30
0.0
 10
-52.52498889918532
 20
-42.79498266010393
 30
0.0
 10
-53.02837640168414
 20
-42.87492346170314
 30
0.0
 10
-53.79821457420449
 20
-43.07681454134158
 30
0.0
 10
-55.28525270403211
 20
-43.74085459451214
 30
0.0
 10
-56.29584692925135
 20
-44.23036855848932
 30
0.0
 10
-57.32856618840753
 20
-44.62315913158645
 30
0.0
 10
-58.3746497833715
 20
-44.90470469120697
 30
0.0
 10
-59.52254313169628
 20
-45.06134681226741
 30
0.0
 10
-60.67827459387411
 20
-45.10580292439013
 30
0.0
 10
-62.71810051921797
 20
-44.83657946683615
 30
0.0
 10
-64.57360054994524
 20
-44.09069586512355
 30
0.0
 10
-66.1881373956543
 20
-43.06682464111483
 30
0.0
 10
-67.51908064867146
 20
-41.69232525085248
 30
0.0
 10
-68.07423079062292
 20
-40.96787746547147
 30
0.0
 10
-68.76773988639948
 20
-40.04138904734663
 30
0.0
 10
-69.20894405804503
 20
-39.49885675904768
 30
0.0
 10
-69.86190999674265
 20
-38.79965898666231
 30
0.0
 10
-70.78206542659152
 20
-38.09491378098971
 30
0.0
 10
-71.88672377342043
 20
-37.51608929359084
 30
0.0
 10
-73.50594885511825
 20
-37.1457325082616
 30
0.0
 10
-74.61347247810302
 20
-37.09605344408676
 30
0.0
 10
-75.47857244280482
 20
-37.06501594175544
 30
0.0
 10
-76.27494803614843
 20
-37.00947319465901
 30
0.0
 10
-77.01166103872283
 20
-36.93853717242138
 30
0.0
 10
-78.89866156388578
 20
-36.51309788439896
 30
0.0
 10
-80.6102061308146
 20
-35.64589007616239
 30
0.0
 10
-82.220761817416
 20
-34.41295565987089
 30
0.0
 10
-83.4902315400978
 20
-32.82080119562387
 30
0.0
 10
-84.13973855167575
 20
-31.61532854022391
 30
0.0
 10
-84.62680545493001
 20
-30.34668154261611
 30
0.0
 10
-84.92216362732339
 20
-29.10048814001903
 30
0.0
 10
-85.14861668537644
 20
-27.60879225891586
 30
0.0
 10
-85.40249794347146
 20
-26.29335820527016
 30
0.0
 10
-86.21893735636286
 20
-24.40457933144292
 30
0.0
 10
-87.64490190177592
 20
-23.01861807380662
 30
0.0
 10
-88.85604506086975
 20
-22.26941493320213
 30
0.0
 10
-89.71070248376189
 20
-21.80623592541246
 30
0.0
 10
-91.85161280160045
 20
-20.40577496663018
 30
0.0
 10
-93.4195894419162
 20
-18.58940284072548
 30
0.0
 10
-94.51795444576683
 20
-16.07037245867784
 30
0.0
 10
-94.75725103392368
 20
-14.77124685850099
 30
0.0
 10
-94.87586940355303
 20
-13.43166713948368
 30
0.0
 10
-94.7942166511609
 20
-12.18831685737075
 30
0.0
 10
-94.56303554030823
 20
-10.97493654886053
 30
0.0
 10
-94.19822335855437
 20
-9.784855514569667
 30
0.0
 10
-93.67087310806127
 20
-8.261662599060319
 30
0.0
 10
-93.33563756379127
 20
-6.58156767705487
 30
0.0
 10
-93.6406757638971
 20
-4.405363653675868
 30
0.0
 10
-94.39435303071298
 20
-2.948609511606012
 30
0.0
 10
-94.99072279370773
 20
-2.007206085495143
 30
0.0
 10
-95.46369079236882
 20
-1.259369247232801
 30
0.0
 10
-95.87589490068227
 20
-0.5070925835713396
 30
0.0
 10
-96.23931442719797
 20
0.2264701505450426
 30
0.0
 10
-96.8542398189941
 20
2.088140342589775
 30
0.0
 10
-96.99454230737852
 20
4.025070999610362
 30
0.0
 10
-96.74594911750323
 20
6.065542654145697
 30
0.0
 10
-96.0435498047516
 20
7.967303956165694
 30
0.0
 10
-95.10111954333078
 20
9.535529747508583
 30
0.0
 10
-93.77636900828598
 20
10.92675997424219
 30
0.0
 10
-93.26738432879026
 20
11.4018244285089
 30
0.0
 10
-92.63890083163245
 20
12.00923319514702
 30
0.0
 10
-91.8915009851708
 20
12.86022587499817
 30
0.0
 10
-91.29767063996555
 20
13.79918534546777
 30
0.0
 10
-90.83027863229128
 20
14.97645319723801
 30
0.0
 10
-90.64849685710848
 20
16.12045568086871
 30
0.0
 10
-90.61438835315278
 20
17.01627312151438
 30
0.0
 10
-90.70527005704973
 20
18.3169704431148
 30
0.0
 10
-90.78691158751656
 20
19.2745862616208
 30
0.0
 10
-90.79538339183155
 20
20.2473950609661
 30
0.0
 10
-90.75083227446473
 20
21.17213578236055
 30
0.0
 10
-90.36373132504922
 20
23.10524632288628
 30
0.0
 10
-89.52391638585277
 20
24.87744704818098
 30
0.0
 10
-88.30136434983967
 20
26.52413056457982
 30
0.0
 10
-86.75958461696146
 20
27.82609288316581
 30
0.0
 10
-85.1768363554738
 20
28.71914722864982
 30
0.0
 10
-83.32210758955944
 20
29.30268908054893
 30
0.0
 10
-82.60186854729018
 20
29.50272404864008
 30
0.0
 10
-81.65744437325004
 20
29.79868795147392
 30
0.0
 10
-80.46662175308819
 20
30.35200963113017
 30
0.0
 10
-79.47577912538168
 20
31.11165847041993
 30
0.0
 10
-78.65950471159722
 20
31.98988764903464
 30
0.0
 10
-77.8894193076399
 20
33.33055414392125
 30
0.0
 10
-77.49882617821658
 20
34.27960137184343
 30
0.0
 10
-77.15770048030474
 20
35.07006262170153
 30
0.0
 10
-76.82707315024767
 20
35.76560467730471
 30
0.0
 10
-76.4267857138981
 20
36.46103565780324
 30
0.0
 10
-76.00952485756396
 20
37.12073897785135
 30
0.0
 10
-74.70848666588839
 20
38.6349059152801
 30
0.0
 10
-73.10564748683973
 20
39.7518132511818
 30
0.0
 10
-71.22964767847003
 20
40.5817667082806
 30
0.0
 10
-69.25860421510987
 20
40.95063939846095
 30
0.0
 10
-67.45218515271357
 20
40.94764395722471
 30
0.0
 10
-65.50495162588425
 20
40.55858578410484
 30
0.0
 10
-64.6990265616311
 20
40.39695778518765
 30
0.0
 10
-63.56297038151407
 20
40.23076913375996
 30
0.0
 10
-62.0732655832994
 20
40.3109739581296
 30
0.0
 10
-60.87517258314299
 20
40.67752497081406
 30
0.0
 10
-59.90484293509044
 20
41.16920812867431
 30
0.0
 10
-59.17291746957815
 20
41.67899039088
 30
0.0
 10
-58.64975374236287
 20
42.08388061905497
 30
0.0
 10
-57.56703882518693
 20
42.98571732503832
 30
0.0
 10
-56.57265947024892
 20
43.67344831764251
 30
0.0
 10
-55.46234202632077
 20
44.28903743120453
 30
0.0
 10
-53.59477168576645
 20
44.96235343436036
 30
0.0
 10
-52.2656981748854
 20
45.03794117285424
 30
0.0
 10
-51.5954576332073
 20
45.0760594307065
 30
0.0
  0
SPLINE
  5
100000A1
102
{ACAD_XDICTIONARY
360
100000A2
102
}
330
1F
100
AcDbEntity
  8
MODELSKETCH_VISIBLE
100
AcDbSpline
210
0.0
220
0.0
230
1.0
 70
     8
 71
     3
 72
   110
 73
   106
 74
     0
 42
0.0000000001
 43
0.00000001
 40
0.0
 40
0.0
 40
0.0
 40
0.0
 40
0.0058707474009538
 40
0.0116415739939358
 40
0.0156101827275022
 40
0.0195380159807799
 40
0.0234936447242374
 40
0.0276902643109069
 40
0.0326472089050046
 40
0.038039685766068
 40
0.0436924664168786
 40
0.048558699936712
 40
0.0526207548015405
 40
0.0562803988270317
 40
0.0623048272225703
 40
0.0684547553245229
 40
0.07474157854125
 40
0.0810291739151711
 40
0.0871811280639234
 40
0.0932045252005416
 40
0.0968610449141556
 40
0.1009114740375478
 40
0.1057574596457563
 40
0.111406009166129
 40
0.1168215187061097
 40
0.121331750451281
 40
0.1252028234419482
 40
0.1308689283124154
 40
0.1365361636337697
 40
0.1423478668220262
 40
0.1482290764331554
 40
0.1540783387851215
 40
0.1585404122869315
 40
0.1629292604087599
 40
0.1672682828276816
 40
0.1717015067575063
 40
0.1767437595351848
 40
0.1806786206763245
 40
0.1850752716550137
 40
0.1897206458176452
 40
0.1940874247050149
 40
0.1992718895299619
 40
0.2035708810700769
 40
0.2075740302879902
 40
0.2115333161043563
 40
0.2155307036451581
 40
0.2195845572536621
 40
0.2254127004396419
 40
0.2312966691576084
 40
0.2371321806176873
 40
0.24283360214388
 40
0.2463857169011827
 40
0.2499396695254497
 40
0.2535779220646843
 40
0.2574986170427421
 40
0.2620811813401247
 40
0.2676118370371338
 40
0.2733304233592129
 40
0.2783564454685554
 40
0.2825285247599251
 40
0.286348286822845
 40
0.2900728747461508
 40
0.2938043851492934
 40
0.3003789269839267
 40
0.3071059950081204
 40
0.3137932216089544
 40
0.3197569152535036
 40
0.3257341603226173
 40
0.3294788514461003
 40
0.3338091002555939
 40
0.3389203998730127
 40
0.3443253701809563
 40
0.3491235473380179
 40
0.3542723714356994
 40
0.3587748907362964
 40
0.3631848560009476
 40
0.3676501590016736
 40
0.3721917060316696
 40
0.3780473632604045
 40
0.3839265306321227
 40
0.3897284330715076
 40
0.3953850091448535
 40
0.3989263140409889
 40
0.4025235017633513
 40
0.4063397430721623
 40
0.4107063707849435
 40
0.4160125005849955
 40
0.4206538884479146
 40
0.4250793230154437
 40
0.4297929236237443
 40
0.4337646518146932
 40
0.4373638966010055
 40
0.4408200131252821
 40
0.4464401234892239
 40
0.4522003067038359
 40
0.4580670968134635
 40
0.463941038527234
 40
0.4697223639666621
 40
0.4753578436202881
 40
0.4793365344305247
 40
0.4835278542721839
 40
0.4884379713488959
 40
0.4926045068764898
 40
0.4971661553058229
 40
0.5
 40
0.5
 40
0.5
 40
0.5
 10
-51.5954576332073
 20
45.0760594307065
 30
0.0
 10
-50.93186530414252
 20
45.041473087543
 30
0.0
 10
-49.61597506513125
 20
44.97288906482521
 30
0.0
 10
-47.73479621492253
 20
44.27973076693425
 30
0.0
 10
-46.92014949490631
 20
43.84149983777485
 30
0.0
 10
-46.1229021118013
 20
43.34154693426648
 30
0.0
 10
-45.38535080368352
 20
42.7834891014473
 30
0.0
 10
-44.58400420051336
 20
42.11622654098014
 30
0.0
 10
-43.43151947387899
 20
41.22381814162125
 30
0.0
 10
-41.91915985058691
 20
40.46667663076893
 30
0.0
 10
-40.04864165038707
 20
40.19582472107632
 30
0.0
 10
-38.68224197963696
 20
40.35864927914584
 30
0.0
 10
-37.66958373237684
 20
40.55834985318929
 30
0.0
 10
-36.89818566870239
 20
40.73195783971436
 30
0.0
 10
-34.71100342579525
 20
41.03224417855953
 30
0.0
 10
-32.58348901859858
 20
40.7556500093912
 30
0.0
 10
-30.36582921768471
 20
39.95284967319909
 30
0.0
 10
-28.44140831806907
 20
38.58867332807601
 30
0.0
 10
-27.00004267096599
 20
36.99755657832203
 30
0.0
 10
-26.00106205503758
 20
35.02967759202527
 30
0.0
 10
-25.70582739407868
 20
34.29745074441288
 30
0.0
 10
-25.29852566950556
 20
33.35571328869883
 30
0.0
 10
-24.66369800829808
 20
32.14487984199961
 30
0.0
 10
-23.40403808101989
 20
30.75491531284546
 30
0.0
 10
-21.91332555724721
 20
29.93447898346175
 30
0.0
 10
-20.72399227246038
 20
29.53971324811916
 30
0.0
 10
-19.8748362758123
 20
29.30584057259484
 30
0.0
 10
-18.02405099372938
 20
28.72103520179201
 30
0.0
 10
-16.4292188659964
 20
27.82891635123611
 30
0.0
 10
-14.88767463952099
 20
26.51043172863784
 30
0.0
 10
-13.67676083170332
 20
24.92984319800448
 30
0.0
 10
-12.85477069020194
 20
23.05857010141665
 30
0.0
 10
-12.57598641885244
 20
21.92262254096141
 30
0.0
 10
-12.40936674148863
 20
20.77522153497432
 30
0.0
 10
-12.38627480038161
 20
19.65126236286718
 30
0.0
 10
-12.46378621886562
 20
18.53282865313383
 30
0.0
 10
-12.58034955731651
 20
17.02023698932909
 30
0.0
 10
-12.54098451618078
 20
16.12556298367833
 30
0.0
 10
-12.36401368125833
 20
14.97791062119135
 30
0.0
 10
-11.88098996635618
 20
13.78729155686368
 30
0.0
 10
-11.31046574974489
 20
12.85144997088357
 30
0.0
 10
-10.22829995205661
 20
11.67405755816106
 30
0.0
 10
-9.447102196700412
 20
10.9570415275448
 30
0.0
 10
-8.77325632234506
 20
10.26315488916573
 30
0.0
 10
-8.183422221972728
 20
9.564095438495714
 30
0.0
 10
-7.637191774773594
 20
8.758506887790253
 30
0.0
 10
-7.153254787861655
 20
7.923400543060913
 30
0.0
 10
-6.422411694883119
 20
6.02405839842201
 30
0.0
 10
-6.203114523331172
 20
4.034531764956945
 30
0.0
 10
-6.332268732190754
 20
2.091557552037868
 30
0.0
 10
-6.953408529519526
 20
0.2289031519978333
 30
0.0
 10
-7.281897549205267
 20
-0.4384982670260986
 30
0.0
 10
-7.649189726830833
 20
-1.124634980633997
 30
0.0
 10
-8.057772332264852
 20
-1.784849618048565
 30
0.0
 10
-8.554059090742902
 20
-2.561118575413458
 30
0.0
 10
-9.18138184894786
 20
-3.632848716824205
 30
0.0
 10
-9.774809605429938
 20
-5.331076769722248
 30
0.0
 10
-9.762900050223712
 20
-7.241806449795535
 30
0.0
 10
-9.375392523097444
 20
-8.680852619236035
 30
0.0
 10
-9.0389938796155
 20
-9.664170827139875
 30
0.0
 10
-8.773419717748268
 20
-10.48011678002219
 30
0.0
 10
-8.56762699990849
 20
-11.31711718566092
 30
0.0
 10
-8.388878499882061
 20
-12.12156125902107
 30
0.0
 10
-8.295745374314663
 20
-14.76185680634288
 30
0.0
 10
-9.029613228502063
 20
-17.1929104888663
 30
0.0
 10
-10.49110039435047
 20
-19.48481385102592
 30
0.0
 10
-11.94877909884135
 20
-20.8589171074472
 30
0.0
 10
-13.81978384056225
 20
-21.98765844209898
 30
0.0
 10
-14.53337898385922
 20
-22.38989150145553
 30
0.0
 10
-15.51134763911277
 20
-23.02395210196708
 30
0.0
 10
-16.62503274504983
 20
-24.03651245327093
 30
0.0
 10
-17.51085399426785
 20
-25.5412128755677
 30
0.0
 10
-17.90365396616441
 20
-26.81179055137274
 30
0.0
 10
-18.15698932036686
 20
-28.37275502326928
 30
0.0
 10
-18.36073890027178
 20
-29.53294643692992
 30
0.0
 10
-18.66629405503097
 20
-30.64903217589278
 30
0.0
 10
-19.12747023450368
 20
-31.75647346782558
 30
0.0
 10
-19.70695881838277
 20
-32.82115301370018
 30
0.0
 10
-20.97487185692649
 20
-34.42111025930667
 30
0.0
 10
-22.57945912427283
 20
-35.64372951923846
 30
0.0
 10
-24.29258121583888
 20
-36.51366477484635
 30
0.0
 10
-26.17920678651201
 20
-36.93845252498708
 30
0.0
 10
-26.91596892331923
 20
-37.00948205918016
 30
0.0
 10
-27.71237736469653
 20
-37.06505213895245
 30
0.0
 10
-28.57728396691823
 20
-37.09587842648671
 30
0.0
 10
-29.68572141745287
 20
-37.14656730596737
 30
0.0
 10
-31.30089596140769
 20
-37.51244455708279
 30
0.0
 10
-32.41917753584541
 20
-38.10633599458271
 30
0.0
 10
-33.34340139709681
 20
-38.79786464790729
 30
0.0
 10
-34.22449662227812
 20
-39.77242299866964
 30
0.0
 10
-34.76442175425377
 20
-40.50206533263653
 30
0.0
 10
-35.25606074218165
 20
-41.14609158603976
 30
0.0
 10
-35.68633977958912
 20
-41.70213962802366
 30
0.0
 10
-37.01639327913651
 20
-43.07994299970584
 30
0.0
 10
-38.60413240060974
 20
-44.08715384771651
 30
0.0
 10
-40.51226825131219
 20
-44.83722261073672
 30
0.0
 10
-42.53810201671714
 20
-45.12910653619269
 30
0.0
 10
-44.4551490698021
 20
-45.02710174019101
 30
0.0
 10
-46.2831766107756
 20
-44.48682423658395
 30
0.0
 10
-47.15087735311884
 20
-44.10708713245002
 30
0.0
 10
-48.09033797304919
 20
-43.65337453594993
 30
0.0
 10
-49.39412622141603
 20
-43.08088923727271
 30
0.0
 10
-50.36470060646111
 20
-42.82093618897373
 30
0.0
 10
-51.43409200868514
 20
-42.6918722292347
 30
0.0
 10
-52.12220902458609
 20
-42.7443004408414
 30
0.0
 10
-52.37242901155717
 20
-42.77578588746694
 30
0.0
  0
CIRCLE
  5
100000A5
102
{ACAD_XDICTIONARY
360
100000A6
102
}
330
1F
100
AcDbEntity
  8
MODELSKETCH_VISIBLE
100
AcDbCircle
 10
-79.30827055430933
 20
-16.52394056929351
 30
0.0
 40
7.800000000000002
  0
CIRCLE
  5
100000A9
102
{ACAD_XDICTIONARY
360
100000AA
102
}
330
1F
100
AcDbEntity
  8
MODELSKETCH_VISIBLE
100
AcDbCircle
 10
49.00454236679276
 20
-0.5239405692934955
 30
0.0
 40
21.0
  0
CIRCLE
  5
100000AD
102
{ACAD_XDICTIONARY
360
100000AE
102
}
330
1F
100
AcDbEntity
  8
MODELSKETCH_VISIBLE
100
AcDbCircle
 10
59.00454236679276
 20
34.77605943070651
 30
0.0
 40
1.5
  0
ENDSEC
  0
SECTION
  2
OBJECTS
  0
DICTIONARY
  5
C
330
0
100
AcDbDictionary
  3
ACAD_GROUP
350
D
  3
ACAD_LAYOUT
350
1A
  3
ACAD_MATERIAL
350
43
  3
ACAD_MLEADERSTYLE
350
5B
  3
ACAD_MLINESTYLE
350
17
  3
ACAD_PLOTSETTINGS
350
19
  3
ACAD_SCALELIST
350
47
  3
ACAD_VISUALSTYLE
350
2A
  3
ACDBHEADERROUNDTRIPXREC
350
100000B3
  3
ACDBVARIABLEDICTIONARY
350
100000D4
  3
DWGPROPS
350
100000DF
  3
ONSHAPE_DATA
350
10000001
  0
DICTIONARY
  5
100000E0
330
8
100
AcDbDictionary
280
     1
  3
ACAD_XREC_ROUNDTRIP
360
100000E1
  0
DICTIONARY
  5
100000B1
330
1F
100
AcDbDictionary
280
     1
  3
ACAD_SORTENTS
360
100000B2
  0
DICTIONARY
  5
1000005A
330
10000059
100
AcDbDictionary
280
     1
  3
BTDETID
360
1000005B
  3
BTPARTID
360
1000005C
  0
DICTIONARY
  5
1000005E
330
1000005D
100
AcDbDictionary
280
     1
  3
BTDETID
360
1000005F
  3
BTPARTID
360
10000060
  0
DICTIONARY
  5
10000062
330
10000061
100
AcDbDictionary
280
     1
  3
BTDETID
360
10000063
  3
BTPARTID
360
10000064
  0
DICTIONARY
  5
10000066
330
10000065
100
AcDbDictionary
280
     1
  3
BTDETID
360
10000067
  3
BTPARTID
360
10000068
  0
DICTIONARY
  5
1000006A
330
10000069
100
AcDbDictionary
280
     1
  3
BTDETID
360
1000006B
  3
BTPARTID
360
1000006C
  0
DICTIONARY
  5
1000006E
330
1000006D
100
AcDbDictionary
280
     1
  3
BTDETID
360
1000006F
  3
BTPARTID
360
10000070
  0
DICTIONARY
  5
10000072
330
10000071
100
AcDbDictionary
280
     1
  3
BTDETID
360
10000073
  3
BTPARTID
360
10000074
  0
DICTIONARY
  5
10000076
330
10000075
100
AcDbDictionary
280
     1
  3
BTDETID
360
10000077
  3
BTPARTID
360
10000078
  0
DICTIONARY
  5
1000007A
330
10000079
100
AcDbDictionary
280
     1
  3
BTDETID
360
1000007B
  3
BTPARTID
360
1000007C
  0
DICTIONARY
  5
1000007E
330
1000007D
100
AcDbDictionary
280
     1
  3
BTDETID
360
1000007F
  3
BTPARTID
360
10000080
  0
DICTIONARY
  5
10000082
330
10000081
100
AcDbDictionary
280
     1
  3
BTDETID
360
10000083
  3
BTPARTID
360
10000084
  0
DICTIONARY
  5
10000086
330
10000085
100
AcDbDictionary
280
     1
  3
BTDETID
360
10000087
  3
BTPARTID
360
10000088
  0
DICTIONARY
  5
1000008A
330
10000089
100
AcDbDictionary
280
     1
  3
BTDETID
360
1000008B
  3
BTPARTID
360
1000008C
  0
DICTIONARY
  5
1000008E
330
1000008D
100
AcDbDictionary
280
     1
  3
BTDETID
360
1000008F
  3
BTPARTID
360
10000090
  0
DICTIONARY
  5
10000092
330
10000091
100
AcDbDictionary
280
     1
  3
BTDETID
360
10000093
  3
BTPARTID
360
10000094
  0
DICTIONARY
  5
10000096
330
10000095
100
AcDbDictionary
280
     1
  3
BTDETID
360
10000097
  3
BTPARTID
360
10000098
  0
DICTIONARY
  5
1000009A
330
10000099
100
AcDbDictionary
280
     1
  3
BTDETID
360
1000009B
  3
BTPARTID
360
1000009C
  0
DICTIONARY
  5
1000009E
330
1000009D
100
AcDbDictionary
280
     1
  3
BTDETID
360
1000009F
  3
BTPARTID
360
100000A0
  0
DICTIONARY
  5
100000A2
330
100000A1
100
AcDbDictionary
280
     1
  3
BTDETID
360
100000A3
  3
BTPARTID
360
100000A4
  0
DICTIONARY
  5
100000A6
330
100000A5
100
AcDbDictionary
280
     1
  3
BTDETID
360
100000A7
  3
BTPARTID
360
100000A8
  0
DICTIONARY
  5
100000AA
330
100000A9
100
AcDbDictionary
280
     1
  3
BTDETID
360
100000AB
  3
BTPARTID
360
100000AC
  0
DICTIONARY
  5
100000AE
330
100000AD
100
AcDbDictionary
280
     1
  3
BTDETID
360
100000AF
  3
BTPARTID
360
100000B0
  0
DICTIONARY
  5
D
102
{ACAD_REACTORS
330
C
102
}
330
C
100
AcDbDictionary
  0
DICTIONARY
  5
1A
102
{ACAD_REACTORS
330
C
102
}
330
C
100
AcDbDictionary
  0
DICTIONARY
  5
43
102
{ACAD_REACTORS
330
C
102
}
330
C
100
AcDbDictionary
  3
BYBLOCK
350
45
  3
BYLAYER
350
44
  3
GLOBAL
350
46
  0
DICTIONARY
  5
5B
102
{ACAD_REACTORS
330
C
102
}
330
C
100
AcDbDictionary
  3
STANDARD
350
5C
  0
DICTIONARY
  5
17
102
{ACAD_REACTORS
330
C
102
}
330
C
100
AcDbDictionary
  3
STANDARD
350
18
  0
DICTIONARY
  5
19
102
{ACAD_REACTORS
330
C
102
}
330
C
100
AcDbDictionary
  0
DICTIONARY
  5
47
102
{ACAD_REACTORS
330
C
102
}
330
C
100
AcDbDictionary
  3
SCALE100_1
350
10000023
  3
SCALE10_1
350
1000001D
  3
SCALE12_1
350
1000001E
  3
SCALE16_1
350
1000001F
  3
SCALE1_1
350
10000006
  3
SCALE1_10
350
1000000D
  3
SCALE1_100
350
10000016
  3
SCALE1_12
350
1000000E
  3
SCALE1_16
350
1000000F
  3
SCALE1_2
350
10000007
  3
SCALE1_20
350
10000010
  3
SCALE1_25
350
10000011
  3
SCALE1_3
350
10000008
  3
SCALE1_32
350
10000012
  3
SCALE1_4
350
10000009
  3
SCALE1_40
350
10000013
  3
SCALE1_5
350
1000000A
  3
SCALE1_50
350
10000014
  3
SCALE1_6
350
1000000B
  3
SCALE1_8
350
1000000C
  3
SCALE1_80
350
10000015
  3
SCALE20_1
350
10000020
  3
SCALE2_1
350
10000017
  3
SCALE32_1
350
10000021
  3
SCALE3_1
350
10000018
  3
SCALE4_1
350
10000019
  3
SCALE50_1
350
10000022
  3
SCALE5_1
350
1000001A
  3
SCALE6_1
350
1000001B
  3
SCALE8_1
350
1000001C
  0
DICTIONARY
  5
2A
102
{ACAD_REACTORS
330
C
102
}
330
C
100
AcDbDictionary
  3
2DWIREFRAME
350
2F
  3
BASIC
350
32
  3
BRIGHTEN
350
36
  3
COLORCHANGE
350
3A
  3
CONCEPTUAL
350
34
  3
DIM
350
35
  3
EDGECOLOROFF
350
3D
  3
FACEPATTERN
350
39
  3
FLAT
350
2B
  3
FLATWITHEDGES
350
2C
  3
GOURAUD
350
2D
  3
GOURAUDWITHEDGES
350
2E
  3
HIDDEN
350
31
  3
JITTEROFF
350
3B
  3
LINEPATTERN
350
38
  3
OVERHANGOFF
350
3C
  3
REALISTIC
350
33
  3
SHADED
350
42
  3
SHADED_WITH_EDGES
350
41
  3
SHADES_OF_GRAY
350
3E
  3
SKETCHY
350
3F
  3
THICKEN
350
37
  3
WIREFRAME
350
30
  3
X-RAY
350
40
  0
DICTIONARY
  5
100000B3
102
{ACAD_REACTORS
330
C
102
}
330
C
100
AcDbDictionary
  3
CEPSNID
350
100000BD
  3
CEPSNTYPE
350
100000BC
  3
DIMSTYLEDATA
350
100000D3
  3
FINGERPRINTGUID
350
100000BE
  3
HYPERLINKBASE
350
100000B6
  3
INSUNITS
350
100000BB
  3
LAYOUTDICT
350
100000B8
  3
LWETCUNION
350
100000BA
  3
PLOTSETDICT
350
100000B9
  3
PSVPSCALE
350
100000C0
  3
PUCSBASE
350
100000C3
  3
PUCSORGBACK
350
100000C9
  3
PUCSORGBOTTOM
350
100000C5
  3
PUCSORGFRONT
350
100000C8
  3
PUCSORGLEFT
350
100000C6
  3
PUCSORGRIGHT
350
100000C7
  3
PUCSORGTOP
350
100000C4
  3
PUCSORTHOREF
350
100000C1
  3
PUCSORTHOVIEW
350
100000C2
  3
STYLESHEET
350
100000B7
  3
TSTACKALIGN
350
100000B4
  3
TSTACKSIZE
350
100000B5
  3
UCSBASE
350
100000CC
  3
UCSORGBACK
350
100000D2
  3
UCSORGBOTTOM
350
100000CE
  3
UCSORGFRONT
350
100000D1
  3
UCSORGLEFT
350
100000CF
  3
UCSORGRIGHT
350
100000D0
  3
UCSORGTOP
350
100000CD
  3
UCSORTHOREF
350
100000CA
  3
UCSORTHOVIEW
350
100000CB
  3
VERSIONGUID
350
100000BF
  0
DICTIONARY
  5
100000D4
102
{ACAD_REACTORS
330
C
102
}
330
C
100
AcDbDictionary
  3
CANNOSCALE
350
100000E2
  3
CENTEREXE
350
100000DB
  3
CENTERLTYPEFILE
350
100000DC
  3
CMLEADERSTYLE
350
100000D6
  3
CTABLESTYLE
350
100000D5
  3
DIMASSOC
350
100000DD
  3
HIDETEXT
350
100000DE
  3
MSLTSCALE
350
100000E3
  3
PSOLHEIGHT
350
100000D8
  3
PSOLWIDTH
350
100000D7
  0
XRECORD
  5
100000DF
102
{ACAD_REACTORS
330
C
102
}
330
C
100
AcDbXrecord
  1
DWGPROPS COOKIE
  2

  3

  4

  6
File was created by BTDwgCreate
  7

  8
onshape
  9

300
=
301
=
302
=
303
=
304
=
305
=
306
=
307
=
308
=
309
=
 40
0.0
 41
2461321.482535197
 42
2461321.482535232
  1

 90
        0
  0
DICTIONARY
  5
10000001
102
{ACAD_REACTORS
330
C
102
}
330
C
100
AcDbDictionary
280
     1
  3
DIM_UNITS
360
10000003
  3
DWGGEN_VERSION
360
10000002
  3
FIRST_ANGLE
360
10000005
  0
XRECORD
  5
100000E1
102
{ACAD_REACTORS
330
100000E0
102
}
330
100000E0
100
AcDbXrecord
102
VTR_0.000_0.000_1.000_1.000_VISUALSTYLE
340
2F
102
VTR_0.000_0.000_1.000_1.000_GRIDDISPLAY
 70
     3
102
VTR_0.000_0.000_1.000_1.000_GRIDMAJOR
 70
     5
102
VTR_0.000_0.000_1.000_1.000_DEFAULTLIGHTING
280
     1
102
VTR_0.000_0.000_1.000_1.000_DEFAULTLIGHTINGTYPE
 70
     1
102
VTR_0.000_0.000_1.000_1.000_BRIGHTNESS
141
0.0
102
VTR_0.000_0.000_1.000_1.000_CONTRAST
142
0.0
  0
SORTENTSTABLE
  5
100000B2
102
{ACAD_REACTORS
330
100000B1
102
}
330
100000B1
100
AcDbSortentsTable
330
1F
  0
XRECORD
  5
1000005B
102
{ACAD_REACTORS
330
1000005A
102
}
330
1000005A
100
AcDbXrecord
1000
KHNB
  0
XRECORD
  5
1000005C
102
{ACAD_REACTORS
330
1000005A
102
}
330
1000005A
100
AcDbXrecord
1000
KHXB
  0
XRECORD
  5
1000005F
102
{ACAD_REACTORS
330
1000005E
102
}
330
1000005E
100
AcDbXrecord
1000
KHJB
  0
XRECORD
  5
10000060
102
{ACAD_REACTORS
330
1000005E
102
}
330
1000005E
100
AcDbXrecord
1000
KHTB
  0
XRECORD
  5
10000063
102
{ACAD_REACTORS
330
10000062
102
}
330
10000062
100
AcDbXrecord
1000
KHFB
  0
XRECORD
  5
10000064
102
{ACAD_REACTORS
330
10000062
102
}
330
10000062
100
AcDbXrecord
1000
KHPB
  0
XRECORD
  5
10000067
102
{ACAD_REACTORS
330
10000066
102
}
330
10000066
100
AcDbXrecord
1000
KHBB
  0
XRECORD
  5
10000068
102
{ACAD_REACTORS
330
10000066
102
}
330
10000066
100
AcDbXrecord
1000
KHLB
  0
XRECORD
  5
1000006B
102
{ACAD_REACTORS
330
1000006A
102
}
330
1000006A
100
AcDbXrecord
1000
JH9
  0
XRECORD
  5
1000006C
102
{ACAD_REACTORS
330
1000006A
102
}
330
1000006A
100
AcDbXrecord
1000
KHHB
  0
XRECORD
  5
1000006F
102
{ACAD_REACTORS
330
1000006E
102
}
330
1000006E
100
AcDbXrecord
1000
JH5
  0
XRECORD
  5
10000070
102
{ACAD_REACTORS
330
1000006E
102
}
330
1000006E
100
AcDbXrecord
1000
KHDB
  0
XRECORD
  5
10000073
102
{ACAD_REACTORS
330
10000072
102
}
330
10000072
100
AcDbXrecord
1000
JH1
  0
XRECORD
  5
10000074
102
{ACAD_REACTORS
330
10000072
102
}
330
10000072
100
AcDbXrecord
1000
JH/
  0
XRECORD
  5
10000077
102
{ACAD_REACTORS
330
10000076
102
}
330
10000076
100
AcDbXrecord
1000
JHd
  0
XRECORD
  5
10000078
102
{ACAD_REACTORS
330
10000076
102
}
330
10000076
100
AcDbXrecord
1000
JHv
  0
XRECORD
  5
1000007B
102
{ACAD_REACTORS
330
1000007A
102
}
330
1000007A
100
AcDbXrecord
1000
JHV
  0
XRECORD
  5
1000007C
102
{ACAD_REACTORS
330
1000007A
102
}
330
1000007A
100
AcDbXrecord
1000
JHn
  0
XRECORD
  5
1000007F
102
{ACAD_REACTORS
330
1000007E
102
}
330
1000007E
100
AcDbXrecord
1000
KHRB
  0
XRECORD
  5
10000080
102
{ACAD_REACTORS
330
1000007E
102
}
330
1000007E
100
AcDbXrecord
1000
JHL
  0
XRECORD
  5
10000083
102
{ACAD_REACTORS
330
10000082
102
}
330
10000082
100
AcDbXrecord
1000
JHR
  0
XRECORD
  5
10000084
102
{ACAD_REACTORS
330
10000082
102
}
330
10000082
100
AcDbXrecord
1000
JHj
  0
XRECORD
  5
10000087
102
{ACAD_REACTORS
330
10000086
102
}
330
10000086
100
AcDbXrecord
1000
JHN
  0
XRECORD
  5
10000088
102
{ACAD_REACTORS
330
10000086
102
}
330
10000086
100
AcDbXrecord
1000
JHf
  0
XRECORD
  5
1000008B
102
{ACAD_REACTORS
330
1000008A
102
}
330
1000008A
100
AcDbXrecord
1000
KHVB
  0
XRECORD
  5
1000008C
102
{ACAD_REACTORS
330
1000008A
102
}
330
1000008A
100
AcDbXrecord
1000
JHP
  0
XRECORD
  5
1000008F
102
{ACAD_REACTORS
330
1000008E
102
}
330
1000008E
100
AcDbXrecord
1000
JHJ
  0
XRECORD
  5
10000090
102
{ACAD_REACTORS
330
1000008E
102
}
330
1000008E
100
AcDbXrecord
1000
JHb
  0
XRECORD
  5
10000093
102
{ACAD_REACTORS
330
10000092
102
}
330
10000092
100
AcDbXrecord
1000
JHF
  0
XRECORD
  5
10000094
102
{ACAD_REACTORS
330
10000092
102
}
330
10000092
100
AcDbXrecord
1000
JHX
  0
XRECORD
  5
10000097
102
{ACAD_REACTORS
330
10000096
102
}
330
10000096
100
AcDbXrecord
1000
JHB
  0
XRECORD
  5
10000098
102
{ACAD_REACTORS
330
10000096
102
}
330
10000096
100
AcDbXrecord
1000
JHT
  0
XRECORD
  5
1000009B
102
{ACAD_REACTORS
330
1000009A
102
}
330
1000009A
100
AcDbXrecord
1000
JHZ
  0
XRECORD
  5
1000009C
102
{ACAD_REACTORS
330
1000009A
102
}
330
1000009A
100
AcDbXrecord
1000
JHr
  0
XRECORD
  5
1000009F
102
{ACAD_REACTORS
330
1000009E
102
}
330
1000009E
100
AcDbXrecord
1000
JHp
  0
XRECORD
  5
100000A0
102
{ACAD_REACTORS
330
1000009E
102
}
330
1000009E
100
AcDbXrecord
1000
JHH
  0
XRECORD
  5
100000A3
102
{ACAD_REACTORS
330
100000A2
102
}
330
100000A2
100
AcDbXrecord
1000
JHl
  0
XRECORD
  5
100000A4
102
{ACAD_REACTORS
330
100000A2
102
}
330
100000A2
100
AcDbXrecord
1000
JHD
  0
XRECORD
  5
100000A7
102
{ACAD_REACTORS
330
100000A6
102
}
330
100000A6
100
AcDbXrecord
1000
JHh
  0
XRECORD
  5
100000A8
102
{ACAD_REACTORS
330
100000A6
102
}
330
100000A6
100
AcDbXrecord
1000
JHz
  0
XRECORD
  5
100000AB
102
{ACAD_REACTORS
330
100000AA
102
}
330
100000AA
100
AcDbXrecord
1000
JHt
  0
XRECORD
  5
100000AC
102
{ACAD_REACTORS
330
100000AA
102
}
330
100000AA
100
AcDbXrecord
1000
JH3
  0
XRECORD
  5
100000AF
102
{ACAD_REACTORS
330
100000AE
102
}
330
100000AE
100
AcDbXrecord
1000
JHx
  0
XRECORD
  5
100000B0
102
{ACAD_REACTORS
330
100000AE
102
}
330
100000AE
100
AcDbXrecord
1000
JH7
  0
MATERIAL
  5
45
102
{ACAD_REACTORS
330
43
102
}
102
{ACAD_XDICTIONARY
360
100000E6
102
}
330
43
100
AcDbMaterial
  1
BYBLOCK
  0
MATERIAL
  5
44
102
{ACAD_REACTORS
330
43
102
}
102
{ACAD_XDICTIONARY
360
100000E4
102
}
330
43
100
AcDbMaterial
  1
BYLAYER
  0
MATERIAL
  5
46
102
{ACAD_REACTORS
330
43
102
}
102
{ACAD_XDICTIONARY
360
100000E8
102
}
330
43
100
AcDbMaterial
  1
GLOBAL
  0
ACAD_PROXY_OBJECT
  5
5C
102
{ACAD_REACTORS
330
5B
102
}
330
5B
100
AcDbProxyObject
 90
      499
 91
      505
 93
      610
310
40901902A4063FBFFFFFE0000000000000020400000000000020404214DD185B99185C990000000000000104090141901A00000000000004100000000000000041025764000000000000039000
340
14
340
0
340
11
340
0
 94
        0
1001
ACAD_MLEADERVER
1070
     2
  0
MLINESTYLE
  5
18
102
{ACAD_REACTORS
330
17
102
}
330
17
100
AcDbMlineStyle
  2
Standard
 70
     0
  3

 62
   256
 51
90.0
 52
90.0
 71
     2
 49
0.5
 62
   256
  6
BYLAYER
 49
-0.5
 62
   256
  6
BYLAYER
  0
ACAD_PROXY_OBJECT
  5
10000023
102
{ACAD_REACTORS
330
47
102
}
330
47
100
AcDbProxyObject
 90
      499
 91
      503
 93
      121
310
9053130303A310000000000001650100
  0
ACAD_PROXY_OBJECT
  5
1000001D
102
{ACAD_REACTORS
330
47
102
}
330
47
100
AcDbProxyObject
 90
      499
 91
      503
 93
      113
310
90431303A310000000000000910100
  0
ACAD_PROXY_OBJECT
  5
1000001E
102
{ACAD_REACTORS
330
47
102
}
330
47
100
AcDbProxyObject
 90
      499
 91
      503
 93
      113
310
90431323A310000000000000A10100
  0
ACAD_PROXY_OBJECT
  5
1000001F
102
{ACAD_REACTORS
330
47
102
}
330
47
100
AcDbProxyObject
 90
      499
 91
      503
 93
      113
310
90431363A310000000000000C10100
  0
ACAD_PROXY_OBJECT
  5
10000006
102
{ACAD_REACTORS
330
47
102
}
330
47
100
AcDbProxyObject
 90
      499
 91
      503
 93
       41
310
903313A31500
  0
ACAD_PROXY_OBJECT
  5
1000000D
102
{ACAD_REACTORS
330
47
102
}
330
47
100
AcDbProxyObject
 90
      499
 91
      503
 93
      113
310
904313A31304000000000000244000
  0
ACAD_PROXY_OBJECT
  5
10000016
102
{ACAD_REACTORS
330
47
102
}
330
47
100
AcDbProxyObject
 90
      499
 91
      503
 93
      121
310
905313A3130304000000000000594000
  0
ACAD_PROXY_OBJECT
  5
1000000E
102
{ACAD_REACTORS
330
47
102
}
330
47
100
AcDbProxyObject
 90
      499
 91
      503
 93
      113
310
904313A31324000000000000284000
  0
ACAD_PROXY_OBJECT
  5
1000000F
102
{ACAD_REACTORS
330
47
102
}
330
47
100
AcDbProxyObject
 90
      499
 91
      503
 93
      113
310
904313A31364000000000000304000
  0
ACAD_PROXY_OBJECT
  5
10000007
102
{ACAD_REACTORS
330
47
102
}
330
47
100
AcDbProxyObject
 90
      499
 91
      503
 93
      105
310
903313A324000000000000004000
  0
ACAD_PROXY_OBJECT
  5
10000010
102
{ACAD_REACTORS
330
47
102
}
330
47
100
AcDbProxyObject
 90
      499
 91
      503
 93
      113
310
904313A32304000000000000344000
  0
ACAD_PROXY_OBJECT
  5
10000011
102
{ACAD_REACTORS
330
47
102
}
330
47
100
AcDbProxyObject
 90
      499
 91
      503
 93
      113
310
904313A32354000000000000394000
  0
ACAD_PROXY_OBJECT
  5
10000008
102
{ACAD_REACTORS
330
47
102
}
330
47
100
AcDbProxyObject
 90
      499
 91
      503
 93
      105
310
903313A334000000000000084000
  0
ACAD_PROXY_OBJECT
  5
10000012
102
{ACAD_REACTORS
330
47
102
}
330
47
100
AcDbProxyObject
 90
      499
 91
      503
 93
      113
310
904313A33324000000000000404000
  0
ACAD_PROXY_OBJECT
  5
10000009
102
{ACAD_REACTORS
330
47
102
}
330
47
100
AcDbProxyObject
 90
      499
 91
      503
 93
      105
310
903313A344000000000000104000
  0
ACAD_PROXY_OBJECT
  5
10000013
102
{ACAD_REACTORS
330
47
102
}
330
47
100
AcDbProxyObject
 90
      499
 91
      503
 93
      113
310
904313A34304000000000000444000
  0
ACAD_PROXY_OBJECT
  5
1000000A
102
{ACAD_REACTORS
330
47
102
}
330
47
100
AcDbProxyObject
 90
      499
 91
      503
 93
      105
310
903313A354000000000000144000
  0
ACAD_PROXY_OBJECT
  5
10000014
102
{ACAD_REACTORS
330
47
102
}
330
47
100
AcDbProxyObject
 90
      499
 91
      503
 93
      113
310
904313A35304000000000000494000
  0
ACAD_PROXY_OBJECT
  5
1000000B
102
{ACAD_REACTORS
330
47
102
}
330
47
100
AcDbProxyObject
 90
      499
 91
      503
 93
      105
310
903313A364000000000000184000
  0
ACAD_PROXY_OBJECT
  5
1000000C
102
{ACAD_REACTORS
330
47
102
}
330
47
100
AcDbProxyObject
 90
      499
 91
      503
 93
      105
310
903313A384000000000000204000
  0
ACAD_PROXY_OBJECT
  5
10000015
102
{ACAD_REACTORS
330
47
102
}
330
47
100
AcDbProxyObject
 90
      499
 91
      503
 93
      113
310
904313A38304000000000000544000
  0
ACAD_PROXY_OBJECT
  5
10000020
102
{ACAD_REACTORS
330
47
102
}
330
47
100
AcDbProxyObject
 90
      499
 91
      503
 93
      113
310
90432303A310000000000000D10100
  0
ACAD_PROXY_OBJECT
  5
10000017
102
{ACAD_REACTORS
330
47
102
}
330
47
100
AcDbProxyObject
 90
      499
 91
      503
 93
      105
310
903323A310000000000000010100
  0
ACAD_PROXY_OBJECT
  5
10000021
102
{ACAD_REACTORS
330
47
102
}
330
47
100
AcDbProxyObject
 90
      499
 91
      503
 93
      113
310
90433323A310000000000001010100
  0
ACAD_PROXY_OBJECT
  5
10000018
102
{ACAD_REACTORS
330
47
102
}
330
47
100
AcDbProxyObject
 90
      499
 91
      503
 93
      105
310
903333A310000000000000210100
  0
ACAD_PROXY_OBJECT
  5
10000019
102
{ACAD_REACTORS
330
47
102
}
330
47
100
AcDbProxyObject
 90
      499
 91
      503
 93
      105
310
903343A310000000000000410100
  0
ACAD_PROXY_OBJECT
  5
10000022
102
{ACAD_REACTORS
330
47
102
}
330
47
100
AcDbProxyObject
 90
      499
 91
      503
 93
      113
310
90435303A310000000000001250100
  0
ACAD_PROXY_OBJECT
  5
1000001A
102
{ACAD_REACTORS
330
47
102
}
330
47
100
AcDbProxyObject
 90
      499
 91
      503
 93
      105
310
903353A310000000000000510100
  0
ACAD_PROXY_OBJECT
  5
1000001B
102
{ACAD_REACTORS
330
47
102
}
330
47
100
AcDbProxyObject
 90
      499
 91
      503
 93
      105
310
903363A310000000000000610100
  0
ACAD_PROXY_OBJECT
  5
1000001C
102
{ACAD_REACTORS
330
47
102
}
330
47
100
AcDbProxyObject
 90
      499
 91
      503
 93
      105
310
903383A310000000000000810100
  0
ACAD_PROXY_OBJECT
  5
2F
102
{ACAD_REACTORS
330
2A
102
}
330
2A
100
AcDbProxyObject
 90
      499
 91
      501
 93
      436
310
42CC9915DA5C99599C985B595049028333333333333E33F0000000000000F90107901411070040501600405405064090741402480A0340
1001
ACAD
1000
AcDbSavedByObjectVersion
1070
     0
  0
ACAD_PROXY_OBJECT
  5
32
102
{ACAD_REACTORS
330
2A
102
}
330
2A
100
AcDbProxyObject
 90
      499
 91
      501
 93
      388
310
4150985CDA58D07406404333333333333E33F0000000000000F90107A41107004050150841D405064090741402480A0350
1001
ACAD
1000
AcDbSavedByObjectVersion
1070
     0
  0
ACAD_PROXY_OBJECT
  5
36
102
{ACAD_REACTORS
330
2A
102
}
330
2A
100
AcDbProxyObject
 90
      499
 91
      501
 93
      428
310
42109C9A59DA1D195B90C409028333333333333E33F0000000000000F9010790141107004050150841D405064090741402480A029950
1001
ACAD
1000
AcDbSavedByObjectVersion
1070
     0
  0
ACAD_PROXY_OBJECT
  5
3A
102
{ACAD_REACTORS
330
2A
102
}
330
2A
100
AcDbProxyObject
 90
      499
 91
      501
 93
      452
310
42D0DBDB1BDC90DA185B99D95104090240C333333333333E33F0000000000000F90108901411070040501508421405064090741402480A0350
1001
ACAD
1000
AcDbSavedByObjectVersion
1070
     0
  0
ACAD_PROXY_OBJECT
  5
34
102
{ACAD_REACTORS
330
2A
102
}
330
2A
100
AcDbProxyObject
 90
      499
 91
      501
 93
      500
310
4290DBDB98D95C1D1D585B10940D028333333333333E33F0000000000000F90107902409070040501000000000018199010841D405064090740C02480A0340
1001
ACAD
1000
AcDbSavedByObjectVersion
1070
     0
  0
ACAD_PROXY_OBJECT
  5
35
102
{ACAD_REACTORS
330
2A
102
}
330
2A
100
AcDbProxyObject
 90
      499
 91
      501
 93
      412
310
40D11A5B50B409028333333333333E33F0000000000000F9010790141107004050150841D405064090741402480A02677FFFFFD0
1001
ACAD
1000
AcDbSavedByObjectVersion
1070
     0
  0
ACAD_PROXY_OBJECT
  5
3D
102
{ACAD_REACTORS
330
2A
102
}
330
2A
100
AcDbProxyObject
 90
      499
 91
      501
 93
      452
310
43115919D950DBDB1BDC93D999916409028333333333333E33F0000000000000F9010790141107004050150841D405064090741402480A0350
1001
ACAD
1000
AcDbSavedByObjectVersion
1070
     0
  0
ACAD_PROXY_OBJECT
  5
39
102
{ACAD_REACTORS
330
2A
102
}
330
2A
100
AcDbProxyObject
 90
      499
 91
      501
 93
      444
310
42D19858D95C185D1D195C9B90F409028333333333333E33F0000000000000F9010790141107004050150841D405064090741402480A0350
1001
ACAD
1000
AcDbSavedByObjectVersion
1070
     0
  0
ACAD_PROXY_OBJECT
  5
2B
102
{ACAD_REACTORS
330
2A
102
}
330
2A
100
AcDbProxyObject
 90
      499
 91
      501
 93
      380
310
41119B185D240901404333333333333E33F0000000000000F9010740A907004050150841D405064090741402480A1B50
1001
ACAD
1000
AcDbSavedByObjectVersion
1070
     0
  0
ACAD_PROXY_OBJECT
  5
2C
102
{ACAD_REACTORS
330
2A
102
}
330
2A
100
AcDbProxyObject
 90
      499
 91
      501
 93
      468
310
43519B185D15DA5D1A115919D95CD0140901404333333333333E33F0000000000000F90107409019070040501600405405064090741402480A1B50
1001
ACAD
1000
AcDbSavedByObjectVersion
1070
     0
  0
ACAD_PROXY_OBJECT
  5
2D
102
{ACAD_REACTORS
330
2A
102
}
330
2A
100
AcDbProxyObject
 90
      499
 91
      501
 93
      404
310
41D1DBDD5C985D5910240902404333333333333E33F0000000000000F9010740A9070040501641D405064090741402480A1B50
1001
ACAD
1000
AcDbSavedByObjectVersion
1070
     0
  0
ACAD_PROXY_OBJECT
  5
2E
102
{ACAD_REACTORS
330
2A
102
}
330
2A
100
AcDbProxyObject
 90
      499
 91
      501
 93
      492
310
4411DBDD5C985D5915DA5D1A115919D95CD0340902404333333333333E33F0000000000000F90107409019070040501600405405064090741402480A1B50
1001
ACAD
1000
AcDbSavedByObjectVersion
1070
     0
  0
ACAD_PROXY_OBJECT
  5
31
102
{ACAD_REACTORS
330
2A
102
}
330
2A
100
AcDbProxyObject
 90
      499
 91
      501
 93
      476
310
41921A5919195B90640502408333333333333E33F0000000000000F901079024090700405020000000000001110200405405064090740C02480A0340
1001
ACAD
1000
AcDbSavedByObjectVersion
1070
     0
  0
ACAD_PROXY_OBJECT
  5
3B
102
{ACAD_REACTORS
330
2A
102
}
330
2A
100
AcDbProxyObject
 90
      499
 91
      501
 93
      428
310
42529A5D1D195C93D999914409028333333333333E33F0000000000000F9010790141107004050150A41D405064090741402480A0350
1001
ACAD
1000
AcDbSavedByObjectVersion
1070
     0
  0
ACAD_PROXY_OBJECT
  5
38
102
{ACAD_REACTORS
330
2A
102
}
330
2A
100
AcDbProxyObject
 90
      499
 91
      501
 93
      444
310
42D31A5B995C185D1D195C9B90E409028333333333333E33F0000000000000F9010790141107004050750841D405064090741402483A0350
1001
ACAD
1000
AcDbSavedByObjectVersion
1070
     0
  0
ACAD_PROXY_OBJECT
  5
3C
102
{ACAD_REACTORS
330
2A
102
}
330
2A
100
AcDbProxyObject
 90
      499
 91
      501
 93
      444
310
42D3DD995C9A185B99D3D999915409028333333333333E33F0000000000000F9010790141107004050150941D405064090741402480A0350
1001
ACAD
1000
AcDbSavedByObjectVersion
1070
     0
  0
ACAD_PROXY_OBJECT
  5
33
102
{ACAD_REACTORS
330
2A
102
}
330
2A
100
AcDbProxyObject
 90
      499
 91
      501
 93
      428
310
425499585B1A5CDD1A58D08409038333333333333E33F0000000000000F9010740A907004050150800405405064090740C02480A1B40
1001
ACAD
1000
AcDbSavedByObjectVersion
1070
     0
  0
ACAD_PROXY_OBJECT
  5
42
102
{ACAD_REACTORS
330
2A
102
}
330
2A
100
AcDbProxyObject
 90
      499
 91
      501
 93
      420
310
4194DA1859195911B40902404333333333333E33F0000000000000F9010740A41107004050150800405405064090840C02480A0B40
1001
ACAD
1000
AcDbSavedByObjectVersion
1070
     0
  0
ACAD_PROXY_OBJECT
  5
41
102
{ACAD_REACTORS
330
2A
102
}
330
2A
100
AcDbProxyObject
 90
      499
 91
      501
 93
      516
310
4454DA18591959081DDA5D1A08195919D95CD1A40902404333333333333E33F0000000000000F901074090142907004050250800405405064090740C02480A0B40
1001
ACAD
1000
AcDbSavedByObjectVersion
1070
     0
  0
ACAD_PROXY_OBJECT
  5
3E
102
{ACAD_REACTORS
330
2A
102
}
330
2A
100
AcDbProxyObject
 90
      499
 91
      501
 93
      532
310
4394DA1859195CC81BD98811DC985E5174090240C333333333333E33F0000000000000F901079024090741D01000000000000111010841D405064090740C02480A0340
1001
ACAD
1000
AcDbSavedByObjectVersion
1070
     0
  0
ACAD_PROXY_OBJECT
  5
3F
102
{ACAD_REACTORS
330
2A
102
}
330
2A
100
AcDbProxyObject
 90
      499
 91
      501
 93
      476
310
41D4DAD95D18DA1E51840502408333333333333E33F0000000000000F901079024090741D01000000000000111010B41D405064090741802480A0340
1001
ACAD
1000
AcDbSavedByObjectVersion
1070
     0
  0
ACAD_PROXY_OBJECT
  5
37
102
{ACAD_REACTORS
330
2A
102
}
330
2A
100
AcDbProxyObject
 90
      499
 91
      501
 93
      412
310
41D51A1A58DAD95B90D409028333333333333E33F0000000000000F9010790141107004050150C41D405064090741402480A0350
1001
ACAD
1000
AcDbSavedByObjectVersion
1070
     0
  0
ACAD_PROXY_OBJECT
  5
30
102
{ACAD_REACTORS
330
2A
102
}
330
2A
100
AcDbProxyObject
 90
      499
 91
      501
 93
      420
310
4255DA5C99599C985B595059028333333333333E33F0000000000000F90107901411070040501600405405064090740C02480A0340
1001
ACAD
1000
AcDbSavedByObjectVersion
1070
     0
  0
ACAD_PROXY_OBJECT
  5
40
102
{ACAD_REACTORS
330
2A
102
}
330
2A
100
AcDbProxyObject
 90
      499
 91
      501
 93
      404
310
41560B54985E51940902404000000000000E03F0000000000000F9010740501907004050150841D405064090740C02480A1B40
1001
ACAD
1000
AcDbSavedByObjectVersion
1070
     0
  0
XRECORD
  5
100000BD
102
{ACAD_REACTORS
330
100000B3
102
}
330
100000B3
100
AcDbXrecord
340
0
  0
XRECORD
  5
100000BC
102
{ACAD_REACTORS
330
100000B3
102
}
330
100000B3
100
AcDbXrecord
 90
        0
  0
XRECORD
  5
100000D3
102
{ACAD_REACTORS
330
100000B3
102
}
330
100000B3
100
AcDbXrecord
1000
DSTYLE
1002
{
1070
   340
340
11
1002
}
  0
XRECORD
  5
100000BE
102
{ACAD_REACTORS
330
100000B3
102
}
330
100000B3
100
AcDbXrecord
  1
{3738b237-6374-3977-b734-386674383479}
  0
XRECORD
  5
100000B6
102
{ACAD_REACTORS
330
100000B3
102
}
330
100000B3
100
AcDbXrecord
  1

  0
XRECORD
  5
100000BB
102
{ACAD_REACTORS
330
100000B3
102
}
330
100000B3
100
AcDbXrecord
 90
        4
  0
XRECORD
  5
100000B8
102
{ACAD_REACTORS
330
100000B3
102
}
330
100000B3
100
AcDbXrecord
340
1A
  0
XRECORD
  5
100000BA
102
{ACAD_REACTORS
330
100000B3
102
}
330
100000B3
100
AcDbXrecord
 90
    10781
  0
XRECORD
  5
100000B9
102
{ACAD_REACTORS
330
100000B3
102
}
330
100000B3
100
AcDbXrecord
340
19
  0
XRECORD
  5
100000C0
102
{ACAD_REACTORS
330
100000B3
102
}
330
100000B3
100
AcDbXrecord
 40
0.0
  0
XRECORD
  5
100000C3
102
{ACAD_REACTORS
330
100000B3
102
}
330
100000B3
100
AcDbXrecord
340
0
  0
XRECORD
  5
100000C9
102
{ACAD_REACTORS
330
100000B3
102
}
330
100000B3
100
AcDbXrecord
 10
0.0
 20
0.0
 30
0.0
  0
XRECORD
  5
100000C5
102
{ACAD_REACTORS
330
100000B3
102
}
330
100000B3
100
AcDbXrecord
 10
0.0
 20
0.0
 30
0.0
  0
XRECORD
  5
100000C8
102
{ACAD_REACTORS
330
100000B3
102
}
330
100000B3
100
AcDbXrecord
 10
0.0
 20
0.0
 30
0.0
  0
XRECORD
  5
100000C6
102
{ACAD_REACTORS
330
100000B3
102
}
330
100000B3
100
AcDbXrecord
 10
0.0
 20
0.0
 30
0.0
  0
XRECORD
  5
100000C7
102
{ACAD_REACTORS
330
100000B3
102
}
330
100000B3
100
AcDbXrecord
 10
0.0
 20
0.0
 30
0.0
  0
XRECORD
  5
100000C4
102
{ACAD_REACTORS
330
100000B3
102
}
330
100000B3
100
AcDbXrecord
 10
0.0
 20
0.0
 30
0.0
  0
XRECORD
  5
100000C1
102
{ACAD_REACTORS
330
100000B3
102
}
330
100000B3
100
AcDbXrecord
340
0
  0
XRECORD
  5
100000C2
102
{ACAD_REACTORS
330
100000B3
102
}
330
100000B3
100
AcDbXrecord
 70
     0
  0
XRECORD
  5
100000B7
102
{ACAD_REACTORS
330
100000B3
102
}
330
100000B3
100
AcDbXrecord
  1

  0
XRECORD
  5
100000B4
102
{ACAD_REACTORS
330
100000B3
102
}
330
100000B3
100
AcDbXrecord
 90
        1
  0
XRECORD
  5
100000B5
102
{ACAD_REACTORS
330
100000B3
102
}
330
100000B3
100
AcDbXrecord
 90
       70
  0
XRECORD
  5
100000CC
102
{ACAD_REACTORS
330
100000B3
102
}
330
100000B3
100
AcDbXrecord
340
0
  0
XRECORD
  5
100000D2
102
{ACAD_REACTORS
330
100000B3
102
}
330
100000B3
100
AcDbXrecord
 10
0.0
 20
0.0
 30
0.0
  0
XRECORD
  5
100000CE
102
{ACAD_REACTORS
330
100000B3
102
}
330
100000B3
100
AcDbXrecord
 10
0.0
 20
0.0
 30
0.0
  0
XRECORD
  5
100000D1
102
{ACAD_REACTORS
330
100000B3
102
}
330
100000B3
100
AcDbXrecord
 10
0.0
 20
0.0
 30
0.0
  0
XRECORD
  5
100000CF
102
{ACAD_REACTORS
330
100000B3
102
}
330
100000B3
100
AcDbXrecord
 10
0.0
 20
0.0
 30
0.0
  0
XRECORD
  5
100000D0
102
{ACAD_REACTORS
330
100000B3
102
}
330
100000B3
100
AcDbXrecord
 10
0.0
 20
0.0
 30
0.0
  0
XRECORD
  5
100000CD
102
{ACAD_REACTORS
330
100000B3
102
}
330
100000B3
100
AcDbXrecord
 10
0.0
 20
0.0
 30
0.0
  0
XRECORD
  5
100000CA
102
{ACAD_REACTORS
330
100000B3
102
}
330
100000B3
100
AcDbXrecord
340
0
  0
XRECORD
  5
100000CB
102
{ACAD_REACTORS
330
100000B3
102
}
330
100000B3
100
AcDbXrecord
 70
     0
  0
XRECORD
  5
100000BF
102
{ACAD_REACTORS
330
100000B3
102
}
330
100000B3
100
AcDbXrecord
  1
{FAEB1C32-E019-11D5-929B-00C0DF256EC4}
  0
DICTIONARYVAR
  5
100000E2
102
{ACAD_REACTORS
330
100000D4
102
}
330
100000D4
100
DictionaryVariables
280
     0
  1
1:1
  0
DICTIONARYVAR
  5
100000DB
102
{ACAD_REACTORS
330
100000D4
102
}
330
100000D4
100
DictionaryVariables
280
     0
  1
3.500000
  0
DICTIONARYVAR
  5
100000DC
102
{ACAD_REACTORS
330
100000D4
102
}
330
100000D4
100
DictionaryVariables
280
     0
  1
acadiso.lin
  0
DICTIONARYVAR
  5
100000D6
102
{ACAD_REACTORS
330
100000D4
102
}
330
100000D4
100
DictionaryVariables
280
     0
  1
Standard
  0
DICTIONARYVAR
  5
100000D5
102
{ACAD_REACTORS
330
100000D4
102
}
330
100000D4
100
DictionaryVariables
280
     0
  1
Standard
  0
DICTIONARYVAR
  5
100000DD
102
{ACAD_REACTORS
330
100000D4
102
}
330
100000D4
100
DictionaryVariables
280
     0
  1
2
  0
DICTIONARYVAR
  5
100000DE
102
{ACAD_REACTORS
330
100000D4
102
}
330
100000D4
100
DictionaryVariables
280
     0
  1
1
  0
DICTIONARYVAR
  5
100000E3
102
{ACAD_REACTORS
330
100000D4
102
}
330
100000D4
100
DictionaryVariables
280
     0
  1
1
  0
DICTIONARYVAR
  5
100000D8
102
{ACAD_REACTORS
330
100000D4
102
}
330
100000D4
100
DictionaryVariables
280
     0
  1
80.000000
  0
DICTIONARYVAR
  5
100000D7
102
{ACAD_REACTORS
330
100000D4
102
}
330
100000D4
100
DictionaryVariables
280
     0
  1
5.000000
  0
XRECORD
  5
10000003
102
{ACAD_REACTORS
330
10000001
102
}
330
10000001
100
AcDbXrecord
 70
     4
  0
XRECORD
  5
10000002
102
{ACAD_REACTORS
330
10000001
102
}
330
10000001
100
AcDbXrecord
1040
89.0
  0
ACAD_PROXY_OBJECT
  5
10000005
102
{ACAD_REACTORS
330
10000001
102
}
330
10000001
100
AcDbProxyObject
 90
      499
 91
      509
 93
       34
310
40C8804040
  0
DICTIONARY
  5
100000E6
330
45
100
AcDbDictionary
280
     1
  3
ACAD_XREC_ROUNDTRIP
360
100000E7
  0
DICTIONARY
  5
100000E4
330
44
100
AcDbDictionary
280
     1
  3
ACAD_XREC_ROUNDTRIP
360
100000E5
  0
DICTIONARY
  5
100000E8
330
46
100
AcDbDictionary
280
     1
  3
ACAD_XREC_ROUNDTRIP
360
100000E9
  0
XRECORD
  5
100000E7
102
{ACAD_REACTORS
330
100000E6
102
}
330
100000E6
100
AcDbXrecord
102
MATERIAL
148
0.0
149
0.0
149
0.0
 93
        0
 94
      127
282
     0
 72
     1
 77
     1
171
     1
175
     1
179
     1
273
     0
  0
XRECORD
  5
100000E5
102
{ACAD_REACTORS
330
100000E4
102
}
330
100000E4
100
AcDbXrecord
102
MATERIAL
148
0.0
149
0.0
149
0.0
 93
        0
 94
      127
282
     0
 72
     1
 77
     1
171
     1
175
     1
179
     1
273
     0
  0
XRECORD
  5
100000E9
102
{ACAD_REACTORS
330
100000E8
102
}
330
100000E8
100
AcDbXrecord
102
MATERIAL
148
0.0
149
0.0
149
0.0
 93
        0
 94
      127
282
     0
 72
     1
 77
     1
171
     1
175
     1
179
     1
273
     0
  0
ENDSEC
  0
EOF
