  0
SECTION
  2
HEADER
  9
$ACADVER
  1
AC1014
  9
$ACADMAINTVER
 70
     9
  9
$DWGCODEPAGE
  3
ANSI_1252
  9
$INSBASE
 10
0.0
 20
0.0
 30
0.0
  9
$EXTMIN
 10
1.000000000000000E+20
 20
1.000000000000000E+20
 30
1.000000000000000E+20
  9
$EXTMAX
 10
-1.000000000000000E+20
 20
-1.000000000000000E+20
 30
-1.000000000000000E+20
  9
$LIMMIN
 10
0.0
 20
0.0
  9
$LIMMAX
 10
420.0
 20
297.0
  9
$ORTHOMODE
 70
     0
  9
$REGENMODE
 70
     1
  9
$FILLMODE
 70
     1
  9
$QTEXTMODE
 70
     0
  9
$MIRRTEXT
 70
     1
  9
$DRAGMODE
 70
     2
  9
$LTSCALE
 40
1.0
  9
$OSMODE
 70
    37
  9
$ATTMODE
 70
     1
  9
$TEXTSIZE
 40
2.5
  9
$TRACEWID
 40
1.0
  9
$TEXTSTYLE
  7
STANDARD
  9
$CLAYER
  8
0
  9
$CELTYPE
  6
BYLAYER
  9
$CECOLOR
 62
   256
  9
$CELTSCALE
 40
1.0
  9
$DELOBJ
 70
     1
  9
$DISPSILH
 70
     0
  9
$DIMSCALE
 40
1.0
  9
$DIMASZ
 40
2.5
  9
$DIMEXO
 40
0.625
  9
$DIMDLI
 40
3.75
  9
$DIMRND
 40
0.0
  9
$DIMDLE
 40
0.0
  9
$DIMEXE
 40
1.25
  9
$DIMTP
 40
0.0
  9
$DIMTM
 40
0.0
  9
$DIMTXT
 40
2.5
  9
$DIMCEN
 40
2.5
  9
$DIMTSZ
 40
0.0
  9
$DIMTOL
 70
     0
  9
$DIMLIM
 70
     0
  9
$DIMTIH
 70
     0
  9
$DIMTOH
 70
     0
  9
$DIMSE1
 70
     0
  9
$DIMSE2
 70
     0
  9
$DIMTAD
 70
     1
  9
$DIMZIN
 70
     8
  9
$DIMBLK
  1

  9
$DIMASO
 70
     1
  9
$DIMSHO
 70
     1
  9
$DIMPOST
  1

  9
$DIMAPOST
  1

  9
$DIMALT
 70
     0
  9
$DIMALTD
 70
     3
  9
$DIMALTF
 40
0.03937007874016
  9
$DIMLFAC
 40
1.0
  9
$DIMTOFL
 70
     1
  9
$DIMTVP
 40
0.0
  9
$DIMTIX
 70
     0
  9
$DIMSOXD
 70
     0
  9
$DIMSAH
 70
     0
  9
$DIMBLK1
  1

  9
$DIMBLK2
  1

  9
$DIMSTYLE
  2
ISO-25
  9
$DIMCLRD
 70
     0
  9
$DIMCLRE
 70
     0
  9
$DIMCLRT
 70
     0
  9
$DIMTFAC
 40
1.0
  9
$DIMGAP
 40
0.625
  9
$DIMJUST
 70
     0
  9
$DIMSD1
 70
     0
  9
$DIMSD2
 70
     0
  9
$DIMTOLJ
 70
     0
  9
$DIMTZIN
 70
     8
  9
$DIMALTZ
 70
     0
  9
$DIMALTTZ
 70
     0
  9
$DIMFIT
 70
     3
  9
$DIMUPT
 70
     0
  9
$DIMUNIT
 70
     2
  9
$DIMDEC
 70
     2
  9
$DIMTDEC
 70
     2
  9
$DIMALTU
 70
     2
  9
$DIMALTTD
 70
     3
  9
$DIMTXSTY
  7
STANDARD
  9
$DIMAUNIT
 70
     0
  9
$LUNITS
 70
     2
  9
$LUPREC
 70
     4
  9
$SKETCHINC
 40
1.0
  9
$FILLETRAD
 40
0.0
  9
$AUNITS
 70
     0
  9
$AUPREC
 70
     0
  9
$MENU
  1
.
  9
$ELEVATION
 40
0.0
  9
$PELEVATION
 40
0.0
  9
$THICKNESS
 40
0.0
  9
$LIMCHECK
 70
     0
  9
$CHAMFERA
 40
0.0
  9
$CHAMFERB
 40
0.0
  9
$CHAMFERC
 40
0.0
  9
$CHAMFERD
 40
0.0
  9
$SKPOLY
 70
     0
  9
$TDCREATE
 40
2461321.478291887
  9
$TDUPDATE
 40
2461321.478291922
  9
$TDINDWG
 40
0.0000000116
  9
$TDUSRTIMER
 40
0.0000000116
  9
$USRTIMER
 70
     1
  9
$ANGBASE
 50
0.0
  9
$ANGDIR
 70
     0
  9
$PDMODE
 70
     0
  9
$PDSIZE
 40
0.0
  9
$PLINEWID
 40
0.0
  9
$COORDS
 70
     1
  9
$SPLFRAME
 70
     0
  9
$SPLINETYPE
 70
     6
  9
$SPLINESEGS
 70
     8
  9
$ATTDIA
 70
     0
  9
$ATTREQ
 70
     1
  9
$HANDLING
 70
     1
  9
$HANDSEED
  5
100000CD
  9
$SURFTAB1
 70
     6
  9
$SURFTAB2
 70
     6
  9
$SURFTYPE
 70
     6
  9
$SURFU
 70
     6
  9
$SURFV
 70
     6
  9
$UCSNAME
  2

  9
$UCSORG
 10
0.0
 20
0.0
 30
0.0
  9
$UCSXDIR
 10
1.0
 20
0.0
 30
0.0
  9
$UCSYDIR
 10
0.0
 20
1.0
 30
0.0
  9
$PUCSNAME
  2

  9
$PUCSORG
 10
0.0
 20
0.0
 30
0.0
  9
$PUCSXDIR
 10
1.0
 20
0.0
 30
0.0
  9
$PUCSYDIR
 10
0.0
 20
1.0
 30
0.0
  9
$USERI1
 70
     0
  9
$USERI2
 70
     0
  9
$USERI3
 70
     0
  9
$USERI4
 70
     0
  9
$USERI5
 70
     0
  9
$USERR1
 40
0.0
  9
$USERR2
 40
0.0
  9
$USERR3
 40
0.0
  9
$USERR4
 40
0.0
  9
$USERR5
 40
0.0
  9
$WORLDVIEW
 70
     1
  9
$SHADEDGE
 70
     3
  9
$SHADEDIF
 70
    70
  9
$TILEMODE
 70
     1
  9
$MAXACTVP
 70
    64
  9
$PINSBASE
 10
0.0
 20
0.0
 30
0.0
  9
$PLIMCHECK
 70
     0
  9
$PEXTMIN
 10
1.000000000000000E+20
 20
1.000000000000000E+20
 30
1.000000000000000E+20
  9
$PEXTMAX
 10
-1.000000000000000E+20
 20
-1.000000000000000E+20
 30
-1.000000000000000E+20
  9
$PLIMMIN
 10
0.0
 20
0.0
  9
$PLIMMAX
 10
420.0
 20
297.0
  9
$UNITMODE
 70
     0
  9
$VISRETAIN
 70
     1
  9
$PLINEGEN
 70
     0
  9
$PSLTSCALE
 70
     1
  9
$TREEDEPTH
 70
  3020
  9
$PICKSTYLE
 70
     1
  9
$CMLSTYLE
  2
STANDARD
  9
$CMLJUST
 70
     0
  9
$CMLSCALE
 40
20.0
  9
$PROXYGRAPHICS
 70
     1
  9
$MEASUREMENT
 70
     1
  0
ENDSEC
  0
SECTION
  2
CLASSES
  0
CLASS
  1
ACDBDICTIONARYWDFLT
  2
AcDbDictionaryWithDefault
  3
ObjectDBX Classes
 90
        0
280
     0
281
     0
  0
CLASS
  1
VISUALSTYLE
  2
AcDbVisualStyle
  3
ObjectDBX Classes
 90
     4095
280
     0
281
     0
  0
CLASS
  1
MATERIAL
  2
AcDbMaterial
  3
ObjectDBX Classes
 90
     1153
280
     0
281
     0
  0
CLASS
  1
SCALE
  2
AcDbScale
  3
ObjectDBX Classes
 90
     1153
280
     0
281
     0
  0
CLASS
  1
TABLESTYLE
  2
AcDbTableStyle
  3
ObjectDBX Classes
 90
     4095
280
     0
281
     0
  0
CLASS
  1
MLEADERSTYLE
  2
AcDbMLeaderStyle
  3
ACDB_MLEADERSTYLE_CLASS
 90
     4095
280
     0
281
     0
  0
CLASS
  1
SUN
  2
AcDbSun
  3
SCENEOE
 90
     1153
280
     0
281
     0
  0
CLASS
  1
SORTENTSTABLE
  2
AcDbSortentsTable
  3
ObjectDBX Classes
 90
        0
280
     0
281
     0
  0
CLASS
  1
DICTIONARYVAR
  2
AcDbDictionaryVar
  3
ObjectDBX Classes
 90
        0
280
     0
281
     0
  0
CLASS
  1
XRECORD
  2
AcDbXrecord
  3
ObjectDBX Classes
 90
        0
280
     0
281
     0
  0
CLASS
  1
LWPOLYLINE
  2
AcDbPolyline
  3
ObjectDBX Classes
 90
        0
280
     0
281
     1
  0
CLASS
  1
HATCH
  2
AcDbHatch
  3
ObjectDBX Classes
 90
        0
280
     0
281
     1
  0
CLASS
  1
ACDBPLACEHOLDER
  2
AcDbPlaceHolder
  3
ObjectDBX Classes
 90
        0
280
     0
281
     0
  0
CLASS
  1
LAYOUT
  2
AcDbLayout
  3
ObjectDBX Classes
 90
        0
280
     0
281
     0
  0
ENDSEC
  0
SECTION
  2
TABLES
  0
TABLE
  2
VPORT
  5
8
102
{ACAD_XDICTIONARY
360
100000C2
102
}
330
0
100
AcDbSymbolTable
 70
     1
  0
VPORT
  5
29
330
8
100
AcDbSymbolTableRecord
100
AcDbViewportTableRecord
  2
*ACTIVE
 70
     0
 10
0.0
 20
0.0
 11
1.0
 21
1.0
 12
344.1869158878504
 22
148.5
 13
0.0
 23
0.0
 14
10.0
 24
10.0
 15
10.0
 25
10.0
 16
0.0
 26
0.0
 36
1.0
 17
0.0
 27
0.0
 37
0.0
 40
297.0
 41
1.972972972850329
 42
50.0
 43
0.0
 44
0.0
 50
0.0
 51
0.0
 71
     0
 72
   100
 73
     1
 74
     3
 75
     0
 76
     0
 77
     0
 78
     0
  0
ENDTAB
  0
TABLE
  2
LTYPE
  5
5
330
0
100
AcDbSymbolTable
 70
     7
  0
LTYPE
  5
14
330
5
100
AcDbSymbolTableRecord
100
AcDbLinetypeTableRecord
  2
BYBLOCK
 70
     0
  3

 72
    65
 73
     0
 40
0.0
  0
LTYPE
  5
15
330
5
100
AcDbSymbolTableRecord
100
AcDbLinetypeTableRecord
  2
BYLAYER
 70
     0
  3

 72
    65
 73
     0
 40
0.0
  0
LTYPE
  5
16
330
5
100
AcDbSymbolTableRecord
100
AcDbLinetypeTableRecord
  2
CONTINUOUS
 70
     0
  3
Solid line
 72
    65
 73
     0
 40
0.0
  0
LTYPE
  5
10000024
330
5
100
AcDbSymbolTableRecord
100
AcDbLinetypeTableRecord
  2
ONS_PHANTOM
 70
     0
  3
Onshape Phantom line ______ __ __ ______
 72
    65
 73
     6
 40
0.4999999999999999
 49
0.25
 74
     0
 49
-0.05
 74
     0
 49
0.05
 74
     0
 49
-0.05
 74
     0
 49
0.05
 74
     0
 49
-0.05
 74
     0
  0
LTYPE
  5
10000025
330
5
100
AcDbSymbolTableRecord
100
AcDbLinetypeTableRecord
  2
CENTER
 70
     0
  3
Center line ____ _ ____ _ ____ _
 72
    65
 73
     4
 40
0.7874015748031495
 49
0.4921259842519685
 74
     0
 49
-0.0984251968503937
 74
     0
 49
0.0984251968503937
 74
     0
 49
-0.0984251968503937
 74
     0
  0
LTYPE
  5
10000026
330
5
100
AcDbSymbolTableRecord
100
AcDbLinetypeTableRecord
  2
DASHED
 70
     0
  3
Dashed line __ __ __ __ __
 72
    65
 73
     2
 40
0.75
 49
0.5
 74
     0
 49
-0.25
 74
     0
  0
LTYPE
  5
10000027
330
5
100
AcDbSymbolTableRecord
100
AcDbLinetypeTableRecord
  2
ONS_DASHDOT
 70
     0
  3
Onshape Dashed with Dot _ . ____ . ____
 72
    65
 73
     4
 40
0.71
 49
0.5
 74
     0
 49
-0.1
 74
     0
 49
0.01
 74
     0
 49
-0.1
 74
     0
  0
LTYPE
  5
10000028
330
5
100
AcDbSymbolTableRecord
100
AcDbLinetypeTableRecord
  2
ONS_DOTTED
 70
     0
  3
Onshape Dotted line . . . . . . .
 72
    65
 73
     2
 40
0.11
 49
0.01
 74
     0
 49
-0.1
 74
     0
  0
LTYPE
  5
10000029
330
5
100
AcDbSymbolTableRecord
100
AcDbLinetypeTableRecord
  2
HIDDEN
 70
     0
  3
Hidden line ____ ____ ____ ____ 
 72
    65
 73
     2
 40
0.15
 49
0.1
 74
     0
 49
-0.05
 74
     0
  0
ENDTAB
  0
TABLE
  2
LAYER
  5
2
330
0
100
AcDbSymbolTable
 70
    48
  0
LAYER
  5
10
330
2
100
AcDbSymbolTableRecord
100
AcDbLayerTableRecord
  2
0
 70
     0
 62
     7
  6
CONTINUOUS
  0
LAYER
  5
1000002A
330
2
100
AcDbSymbolTableRecord
100
AcDbLayerTableRecord
  2
SECTION_CUTTING_LINE
 70
     0
 62
     7
  6
ONS_DASHDOT
  0
LAYER
  5
1000002B
330
2
100
AcDbSymbolTableRecord
100
AcDbLayerTableRecord
  2
DETAIL_VIEW_BORDER
 70
     0
 62
     7
  6
CONTINUOUS
  0
LAYER
  5
1000002C
330
2
100
AcDbSymbolTableRecord
100
AcDbLayerTableRecord
  2
DETAIL_VIEW_PARENT_BORDER
 70
     0
 62
     7
  6
ONS_PHANTOM
  0
LAYER
  5
1000002D
330
2
100
AcDbSymbolTableRecord
100
AcDbLayerTableRecord
  2
TEXT
 70
     0
 62
     7
  6
CONTINUOUS
  0
LAYER
  5
1000002E
330
2
100
AcDbSymbolTableRecord
100
AcDbLayerTableRecord
  2
SKETCHED_GEOMETRY
 70
     0
 62
    -7
  6
CONTINUOUS
  0
LAYER
  5
1000002F
330
2
100
AcDbSymbolTableRecord
100
AcDbLayerTableRecord
  2
VIRTUAL_SHARPS
 70
     0
 62
    -7
  6
CONTINUOUS
  0
LAYER
  5
10000030
330
2
100
AcDbSymbolTableRecord
100
AcDbLayerTableRecord
  2
CENTERLINES
 70
     0
 62
    -7
  6
CENTER
  0
LAYER
  5
10000031
330
2
100
AcDbSymbolTableRecord
100
AcDbLayerTableRecord
  2
CENTERMARKS
 70
     0
 62
    -7
  6
CONTINUOUS
  0
LAYER
  5
10000032
330
2
100
AcDbSymbolTableRecord
100
AcDbLayerTableRecord
  2
TABLES
 70
     0
 62
     7
  6
CONTINUOUS
  0
LAYER
  5
10000033
330
2
100
AcDbSymbolTableRecord
100
AcDbLayerTableRecord
  2
IMAGES
 70
     0
 62
    -7
  6
CONTINUOUS
  0
LAYER
  5
10000034
330
2
100
AcDbSymbolTableRecord
100
AcDbLayerTableRecord
  2
ANNOTATION_LINES
 70
     0
 62
    -7
  6
CONTINUOUS
  0
LAYER
  5
10000035
330
2
100
AcDbSymbolTableRecord
100
AcDbLayerTableRecord
  2
ANNOTATION_TEXT
 70
     0
 62
    -7
  6
CONTINUOUS
  0
LAYER
  5
10000036
330
2
100
AcDbSymbolTableRecord
100
AcDbLayerTableRecord
  2
SIDE_THREAD_SYMBOLS
 70
     0
 62
     7
  6
CONTINUOUS
  0
LAYER
  5
10000037
330
2
100
AcDbSymbolTableRecord
100
AcDbLayerTableRecord
  2
SIDE_THREAD_SYMBOLS_HIDDEN
 70
     0
 62
    -7
  6
HIDDEN
  0
LAYER
  5
10000038
330
2
100
AcDbSymbolTableRecord
100
AcDbLayerTableRecord
  2
SURFACE_THREAD_SYMBOLS
 70
     0
 62
     7
  6
CONTINUOUS
  0
LAYER
  5
10000039
330
2
100
AcDbSymbolTableRecord
100
AcDbLayerTableRecord
  2
SURFACE_THREAD_SYMBOLS_ON_
 70
     0
 62
     7
  6
CONTINUOUS
  0
LAYER
  5
1000003A
330
2
100
AcDbSymbolTableRecord
100
AcDbLayerTableRecord
  2
SURFACE_THREAD_SYMBOLS_HID
 70
     0
 62
    -7
  6
HIDDEN
  0
LAYER
  5
1000003B
330
2
100
AcDbSymbolTableRecord
100
AcDbLayerTableRecord
  2
BLIND_THREAD_SYMBOLS
 70
     0
 62
     7
  6
CONTINUOUS
  0
LAYER
  5
1000003C
330
2
100
AcDbSymbolTableRecord
100
AcDbLayerTableRecord
  2
BLIND_THREAD_SYMBOLS_HIDDE
 70
     0
 62
    -7
  6
HIDDEN
  0
LAYER
  5
1000003D
330
2
100
AcDbSymbolTableRecord
100
AcDbLayerTableRecord
  2
EXPLODE_LINES
 70
     0
 62
     7
  6
ONS_PHANTOM
  0
LAYER
  5
1000003E
330
2
100
AcDbSymbolTableRecord
100
AcDbLayerTableRecord
  2
HIDDEN_EXPLODE_LINES
 70
     0
 62
    -7
  6
ONS_PHANTOM
  0
LAYER
  5
1000003F
330
2
100
AcDbSymbolTableRecord
100
AcDbLayerTableRecord
  2
BREAK_LINES
 70
     0
 62
    -7
  6
CONTINUOUS
  0
LAYER
  5
10000040
330
2
100
AcDbSymbolTableRecord
100
AcDbLayerTableRecord
  2
SHEETMETAL_BEND_LINES_UP
 70
     0
 62
     7
  6
CENTER
  0
LAYER
  5
10000041
330
2
100
AcDbSymbolTableRecord
100
AcDbLayerTableRecord
  2
SHEETMETAL_BEND_LINES_DOWN
 70
     0
 62
     7
  6
CENTER
  0
LAYER
  5
10000042
330
2
100
AcDbSymbolTableRecord
100
AcDbLayerTableRecord
  2
SHEETMETAL_BEND_TANGENT_LI
 70
     0
 62
     7
  6
CONTINUOUS
  0
LAYER
  5
10000043
330
2
100
AcDbSymbolTableRecord
100
AcDbLayerTableRecord
  2
SHEETMETAL_CUT_LINES
 70
     0
 62
     7
  6
CONTINUOUS
  0
LAYER
  5
10000044
330
2
100
AcDbSymbolTableRecord
100
AcDbLayerTableRecord
  2
SHEETMETAL_CBORE_CSINK_UP
 70
     0
 62
     7
  6
CONTINUOUS
  0
LAYER
  5
10000045
330
2
100
AcDbSymbolTableRecord
100
AcDbLayerTableRecord
  2
SHEETMETAL_CBORE_CSINK_DOW
 70
     0
 62
     7
  6
CONTINUOUS
  0
LAYER
  5
10000046
330
2
100
AcDbSymbolTableRecord
100
AcDbLayerTableRecord
  2
SHEETMETAL_CBORE_CSINK_UP_
 70
     0
 62
    -7
  6
HIDDEN
  0
LAYER
  5
10000047
330
2
100
AcDbSymbolTableRecord
100
AcDbLayerTableRecord
  2
SHEETMETAL_CBORE_CSINK_DO0
 70
     0
 62
    -7
  6
HIDDEN
  0
LAYER
  5
10000048
330
2
100
AcDbSymbolTableRecord
100
AcDbLayerTableRecord
  2
SHEETMETAL_FORM_TEAR
 70
     0
 62
     7
  6
CONTINUOUS
  0
LAYER
  5
10000049
330
2
100
AcDbSymbolTableRecord
100
AcDbLayerTableRecord
  2
SHEETMETAL_FORM_UP
 70
     0
 62
     7
  6
CENTER
  0
LAYER
  5
1000004A
330
2
100
AcDbSymbolTableRecord
100
AcDbLayerTableRecord
  2
SHEETMETAL_FORM_DOWN
 70
     0
 62
     7
  6
CENTER
  0
LAYER
  5
1000004B
330
2
100
AcDbSymbolTableRecord
100
AcDbLayerTableRecord
  2
SHEETMETAL_FORM_CENTERMARK
 70
     0
 62
     7
  6
CENTER
  0
LAYER
  5
1000004C
330
2
100
AcDbSymbolTableRecord
100
AcDbLayerTableRecord
  2
REGION_ASSOC_POINTS
 70
     0
 62
    -7
  6
CONTINUOUS
  0
LAYER
  5
1000004D
330
2
100
AcDbSymbolTableRecord
100
AcDbLayerTableRecord
  2
PATTERN_CENTERLINES
 70
     1
 62
    -7
  6
CENTER
  0
LAYER
  5
1000004E
330
2
100
AcDbSymbolTableRecord
100
AcDbLayerTableRecord
  2
HIDDEN
 70
     0
 62
    -7
  6
HIDDEN
  0
LAYER
  5
1000004F
330
2
100
AcDbSymbolTableRecord
100
AcDbLayerTableRecord
  2
VISIBLE
 70
     0
 62
     7
  6
CONTINUOUS
  0
LAYER
  5
10000050
330
2
100
AcDbSymbolTableRecord
100
AcDbLayerTableRecord
  2
MODELSKETCH_VISIBLE
 70
     0
 62
     7
  6
CONTINUOUS
  0
LAYER
  5
10000051
330
2
100
AcDbSymbolTableRecord
100
AcDbLayerTableRecord
  2
MODELSKETCH_POINT
 70
     0
 62
     7
  6
CONTINUOUS
  0
LAYER
  5
10000052
330
2
100
AcDbSymbolTableRecord
100
AcDbLayerTableRecord
  2
MODELSKETCH_CONSTRUCTION
 70
     0
 62
    -7
  6
CENTER
  0
LAYER
  5
10000053
330
2
100
AcDbSymbolTableRecord
100
AcDbLayerTableRecord
  2
HIDDEN_BASE_VIEW
 70
     0
 62
     7
  6
CONTINUOUS
  0
LAYER
  5
10000054
330
2
100
AcDbSymbolTableRecord
100
AcDbLayerTableRecord
  2
TANGENT_LINES
 70
     0
 62
    -7
  6
CONTINUOUS
  0
LAYER
  5
10000055
330
2
100
AcDbSymbolTableRecord
100
AcDbLayerTableRecord
  2
TANGENT_HIDDEN
 70
     0
 62
    -7
  6
HIDDEN
  0
LAYER
  5
10000056
330
2
100
AcDbSymbolTableRecord
100
AcDbLayerTableRecord
  2
INVISIBLE_LINES
 70
     0
 62
    -7
  6
CONTINUOUS
  0
LAYER
  5
10000057
330
2
100
AcDbSymbolTableRecord
100
AcDbLayerTableRecord
  2
VIEW_HATCHES
 70
     0
 62
    -7
  6
CONTINUOUS
  0
LAYER
  5
10000058
330
2
100
AcDbSymbolTableRecord
100
AcDbLayerTableRecord
  2
SECTION_JOG_LINES
 70
     0
 62
    -7
  6
CONTINUOUS
  0
ENDTAB
  0
TABLE
  2
STYLE
  5
3
330
0
100
AcDbSymbolTable
 70
     2
  0
STYLE
  5
11
330
3
100
AcDbSymbolTableRecord
100
AcDbTextStyleTableRecord
  2
STANDARD
 70
     0
 40
0.0
 41
1.0
 50
0.0
 71
     0
 42
2.5
  3
txt
  4

  0
STYLE
  5
10000004
330
3
100
AcDbSymbolTableRecord
100
AcDbTextStyleTableRecord
  2
TTFSTYLE
 70
     0
 40
0.0
 41
1.0
 50
0.0
 71
     0
 42
2.5
  3

  4

1001
ACAD
1000
Verdana
1071
       34
  0
ENDTAB
  0
TABLE
  2
VIEW
  5
6
330
0
100
AcDbSymbolTable
 70
     0
  0
ENDTAB
  0
TABLE
  2
UCS
  5
7
330
0
100
AcDbSymbolTable
 70
     0
  0
ENDTAB
  0
TABLE
  2
APPID
  5
9
330
0
100
AcDbSymbolTable
 70
     2
  0
APPID
  5
12
330
9
100
AcDbSymbolTableRecord
100
AcDbRegAppTableRecord
  2
ACAD
 70
     0
  0
APPID
  5
100000CC
330
9
100
AcDbSymbolTableRecord
100
AcDbRegAppTableRecord
  2
ACAD_MLEADERVER
 70
     0
  0
ENDTAB
  0
TABLE
  2
DIMSTYLE
  5
A
330
0
100
AcDbSymbolTable
 70
     1
  0
DIMSTYLE
105
27
330
A
100
AcDbSymbolTableRecord
100
AcDbDimStyleTableRecord
  2
ISO-25
 70
     0
  3

  4

  5

  6

  7

 40
1.0
 41
2.5
 42
0.625
 43
3.75
 44
1.25
 45
0.0
 46
0.0
 47
0.0
 48
0.0
140
2.5
141
2.5
142
0.0
143
0.03937007874016
144
1.0
145
0.0
146
1.0
147
0.625
 71
     0
 72
     0
 73
     0
 74
     0
 75
     0
 76
     0
 77
     1
 78
     8
170
     0
171
     3
172
     1
173
     0
174
     0
175
     0
176
     0
177
     0
178
     0
270
     2
271
     2
272
     2
273
     2
274
     3
340
11
275
     0
280
     0
281
     0
282
     0
283
     0
284
     8
285
     0
286
     0
287
     3
288
     0
  0
ENDTAB
  0
TABLE
  2
BLOCK_RECORD
  5
1
330
0
100
AcDbSymbolTable
 70
     0
  0
BLOCK_RECORD
  5
1F
102
{ACAD_XDICTIONARY
360
10000093
102
}
330
1
100
AcDbSymbolTableRecord
100
AcDbBlockTableRecord
  2
*MODEL_SPACE
  0
BLOCK_RECORD
  5
1B
330
1
100
AcDbSymbolTableRecord
100
AcDbBlockTableRecord
  2
*PAPER_SPACE
  0
ENDTAB
  0
ENDSEC
  0
SECTION
  2
BLOCKS
  0
BLOCK
  5
20
330
1F
100
AcDbEntity
  8
0
100
AcDbBlockBegin
  2
*MODEL_SPACE
 70
     0
 10
0.0
 20
0.0
 30
0.0
  3
*MODEL_SPACE
  1

  0
ENDBLK
  5
21
330
1F
100
AcDbEntity
  8
0
100
AcDbBlockEnd
  0
BLOCK
  5
1C
330
1B
100
AcDbEntity
 67
     1
  8
0
100
AcDbBlockBegin
  2
*PAPER_SPACE
 70
     0
 10
0.0
 20
0.0
 30
0.0
  3
*PAPER_SPACE
  1

  0
ENDBLK
  5
1D
330
1B
100
AcDbEntity
 67
     1
  8
0
100
AcDbBlockEnd
  0
ENDSEC
  0
SECTION
  2
ENTITIES
  0
CIRCLE
  5
10000059
102
{ACAD_XDICTIONARY
360
1000005A
102
}
330
1F
100
AcDbEntity
  8
VISIBLE
100
AcDbCircle
 10
0.0
 20
1.700000000000001
 30
0.0
 40
21.0
  0
CIRCLE
  5
1000005F
102
{ACAD_XDICTIONARY
360
10000060
102
}
330
1F
100
AcDbEntity
  8
VISIBLE
100
AcDbCircle
 10
10.0
 20
37.00000000000001
 30
0.0
 40
1.5
  0
CIRCLE
  5
10000065
102
{ACAD_XDICTIONARY
360
10000066
102
}
330
1F
100
AcDbEntity
  8
VISIBLE
100
AcDbCircle
 10
-9.999999999999996
 20
37.0
 30
0.0
 40
1.5
  0
CIRCLE
  5
1000006B
102
{ACAD_XDICTIONARY
360
1000006C
102
}
330
1F
100
AcDbEntity
  8
VISIBLE
100
AcDbCircle
 10
0.0
 20
33.7
 30
0.0
 40
7.800000000000001
  0
CIRCLE
  5
10000071
102
{ACAD_XDICTIONARY
360
10000072
102
}
330
1F
100
AcDbEntity
  8
VISIBLE
100
AcDbCircle
 10
27.71281292110204
 20
17.7
 30
0.0
 40
7.800000000000002
  0
CIRCLE
  5
10000077
102
{ACAD_XDICTIONARY
360
10000078
102
}
330
1F
100
AcDbEntity
  8
VISIBLE
100
AcDbCircle
 10
27.71281292110204
 20
-14.29999999999999
 30
0.0
 40
7.799999999999999
  0
CIRCLE
  5
1000007D
102
{ACAD_XDICTIONARY
360
1000007E
102
}
330
1F
100
AcDbEntity
  8
VISIBLE
100
AcDbCircle
 10
0.0000000000000043
 20
-30.3
 30
0.0
 40
7.800000000000001
  0
CIRCLE
  5
10000083
102
{ACAD_XDICTIONARY
360
10000084
102
}
330
1F
100
AcDbEntity
  8
VISIBLE
100
AcDbCircle
 10
-27.71281292110204
 20
17.7
 30
0.0
 40
7.800000000000002
  0
CIRCLE
  5
10000089
102
{ACAD_XDICTIONARY
360
1000008A
102
}
330
1F
100
AcDbEntity
  8
VISIBLE
100
AcDbCircle
 10
-27.71281292110203
 20
-14.30000000000001
 30
0.0
 40
7.800000000000002
  0
SPLINE
  5
1000008F
102
{ACAD_XDICTIONARY
360
10000090
102
}
330
1F
100
AcDbEntity
  8
VISIBLE
100
AcDbSpline
210
0.0
220
0.0
230
1.0
 70
    11
 71
     3
 72
   213
 73
   209
 74
     0
 42
0.0000000001
 43
0.00000001
 40
0.0
 40
0.0
 40
0.0
 40
0.0
 40
0.0058707474009538
 40
0.0116415739939358
 40
0.0156101827275022
 40
0.0195380159807799
 40
0.0234936447242374
 40
0.0276902643109069
 40
0.0326472089050046
 40
0.038039685766068
 40
0.0436924664168786
 40
0.048558699936712
 40
0.0526207548015405
 40
0.0562803988270317
 40
0.0623048272225703
 40
0.0684547553245229
 40
0.07474157854125
 40
0.0810291739151711
 40
0.0871811280639234
 40
0.0932045252005416
 40
0.0968610449141556
 40
0.1009114740375478
 40
0.1057574596457563
 40
0.111406009166129
 40
0.1168215187061097
 40
0.121331750451281
 40
0.1252028234419482
 40
0.1308689283124154
 40
0.1365361636337697
 40
0.1423478668220262
 40
0.1482290764331554
 40
0.1540783387851215
 40
0.1585404122869315
 40
0.1629292604087599
 40
0.1672682828276816
 40
0.1717015067575063
 40
0.1767437595351848
 40
0.1806786206763245
 40
0.1850752716550137
 40
0.1897206458176452
 40
0.1940874247050149
 40
0.1992718895299619
 40
0.2035708810700769
 40
0.2075740302879902
 40
0.2115333161043563
 40
0.2155307036451581
 40
0.2195845572536621
 40
0.2254127004396419
 40
0.2312966691576084
 40
0.2371321806176873
 40
0.24283360214388
 40
0.2463857169011827
 40
0.2499396695254497
 40
0.2535779220646843
 40
0.2574986170427421
 40
0.2620811813401247
 40
0.2676118370371338
 40
0.2733304233592129
 40
0.2783564454685554
 40
0.2825285247599251
 40
0.286348286822845
 40
0.2900728747461508
 40
0.2938043851492934
 40
0.3003789269839267
 40
0.3071059950081204
 40
0.3137932216089544
 40
0.3197569152535036
 40
0.3257341603226173
 40
0.3294788514461003
 40
0.3338091002555939
 40
0.3389203998730127
 40
0.3443253701809563
 40
0.3491235473380179
 40
0.3542723714356994
 40
0.3587748907362964
 40
0.3631848560009476
 40
0.3676501590016736
 40
0.3721917060316696
 40
0.3780473632604045
 40
0.3839265306321227
 40
0.3897284330715076
 40
0.3953850091448535
 40
0.3989263140409889
 40
0.4025235017633513
 40
0.4063397430721623
 40
0.4107063707849435
 40
0.4160125005849955
 40
0.4206538884479146
 40
0.4250793230154437
 40
0.4297929236237443
 40
0.4337646518146932
 40
0.4373638966010055
 40
0.4408200131252821
 40
0.4464401234892239
 40
0.4522003067038359
 40
0.4580670968134635
 40
0.463941038527234
 40
0.4697223639666621
 40
0.4753578436202881
 40
0.4793365344305247
 40
0.4835278542721839
 40
0.4884379713488959
 40
0.4926045068764898
 40
0.4971661553058229
 40
0.501727803735156
 40
0.5058943392627503
 40
0.5111193310082248
 40
0.5155580973548891
 40
0.5198372092266694
 40
0.5241452986855349
 40
0.5285228284253817
 40
0.532963583763051
 40
0.5388375254768215
 40
0.5447043155864488
 40
0.5504644988010609
 40
0.5560846091650028
 40
0.5600985782421286
 40
0.5644396413826807
 40
0.5679243604620317
 40
0.5718995962142367
 40
0.576325030781766
 40
0.5809664186446857
 40
0.5862725484447368
 40
0.5906391761575187
 40
0.5944554174663289
 40
0.5980526051886916
 40
0.6015939100848271
 40
0.6072504861581729
 40
0.6130523885975581
 40
0.6189315559692762
 40
0.624787213198011
 40
0.6296175960794804
 40
0.6343573626079345
 40
0.6390560522791932
 40
0.6440683008939734
 40
0.6488661626640199
 40
0.6547314985995559
 40
0.6605942199494279
 40
0.6653890676866736
 40
0.6694525943648494
 40
0.6759127112963962
 40
0.6825017070247925
 40
0.6892323871446436
 40
0.6939871570725605
 40
0.6986878242519725
 40
0.7033079004438304
 40
0.7078550337542743
 40
0.7124582193551253
 40
0.7176567320128229
 40
0.7230858055362657
 40
0.729167287401885
 40
0.7344563271408286
 40
0.7387691610401576
 40
0.7426399441261219
 40
0.7463759992106742
 40
0.7501042565222485
 40
0.7558056780484413
 40
0.7616411895085203
 40
0.7675251582264868
 40
0.7733533014124665
 40
0.7790429506286919
 40
0.7846713943449556
 40
0.7881016994585488
 40
0.7918759570739984
 40
0.7962761057650797
 40
0.8006428846524495
 40
0.8052882588150807
 40
0.8096849097937702
 40
0.81361977093491
 40
0.8182949333181361
 40
0.8224052014746094
 40
0.8263706641348787
 40
0.8303433195434086
 40
0.8360693318451444
 40
0.8419185941971107
 40
0.8477998038082397
 40
0.8536115069964961
 40
0.8592787423178506
 40
0.8649448471883178
 40
0.8685040008395878
 40
0.8725218766753856
 40
0.8772782545074826
 40
0.8818638282596245
 40
0.8863992528056435
 40
0.8915136842439726
 40
0.8957247197086805
 40
0.8995043442004879
 40
0.9031372752918287
 40
0.9067502353917799
 40
0.9103919349388053
 40
0.9161413202270411
 40
0.9220030157976469
 40
0.9278797615692461
 40
0.9336714458998823
 40
0.9393170397272933
 40
0.9450469520735594
 40
0.9487880224098441
 40
0.9531276131443444
 40
0.9581928116074181
 40
0.9628262267472316
 40
0.9671301239786135
 40
0.9709446203089308
 40
0.9743151295751972
 40
0.9791696909040442
 40
0.9837468875208389
 40
0.9883584260060643
 40
0.9941292525990463
 40
1.0
 40
1.0
 40
1.0
 40
1.0
 10
-0.0000000000000001
 20
47.3
 30
0.0
 10
0.6635923290647828
 20
47.26541365683649
 30
0.0
 10
1.97948256807605
 20
47.19682963411871
 30
0.0
 10
3.86066141828477
 20
46.50367133622775
 30
0.0
 10
4.675308138300975
 20
46.06544040706835
 30
0.0
 10
5.472555521405992
 20
45.56548750355998
 30
0.0
 10
6.210106829523768
 20
45.0074296707408
 30
0.0
 10
7.011453432693936
 20
44.34016711027364
 30
0.0
 10
8.163938159328307
 20
43.44775871091475
 30
0.0
 10
9.67629778262038
 20
42.69061720006243
 30
0.0
 10
11.54681598282022
 20
42.41976529036982
 30
0.0
 10
12.91321565357034
 20
42.58258984843934
 30
0.0
 10
13.92587390083045
 20
42.78229042248279
 30
0.0
 10
14.6972719645049
 20
42.95589840900786
 30
0.0
 10
16.88445420741203
 20
43.25618474785303
 30
0.0
 10
19.01196861460871
 20
42.97959057868469
 30
0.0
 10
21.22962841552258
 20
42.17679024249259
 30
0.0
 10
23.15404931513823
 20
40.81261389736951
 30
0.0
 10
24.59541496224131
 20
39.22149714761552
 30
0.0
 10
25.59439557816971
 20
37.25361816131876
 30
0.0
 10
25.88963023912861
 20
36.52139131370638
 30
0.0
 10
26.29693196370173
 20
35.57965385799233
 30
0.0
 10
26.93175962490922
 20
34.36882041129311
 30
0.0
 10
28.1914195521874
 20
32.97885588213896
 30
0.0
 10
29.68213207596008
 20
32.15841955275524
 30
0.0
 10
30.87146536074692
 20
31.76365381741266
 30
0.0
 10
31.72062135739499
 20
31.52978114188834
 30
0.0
 10
33.5714066394779
 20
30.94497577108551
 30
0.0
 10
35.1662387672109
 20
30.0528569205296
 30
0.0
 10
36.7077829936863
 20
28.73437229793134
 30
0.0
 10
37.91869680150396
 20
27.15378376729798
 30
0.0
 10
38.74068694300535
 20
25.28251067071015
 30
0.0
 10
39.01947121435486
 20
24.14656311025491
 30
0.0
 10
39.18609089171866
 20
22.99916210426782
 30
0.0
 10
39.20918283282568
 20
21.87520293216068
 30
0.0
 10
39.13167141434167
 20
20.75676922242733
 30
0.0
 10
39.01510807589078
 20
19.24417755862259
 30
0.0
 10
39.05447311702652
 20
18.34950355297183
 30
0.0
 10
39.23144395194896
 20
17.20185119048485
 30
0.0
 10
39.71446766685111
 20
16.01123212615718
 30
0.0
 10
40.2849918834624
 20
15.07539054017707
 30
0.0
 10
41.36715768115068
 20
13.89799812745456
 30
0.0
 10
42.14835543650688
 20
13.1809820968383
 30
0.0
 10
42.82220131086223
 20
12.48709545845923
 30
0.0
 10
43.41203541123456
 20
11.78803600778921
 30
0.0
 10
43.9582658584337
 20
10.98244745708375
 30
0.0
 10
44.44220284534563
 20
10.14734111235441
 30
0.0
 10
45.17304593832417
 20
8.247998967715507
 30
0.0
 10
45.39234310987612
 20
6.258472334250442
 30
0.0
 10
45.26318890101654
 20
4.315498121331364
 30
0.0
 10
44.64204910368777
 20
2.45284372129133
 30
0.0
 10
44.31356008400203
 20
1.785442302267398
 30
0.0
 10
43.94626790637646
 20
1.0993055886595
 30
0.0
 10
43.53768530094244
 20
0.4390909512449316
 30
0.0
 10
43.04139854246439
 20
-0.3371780061199612
 30
0.0
 10
42.41407578425943
 20
-1.408908147530708
 30
0.0
 10
41.82064802777735
 20
-3.107136200428752
 30
0.0
 10
41.83255758298358
 20
-5.017865880502038
 30
0.0
 10
42.22006511010985
 20
-6.456912049942539
 30
0.0
 10
42.55646375359179
 20
-7.440230257846379
 30
0.0
 10
42.82203791545903
 20
-8.256176210728695
 30
0.0
 10
43.0278306332988
 20
-9.093176616367423
 30
0.0
 10
43.20657913332523
 20
-9.897620689727571
 30
0.0
 10
43.29971225889263
 20
-12.53791623704938
 30
0.0
 10
42.56584440470523
 20
-14.9689699195728
 30
0.0
 10
41.10435723885682
 20
-17.26087328173242
 30
0.0
 10
39.64667853436594
 20
-18.6349765381537
 30
0.0
 10
37.77567379264503
 20
-19.76371787280548
 30
0.0
 10
37.06207864934807
 20
-20.16595093216203
 30
0.0
 10
36.08410999409453
 20
-20.80001153267358
 30
0.0
 10
34.97042488815745
 20
-21.81257188397743
 30
0.0
 10
34.08460363893944
 20
-23.3172723062742
 30
0.0
 10
33.69180366704288
 20
-24.58784998207924
 30
0.0
 10
33.43846831284043
 20
-26.14881445397578
 30
0.0
 10
33.23471873293551
 20
-27.30900586763642
 30
0.0
 10
32.92916357817632
 20
-28.42509160659928
 30
0.0
 10
32.46798739870361
 20
-29.53253289853208
 30
0.0
 10
31.88849881482452
 20
-30.59721244440669
 30
0.0
 10
30.62058577628081
 20
-32.19716969001317
 30
0.0
 10
29.01599850893447
 20
-33.41978894994496
 30
0.0
 10
27.30287641736842
 20
-34.28972420555285
 30
0.0
 10
25.41625084669528
 20
-34.71451195569358
 30
0.0
 10
24.67948870988806
 20
-34.78554148988667
 30
0.0
 10
23.88308026851077
 20
-34.84111156965895
 30
0.0
 10
23.01817366628907
 20
-34.87193785719321
 30
0.0
 10
21.90973621575443
 20
-34.92262673667388
 30
0.0
 10
20.29456167179961
 20
-35.2885039877893
 30
0.0
 10
19.17628009736189
 20
-35.88239542528922
 30
0.0
 10
18.25205623611048
 20
-36.57392407861379
 30
0.0
 10
17.37096101092918
 20
-37.54848242937614
 30
0.0
 10
16.83103587895352
 20
-38.27812476334304
 30
0.0
 10
16.33939689102564
 20
-38.92215101674626
 30
0.0
 10
15.90911785361818
 20
-39.47819905873016
 30
0.0
 10
14.57906435407079
 20
-40.85600243041234
 30
0.0
 10
12.99132523259754
 20
-41.86321327842301
 30
0.0
 10
11.0831893818951
 20
-42.61328204144322
 30
0.0
 10
9.05735561649015
 20
-42.9051659668992
 30
0.0
 10
7.140308563405197
 20
-42.80316117089752
 30
0.0
 10
5.312281022431693
 20
-42.26288366729045
 30
0.0
 10
4.444580280088458
 20
-41.88314656315652
 30
0.0
 10
3.505119660158112
 20
-41.42943396665643
 30
0.0
 10
2.201331411791263
 20
-40.85694866797921
 30
0.0
 10
1.230757026746184
 20
-40.59699561968023
 30
0.0
 10
0.0015581621068132
 20
-40.44864463009201
 30
0.0
 10
-1.236719750841874
 20
-40.59952944036187
 30
0.0
 10
-2.202756940997204
 20
-40.85287397204808
 30
0.0
 10
-3.689795070824822
 20
-41.51691402521865
 30
0.0
 10
-4.700389296044055
 20
-42.00642798919583
 30
0.0
 10
-5.733108555200229
 20
-42.39921856229295
 30
0.0
 10
-6.779192150164204
 20
-42.68076412191346
 30
0.0
 10
-7.927085498488993
 20
-42.83740624297391
 30
0.0
 10
-9.082816960666813
 20
-42.88186235509664
 30
0.0
 10
-11.12264288601069
 20
-42.61263889754265
 30
0.0
 10
-12.97814291673795
 20
-41.86675529583005
 30
0.0
 10
-14.59267976244699
 20
-40.84288407182133
 30
0.0
 10
-15.92362301546416
 20
-39.46838468155898
 30
0.0
 10
-16.47877315741561
 20
-38.74393689617798
 30
0.0
 10
-17.17228225319217
 20
-37.81744847805314
 30
0.0
 10
-17.61348642483773
 20
-37.27491618975419
 30
0.0
 10
-18.26645236353537
 20
-36.57571841736881
 30
0.0
 10
-19.18660779338422
 20
-35.87097321169621
 30
0.0
 10
-20.29126614021312
 20
-35.29214872429734
 30
0.0
 10
-21.91049122191095
 20
-34.9217919389681
 30
0.0
 10
-23.01801484489573
 20
-34.87211287479327
 30
0.0
 10
-23.88311480959752
 20
-34.84107537246194
 30
0.0
 10
-24.67949040294113
 20
-34.78553262536551
 30
0.0
 10
-25.41620340551555
 20
-34.71459660312789
 30
0.0
 10
-27.30320393067849
 20
-34.28915731510546
 30
0.0
 10
-29.0147484976073
 20
-33.42194950686889
 30
0.0
 10
-30.62530418420871
 20
-32.18901509057739
 30
0.0
 10
-31.89477390689049
 20
-30.59686062633038
 30
0.0
 10
-32.54428091846846
 20
-29.39138797093041
 30
0.0
 10
-33.03134782172272
 20
-28.12274097332261
 30
0.0
 10
-33.32670599411609
 20
-26.87654757072553
 30
0.0
 10
-33.55315905216913
 20
-25.38485168962236
 30
0.0
 10
-33.80704031026416
 20
-24.06941763597666
 30
0.0
 10
-34.62347972315555
 20
-22.18063876214942
 30
0.0
 10
-36.04944426856864
 20
-20.79467750451312
 30
0.0
 10
-37.26058742766244
 20
-20.04547436390863
 30
0.0
 10
-38.1152448505546
 20
-19.58229535611896
 30
0.0
 10
-40.25615516839315
 20
-18.18183439733668
 30
0.0
 10
-41.82413180870888
 20
-16.36546227143198
 30
0.0
 10
-42.92249681255954
 20
-13.84643188938434
 30
0.0
 10
-43.1617934007164
 20
-12.54730628920749
 30
0.0
 10
-43.28041177034574
 20
-11.20772657019018
 30
0.0
 10
-43.19875901795358
 20
-9.964376288077249
 30
0.0
 10
-42.96757790710093
 20
-8.750995979567033
 30
0.0
 10
-42.60276572534709
 20
-7.560914945276171
 30
0.0
 10
-42.07541547485398
 20
-6.037722029766821
 30
0.0
 10
-41.74017993058398
 20
-4.357627107761373
 30
0.0
 10
-42.04521813068978
 20
-2.181423084382371
 30
0.0
 10
-42.79889539750566
 20
-0.7246689423125157
 30
0.0
 10
-43.39526516050043
 20
0.216734483798353
 30
0.0
 10
-43.86823315916153
 20
0.9645713220606957
 30
0.0
 10
-44.28043726747496
 20
1.716847985722157
 30
0.0
 10
-44.64385679399065
 20
2.450410719838539
 30
0.0
 10
-45.25878218578681
 20
4.312080911883272
 30
0.0
 10
-45.39908467417123
 20
6.249011568903859
 30
0.0
 10
-45.15049148429591
 20
8.289483223439193
 30
0.0
 10
-44.44809217154431
 20
10.19124452545919
 30
0.0
 10
-43.50566191012347
 20
11.75947031680208
 30
0.0
 10
-42.18091137507868
 20
13.15070054353569
 30
0.0
 10
-41.67192669558296
 20
13.62576499780239
 30
0.0
 10
-41.04344319842515
 20
14.23317376444052
 30
0.0
 10
-40.2960433519635
 20
15.08416644429167
 30
0.0
 10
-39.70221300675825
 20
16.02312591476127
 30
0.0
 10
-39.23482099908398
 20
17.20039376653151
 30
0.0
 10
-39.05303922390119
 20
18.3443962501622
 30
0.0
 10
-39.01893071994549
 20
19.24021369080788
 30
0.0
 10
-39.10981242384243
 20
20.5409110124083
 30
0.0
 10
-39.19145395430925
 20
21.4985268309143
 30
0.0
 10
-39.19992575862424
 20
22.4713356302596
 30
0.0
 10
-39.15537464125742
 20
23.39607635165405
 30
0.0
 10
-38.76827369184191
 20
25.32918689217978
 30
0.0
 10
-37.92845875264548
 20
27.10138761747448
 30
0.0
 10
-36.70590671663238
 20
28.74807113387332
 30
0.0
 10
-35.16412698375415
 20
30.0500334524593
 30
0.0
 10
-33.5813787222665
 20
30.94308779794332
 30
0.0
 10
-31.72664995635214
 20
31.52662964984243
 30
0.0
 10
-31.00641091408288
 20
31.72666461793358
 30
0.0
 10
-30.06198674004273
 20
32.02262852076741
 30
0.0
 10
-28.87116411988089
 20
32.57595020042366
 30
0.0
 10
-27.88032149217437
 20
33.33559903971343
 30
0.0
 10
-27.06404707838991
 20
34.21382821832814
 30
0.0
 10
-26.29396167443259
 20
35.55449471321475
 30
0.0
 10
-25.90336854500928
 20
36.50354194113692
 30
0.0
 10
-25.56224284709743
 20
37.29400319099503
 30
0.0
 10
-25.23161551704036
 20
37.9895452465982
 30
0.0
 10
-24.83132808069081
 20
38.68497622709673
 30
0.0
 10
-24.41406722435665
 20
39.34467954714484
 30
0.0
 10
-23.1130290326811
 20
40.8588464845736
 30
0.0
 10
-21.51018985363243
 20
41.9757538204753
 30
0.0
 10
-19.63419004526274
 20
42.80570727757409
 30
0.0
 10
-17.66314658190258
 20
43.17457996775445
 30
0.0
 10
-15.85672751950626
 20
43.1715845265182
 30
0.0
 10
-13.90949399267694
 20
42.78252635339833
 30
0.0
 10
-13.10356892842379
 20
42.62089835448115
 30
0.0
 10
-11.96751274830678
 20
42.45470970305346
 30
0.0
 10
-10.47780795009211
 20
42.5349145274231
 30
0.0
 10
-9.279714949935698
 20
42.90146554010756
 30
0.0
 10
-8.309385301883143
 20
43.39314869796781
 30
0.0
 10
-7.577459836370862
 20
43.90293096017349
 30
0.0
 10
-7.054296109155582
 20
44.30782118834846
 30
0.0
 10
-5.971581191979631
 20
45.20965789433182
 30
0.0
 10
-4.977201837041622
 20
45.89738888693601
 30
0.0
 10
-3.866884393113482
 20
46.51297800049802
 30
0.0
 10
-1.99931405255916
 20
47.18629400365385
 30
0.0
 10
-0.6702405416781146
 20
47.26188174214773
 30
0.0
 10
-0.0000000000000001
 20
47.3
 30
0.0
  0
ENDSEC
  0
SECTION
  2
OBJECTS
  0
DICTIONARY
  5
C
330
0
100
AcDbDictionary
  3
ACAD_GROUP
350
D
  3
ACAD_LAYOUT
350
1A
  3
ACAD_MATERIAL
350
43
  3
ACAD_MLEADERSTYLE
350
5B
  3
ACAD_MLINESTYLE
350
17
  3
ACAD_PLOTSETTINGS
350
19
  3
ACAD_SCALELIST
350
47
  3
ACAD_VISUALSTYLE
350
2A
  3
ACDBHEADERROUNDTRIPXREC
350
10000095
  3
ACDBVARIABLEDICTIONARY
350
100000B6
  3
DWGPROPS
350
100000C1
  3
ONSHAPE_DATA
350
10000001
  0
DICTIONARY
  5
100000C2
330
8
100
AcDbDictionary
280
     1
  3
ACAD_XREC_ROUNDTRIP
360
100000C3
  0
DICTIONARY
  5
10000093
330
1F
100
AcDbDictionary
280
     1
  3
ACAD_SORTENTS
360
10000094
  0
DICTIONARY
  5
1000005A
330
10000059
100
AcDbDictionary
280
     1
  3
BTARCONSURFACERADIUS
360
1000005D
  3
BTDETID
360
1000005B
  3
BTOWNERFACEID_
360
1000005C
  3
BTPARTID
360
1000005E
  0
DICTIONARY
  5
10000060
330
1000005F
100
AcDbDictionary
280
     1
  3
BTARCONSURFACERADIUS
360
10000063
  3
BTDETID
360
10000061
  3
BTOWNERFACEID_
360
10000062
  3
BTPARTID
360
10000064
  0
DICTIONARY
  5
10000066
330
10000065
100
AcDbDictionary
280
     1
  3
BTARCONSURFACERADIUS
360
10000069
  3
BTDETID
360
10000067
  3
BTOWNERFACEID_
360
10000068
  3
BTPARTID
360
1000006A
  0
DICTIONARY
  5
1000006C
330
1000006B
100
AcDbDictionary
280
     1
  3
BTARCONSURFACERADIUS
360
1000006F
  3
BTDETID
360
1000006D
  3
BTOWNERFACEID_
360
1000006E
  3
BTPARTID
360
10000070
  0
DICTIONARY
  5
10000072
330
10000071
100
AcDbDictionary
280
     1
  3
BTARCONSURFACERADIUS
360
10000075
  3
BTDETID
360
10000073
  3
BTOWNERFACEID_
360
10000074
  3
BTPARTID
360
10000076
  0
DICTIONARY
  5
10000078
330
10000077
100
AcDbDictionary
280
     1
  3
BTARCONSURFACERADIUS
360
1000007B
  3
BTDETID
360
10000079
  3
BTOWNERFACEID_
360
1000007A
  3
BTPARTID
360
1000007C
  0
DICTIONARY
  5
1000007E
330
1000007D
100
AcDbDictionary
280
     1
  3
BTARCONSURFACERADIUS
360
10000081
  3
BTDETID
360
1000007F
  3
BTOWNERFACEID_
360
10000080
  3
BTPARTID
360
10000082
  0
DICTIONARY
  5
10000084
330
10000083
100
AcDbDictionary
280
     1
  3
BTARCONSURFACERADIUS
360
10000087
  3
BTDETID
360
10000085
  3
BTOWNERFACEID_
360
10000086
  3
BTPARTID
360
10000088
  0
DICTIONARY
  5
1000008A
330
10000089
100
AcDbDictionary
280
     1
  3
BTARCONSURFACERADIUS
360
1000008D
  3
BTDETID
360
1000008B
  3
BTOWNERFACEID_
360
1000008C
  3
BTPARTID
360
1000008E
  0
DICTIONARY
  5
10000090
330
1000008F
100
AcDbDictionary
280
     1
  3
BTDETID
360
10000091
  3
BTPARTID
360
10000092
  0
DICTIONARY
  5
D
102
{ACAD_REACTORS
330
C
102
}
330
C
100
AcDbDictionary
  0
DICTIONARY
  5
1A
102
{ACAD_REACTORS
330
C
102
}
330
C
100
AcDbDictionary
  0
DICTIONARY
  5
43
102
{ACAD_REACTORS
330
C
102
}
330
C
100
AcDbDictionary
  3
BYBLOCK
350
45
  3
BYLAYER
350
44
  3
GLOBAL
350
46
  0
DICTIONARY
  5
5B
102
{ACAD_REACTORS
330
C
102
}
330
C
100
AcDbDictionary
  3
STANDARD
350
5C
  0
DICTIONARY
  5
17
102
{ACAD_REACTORS
330
C
102
}
330
C
100
AcDbDictionary
  3
STANDARD
350
18
  0
DICTIONARY
  5
19
102
{ACAD_REACTORS
330
C
102
}
330
C
100
AcDbDictionary
  0
DICTIONARY
  5
47
102
{ACAD_REACTORS
330
C
102
}
330
C
100
AcDbDictionary
  3
SCALE100_1
350
10000023
  3
SCALE10_1
350
1000001D
  3
SCALE12_1
350
1000001E
  3
SCALE16_1
350
1000001F
  3
SCALE1_1
350
10000006
  3
SCALE1_10
350
1000000D
  3
SCALE1_100
350
10000016
  3
SCALE1_12
350
1000000E
  3
SCALE1_16
350
1000000F
  3
SCALE1_2
350
10000007
  3
SCALE1_20
350
10000010
  3
SCALE1_25
350
10000011
  3
SCALE1_3
350
10000008
  3
SCALE1_32
350
10000012
  3
SCALE1_4
350
10000009
  3
SCALE1_40
350
10000013
  3
SCALE1_5
350
1000000A
  3
SCALE1_50
350
10000014
  3
SCALE1_6
350
1000000B
  3
SCALE1_8
350
1000000C
  3
SCALE1_80
350
10000015
  3
SCALE20_1
350
10000020
  3
SCALE2_1
350
10000017
  3
SCALE32_1
350
10000021
  3
SCALE3_1
350
10000018
  3
SCALE4_1
350
10000019
  3
SCALE50_1
350
10000022
  3
SCALE5_1
350
1000001A
  3
SCALE6_1
350
1000001B
  3
SCALE8_1
350
1000001C
  0
DICTIONARY
  5
2A
102
{ACAD_REACTORS
330
C
102
}
330
C
100
AcDbDictionary
  3
2DWIREFRAME
350
2F
  3
BASIC
350
32
  3
BRIGHTEN
350
36
  3
COLORCHANGE
350
3A
  3
CONCEPTUAL
350
34
  3
DIM
350
35
  3
EDGECOLOROFF
350
3D
  3
FACEPATTERN
350
39
  3
FLAT
350
2B
  3
FLATWITHEDGES
350
2C
  3
GOURAUD
350
2D
  3
GOURAUDWITHEDGES
350
2E
  3
HIDDEN
350
31
  3
JITTEROFF
350
3B
  3
LINEPATTERN
350
38
  3
OVERHANGOFF
350
3C
  3
REALISTIC
350
33
  3
SHADED
350
42
  3
SHADED_WITH_EDGES
350
41
  3
SHADES_OF_GRAY
350
3E
  3
SKETCHY
350
3F
  3
THICKEN
350
37
  3
WIREFRAME
350
30
  3
X-RAY
350
40
  0
DICTIONARY
  5
10000095
102
{ACAD_REACTORS
330
C
102
}
330
C
100
AcDbDictionary
  3
CEPSNID
350
1000009F
  3
CEPSNTYPE
350
1000009E
  3
DIMSTYLEDATA
350
100000B5
  3
FINGERPRINTGUID
350
100000A0
  3
HYPERLINKBASE
350
10000098
  3
INSUNITS
350
1000009D
  3
LAYOUTDICT
350
1000009A
  3
LWETCUNION
350
1000009C
  3
PLOTSETDICT
350
1000009B
  3
PSVPSCALE
350
100000A2
  3
PUCSBASE
350
100000A5
  3
PUCSORGBACK
350
100000AB
  3
PUCSORGBOTTOM
350
100000A7
  3
PUCSORGFRONT
350
100000AA
  3
PUCSORGLEFT
350
100000A8
  3
PUCSORGRIGHT
350
100000A9
  3
PUCSORGTOP
350
100000A6
  3
PUCSORTHOREF
350
100000A3
  3
PUCSORTHOVIEW
350
100000A4
  3
STYLESHEET
350
10000099
  3
TSTACKALIGN
350
10000096
  3
TSTACKSIZE
350
10000097
  3
UCSBASE
350
100000AE
  3
UCSORGBACK
350
100000B4
  3
UCSORGBOTTOM
350
100000B0
  3
UCSORGFRONT
350
100000B3
  3
UCSORGLEFT
350
100000B1
  3
UCSORGRIGHT
350
100000B2
  3
UCSORGTOP
350
100000AF
  3
UCSORTHOREF
350
100000AC
  3
UCSORTHOVIEW
350
100000AD
  3
VERSIONGUID
350
100000A1
  0
DICTIONARY
  5
100000B6
102
{ACAD_REACTORS
330
C
102
}
330
C
100
AcDbDictionary
  3
CANNOSCALE
350
100000C4
  3
CENTEREXE
350
100000BD
  3
CENTERLTYPEFILE
350
100000BE
  3
CMLEADERSTYLE
350
100000B8
  3
CTABLESTYLE
350
100000B7
  3
DIMASSOC
350
100000BF
  3
HIDETEXT
350
100000C0
  3
MSLTSCALE
350
100000C5
  3
PSOLHEIGHT
350
100000BA
  3
PSOLWIDTH
350
100000B9
  0
XRECORD
  5
100000C1
102
{ACAD_REACTORS
330
C
102
}
330
C
100
AcDbXrecord
  1
DWGPROPS COOKIE
  2

  3

  4

  6
File was created by BTDwgCreate
  7

  8
onshape
  9

300
=
301
=
302
=
303
=
304
=
305
=
306
=
307
=
308
=
309
=
 40
0.0
 41
2461321.478291887
 42
2461321.478291922
  1

 90
        0
  0
DICTIONARY
  5
10000001
102
{ACAD_REACTORS
330
C
102
}
330
C
100
AcDbDictionary
280
     1
  3
DIM_UNITS
360
10000003
  3
DWGGEN_VERSION
360
10000002
  3
FIRST_ANGLE
360
10000005
  0
XRECORD
  5
100000C3
102
{ACAD_REACTORS
330
100000C2
102
}
330
100000C2
100
AcDbXrecord
102
VTR_0.000_0.000_1.000_1.000_VISUALSTYLE
340
2F
102
VTR_0.000_0.000_1.000_1.000_GRIDDISPLAY
 70
     3
102
VTR_0.000_0.000_1.000_1.000_GRIDMAJOR
 70
     5
102
VTR_0.000_0.000_1.000_1.000_DEFAULTLIGHTING
280
     1
102
VTR_0.000_0.000_1.000_1.000_DEFAULTLIGHTINGTYPE
 70
     1
102
VTR_0.000_0.000_1.000_1.000_BRIGHTNESS
141
0.0
102
VTR_0.000_0.000_1.000_1.000_CONTRAST
142
0.0
  0
SORTENTSTABLE
  5
10000094
102
{ACAD_REACTORS
330
10000093
102
}
330
10000093
100
AcDbSortentsTable
330
1F
  0
XRECORD
  5
1000005D
102
{ACAD_REACTORS
330
1000005A
102
}
330
1000005A
100
AcDbXrecord
 40
21.0
  0
XRECORD
  5
1000005B
102
{ACAD_REACTORS
330
1000005A
102
}
330
1000005A
100
AcDbXrecord
1000
JW9
  0
XRECORD
  5
1000005C
102
{ACAD_REACTORS
330
1000005A
102
}
330
1000005A
100
AcDbXrecord
1000
R8BO
  0
XRECORD
  5
1000005E
102
{ACAD_REACTORS
330
1000005A
102
}
330
1000005A
100
AcDbXrecord
1000
JWD
  0
XRECORD
  5
10000063
102
{ACAD_REACTORS
330
10000060
102
}
330
10000060
100
AcDbXrecord
 40
1.5
  0
XRECORD
  5
10000061
102
{ACAD_REACTORS
330
10000060
102
}
330
10000060
100
AcDbXrecord
1000
JeN
  0
XRECORD
  5
10000062
102
{ACAD_REACTORS
330
10000060
102
}
330
10000060
100
AcDbXrecord
1000
R8BO
  0
XRECORD
  5
10000064
102
{ACAD_REACTORS
330
10000060
102
}
330
10000060
100
AcDbXrecord
1000
JWD
  0
XRECORD
  5
10000069
102
{ACAD_REACTORS
330
10000066
102
}
330
10000066
100
AcDbXrecord
 40
1.5
  0
XRECORD
  5
10000067
102
{ACAD_REACTORS
330
10000066
102
}
330
10000066
100
AcDbXrecord
1000
JeJ
  0
XRECORD
  5
10000068
102
{ACAD_REACTORS
330
10000066
102
}
330
10000066
100
AcDbXrecord
1000
R8BO
  0
XRECORD
  5
1000006A
102
{ACAD_REACTORS
330
10000066
102
}
330
10000066
100
AcDbXrecord
1000
JWD
  0
XRECORD
  5
1000006F
102
{ACAD_REACTORS
330
1000006C
102
}
330
1000006C
100
AcDbXrecord
 40
7.800000000000001
  0
XRECORD
  5
1000006D
102
{ACAD_REACTORS
330
1000006C
102
}
330
1000006C
100
AcDbXrecord
1000
S8BVB
  0
XRECORD
  5
1000006E
102
{ACAD_REACTORS
330
1000006C
102
}
330
1000006C
100
AcDbXrecord
1000
R8BO
  0
XRECORD
  5
10000070
102
{ACAD_REACTORS
330
1000006C
102
}
330
1000006C
100
AcDbXrecord
1000
JWD
  0
XRECORD
  5
10000075
102
{ACAD_REACTORS
330
10000072
102
}
330
10000072
100
AcDbXrecord
 40
7.800000000000002
  0
XRECORD
  5
10000073
102
{ACAD_REACTORS
330
10000072
102
}
330
10000072
100
AcDbXrecord
1000
S8BZB
  0
XRECORD
  5
10000074
102
{ACAD_REACTORS
330
10000072
102
}
330
10000072
100
AcDbXrecord
1000
R8BO
  0
XRECORD
  5
10000076
102
{ACAD_REACTORS
330
10000072
102
}
330
10000072
100
AcDbXrecord
1000
JWD
  0
XRECORD
  5
1000007B
102
{ACAD_REACTORS
330
10000078
102
}
330
10000078
100
AcDbXrecord
 40
7.799999999999999
  0
XRECORD
  5
10000079
102
{ACAD_REACTORS
330
10000078
102
}
330
10000078
100
AcDbXrecord
1000
S8BdB
  0
XRECORD
  5
1000007A
102
{ACAD_REACTORS
330
10000078
102
}
330
10000078
100
AcDbXrecord
1000
R8BO
  0
XRECORD
  5
1000007C
102
{ACAD_REACTORS
330
10000078
102
}
330
10000078
100
AcDbXrecord
1000
JWD
  0
XRECORD
  5
10000081
102
{ACAD_REACTORS
330
1000007E
102
}
330
1000007E
100
AcDbXrecord
 40
7.800000000000001
  0
XRECORD
  5
1000007F
102
{ACAD_REACTORS
330
1000007E
102
}
330
1000007E
100
AcDbXrecord
1000
S8BhB
  0
XRECORD
  5
10000080
102
{ACAD_REACTORS
330
1000007E
102
}
330
1000007E
100
AcDbXrecord
1000
R8BO
  0
XRECORD
  5
10000082
102
{ACAD_REACTORS
330
1000007E
102
}
330
1000007E
100
AcDbXrecord
1000
JWD
  0
XRECORD
  5
10000087
102
{ACAD_REACTORS
330
10000084
102
}
330
10000084
100
AcDbXrecord
 40
7.800000000000002
  0
XRECORD
  5
10000085
102
{ACAD_REACTORS
330
10000084
102
}
330
10000084
100
AcDbXrecord
1000
S8BpB
  0
XRECORD
  5
10000086
102
{ACAD_REACTORS
330
10000084
102
}
330
10000084
100
AcDbXrecord
1000
R8BO
  0
XRECORD
  5
10000088
102
{ACAD_REACTORS
330
10000084
102
}
330
10000084
100
AcDbXrecord
1000
JWD
  0
XRECORD
  5
1000008D
102
{ACAD_REACTORS
330
1000008A
102
}
330
1000008A
100
AcDbXrecord
 40
7.800000000000002
  0
XRECORD
  5
1000008B
102
{ACAD_REACTORS
330
1000008A
102
}
330
1000008A
100
AcDbXrecord
1000
S8BlB
  0
XRECORD
  5
1000008C
102
{ACAD_REACTORS
330
1000008A
102
}
330
1000008A
100
AcDbXrecord
1000
R8BO
  0
XRECORD
  5
1000008E
102
{ACAD_REACTORS
330
1000008A
102
}
330
1000008A
100
AcDbXrecord
1000
JWD
  0
XRECORD
  5
10000091
102
{ACAD_REACTORS
330
10000090
102
}
330
10000090
100
AcDbXrecord
1000
S8BtB
  0
XRECORD
  5
10000092
102
{ACAD_REACTORS
330
10000090
102
}
330
10000090
100
AcDbXrecord
1000
JWD
  0
MATERIAL
  5
45
102
{ACAD_REACTORS
330
43
102
}
102
{ACAD_XDICTIONARY
360
100000C8
102
}
330
43
100
AcDbMaterial
  1
BYBLOCK
  0
MATERIAL
  5
44
102
{ACAD_REACTORS
330
43
102
}
102
{ACAD_XDICTIONARY
360
100000C6
102
}
330
43
100
AcDbMaterial
  1
BYLAYER
  0
MATERIAL
  5
46
102
{ACAD_REACTORS
330
43
102
}
102
{ACAD_XDICTIONARY
360
100000CA
102
}
330
43
100
AcDbMaterial
  1
GLOBAL
  0
ACAD_PROXY_OBJECT
  5
5C
102
{ACAD_REACTORS
330
5B
102
}
330
5B
100
AcDbProxyObject
 90
      499
 91
      505
 93
      610
310
40901902A4063FBFFFFFE0000000000000020400000000000020404214DD185B99185C990000000000000104090141901A00000000000004100000000000000041025764000000000000039000
340
14
340
0
340
11
340
0
 94
        0
1001
ACAD_MLEADERVER
1070
     2
  0
MLINESTYLE
  5
18
102
{ACAD_REACTORS
330
17
102
}
330
17
100
AcDbMlineStyle
  2
Standard
 70
     0
  3

 62
   256
 51
90.0
 52
90.0
 71
     2
 49
0.5
 62
   256
  6
BYLAYER
 49
-0.5
 62
   256
  6
BYLAYER
  0
ACAD_PROXY_OBJECT
  5
10000023
102
{ACAD_REACTORS
330
47
102
}
330
47
100
AcDbProxyObject
 90
      499
 91
      503
 93
      121
310
9053130303A310000000000001650100
  0
ACAD_PROXY_OBJECT
  5
1000001D
102
{ACAD_REACTORS
330
47
102
}
330
47
100
AcDbProxyObject
 90
      499
 91
      503
 93
      113
310
90431303A310000000000000910100
  0
ACAD_PROXY_OBJECT
  5
1000001E
102
{ACAD_REACTORS
330
47
102
}
330
47
100
AcDbProxyObject
 90
      499
 91
      503
 93
      113
310
90431323A310000000000000A10100
  0
ACAD_PROXY_OBJECT
  5
1000001F
102
{ACAD_REACTORS
330
47
102
}
330
47
100
AcDbProxyObject
 90
      499
 91
      503
 93
      113
310
90431363A310000000000000C10100
  0
ACAD_PROXY_OBJECT
  5
10000006
102
{ACAD_REACTORS
330
47
102
}
330
47
100
AcDbProxyObject
 90
      499
 91
      503
 93
       41
310
903313A31500
  0
ACAD_PROXY_OBJECT
  5
1000000D
102
{ACAD_REACTORS
330
47
102
}
330
47
100
AcDbProxyObject
 90
      499
 91
      503
 93
      113
310
904313A31304000000000000244000
  0
ACAD_PROXY_OBJECT
  5
10000016
102
{ACAD_REACTORS
330
47
102
}
330
47
100
AcDbProxyObject
 90
      499
 91
      503
 93
      121
310
905313A3130304000000000000594000
  0
ACAD_PROXY_OBJECT
  5
1000000E
102
{ACAD_REACTORS
330
47
102
}
330
47
100
AcDbProxyObject
 90
      499
 91
      503
 93
      113
310
904313A31324000000000000284000
  0
ACAD_PROXY_OBJECT
  5
1000000F
102
{ACAD_REACTORS
330
47
102
}
330
47
100
AcDbProxyObject
 90
      499
 91
      503
 93
      113
310
904313A31364000000000000304000
  0
ACAD_PROXY_OBJECT
  5
10000007
102
{ACAD_REACTORS
330
47
102
}
330
47
100
AcDbProxyObject
 90
      499
 91
      503
 93
      105
310
903313A324000000000000004000
  0
ACAD_PROXY_OBJECT
  5
10000010
102
{ACAD_REACTORS
330
47
102
}
330
47
100
AcDbProxyObject
 90
      499
 91
      503
 93
      113
310
904313A32304000000000000344000
  0
ACAD_PROXY_OBJECT
  5
10000011
102
{ACAD_REACTORS
330
47
102
}
330
47
100
AcDbProxyObject
 90
      499
 91
      503
 93
      113
310
904313A32354000000000000394000
  0
ACAD_PROXY_OBJECT
  5
10000008
102
{ACAD_REACTORS
330
47
102
}
330
47
100
AcDbProxyObject
 90
      499
 91
      503
 93
      105
310
903313A334000000000000084000
  0
ACAD_PROXY_OBJECT
  5
10000012
102
{ACAD_REACTORS
330
47
102
}
330
47
100
AcDbProxyObject
 90
      499
 91
      503
 93
      113
310
904313A33324000000000000404000
  0
ACAD_PROXY_OBJECT
  5
10000009
102
{ACAD_REACTORS
330
47
102
}
330
47
100
AcDbProxyObject
 90
      499
 91
      503
 93
      105
310
903313A344000000000000104000
  0
ACAD_PROXY_OBJECT
  5
10000013
102
{ACAD_REACTORS
330
47
102
}
330
47
100
AcDbProxyObject
 90
      499
 91
      503
 93
      113
310
904313A34304000000000000444000
  0
ACAD_PROXY_OBJECT
  5
1000000A
102
{ACAD_REACTORS
330
47
102
}
330
47
100
AcDbProxyObject
 90
      499
 91
      503
 93
      105
310
903313A354000000000000144000
  0
ACAD_PROXY_OBJECT
  5
10000014
102
{ACAD_REACTORS
330
47
102
}
330
47
100
AcDbProxyObject
 90
      499
 91
      503
 93
      113
310
904313A35304000000000000494000
  0
ACAD_PROXY_OBJECT
  5
1000000B
102
{ACAD_REACTORS
330
47
102
}
330
47
100
AcDbProxyObject
 90
      499
 91
      503
 93
      105
310
903313A364000000000000184000
  0
ACAD_PROXY_OBJECT
  5
1000000C
102
{ACAD_REACTORS
330
47
102
}
330
47
100
AcDbProxyObject
 90
      499
 91
      503
 93
      105
310
903313A384000000000000204000
  0
ACAD_PROXY_OBJECT
  5
10000015
102
{ACAD_REACTORS
330
47
102
}
330
47
100
AcDbProxyObject
 90
      499
 91
      503
 93
      113
310
904313A38304000000000000544000
  0
ACAD_PROXY_OBJECT
  5
10000020
102
{ACAD_REACTORS
330
47
102
}
330
47
100
AcDbProxyObject
 90
      499
 91
      503
 93
      113
310
90432303A310000000000000D10100
  0
ACAD_PROXY_OBJECT
  5
10000017
102
{ACAD_REACTORS
330
47
102
}
330
47
100
AcDbProxyObject
 90
      499
 91
      503
 93
      105
310
903323A310000000000000010100
  0
ACAD_PROXY_OBJECT
  5
10000021
102
{ACAD_REACTORS
330
47
102
}
330
47
100
AcDbProxyObject
 90
      499
 91
      503
 93
      113
310
90433323A310000000000001010100
  0
ACAD_PROXY_OBJECT
  5
10000018
102
{ACAD_REACTORS
330
47
102
}
330
47
100
AcDbProxyObject
 90
      499
 91
      503
 93
      105
310
903333A310000000000000210100
  0
ACAD_PROXY_OBJECT
  5
10000019
102
{ACAD_REACTORS
330
47
102
}
330
47
100
AcDbProxyObject
 90
      499
 91
      503
 93
      105
310
903343A310000000000000410100
  0
ACAD_PROXY_OBJECT
  5
10000022
102
{ACAD_REACTORS
330
47
102
}
330
47
100
AcDbProxyObject
 90
      499
 91
      503
 93
      113
310
90435303A310000000000001250100
  0
ACAD_PROXY_OBJECT
  5
1000001A
102
{ACAD_REACTORS
330
47
102
}
330
47
100
AcDbProxyObject
 90
      499
 91
      503
 93
      105
310
903353A310000000000000510100
  0
ACAD_PROXY_OBJECT
  5
1000001B
102
{ACAD_REACTORS
330
47
102
}
330
47
100
AcDbProxyObject
 90
      499
 91
      503
 93
      105
310
903363A310000000000000610100
  0
ACAD_PROXY_OBJECT
  5
1000001C
102
{ACAD_REACTORS
330
47
102
}
330
47
100
AcDbProxyObject
 90
      499
 91
      503
 93
      105
310
903383A310000000000000810100
  0
ACAD_PROXY_OBJECT
  5
2F
102
{ACAD_REACTORS
330
2A
102
}
330
2A
100
AcDbProxyObject
 90
      499
 91
      501
 93
      436
310
42CC9915DA5C99599C985B595049028333333333333E33F0000000000000F90107901411070040501600405405064090741402480A0340
1001
ACAD
1000
AcDbSavedByObjectVersion
1070
     0
  0
ACAD_PROXY_OBJECT
  5
32
102
{ACAD_REACTORS
330
2A
102
}
330
2A
100
AcDbProxyObject
 90
      499
 91
      501
 93
      388
310
4150985CDA58D07406404333333333333E33F0000000000000F90107A41107004050150841D405064090741402480A0350
1001
ACAD
1000
AcDbSavedByObjectVersion
1070
     0
  0
ACAD_PROXY_OBJECT
  5
36
102
{ACAD_REACTORS
330
2A
102
}
330
2A
100
AcDbProxyObject
 90
      499
 91
      501
 93
      428
310
42109C9A59DA1D195B90C409028333333333333E33F0000000000000F9010790141107004050150841D405064090741402480A029950
1001
ACAD
1000
AcDbSavedByObjectVersion
1070
     0
  0
ACAD_PROXY_OBJECT
  5
3A
102
{ACAD_REACTORS
330
2A
102
}
330
2A
100
AcDbProxyObject
 90
      499
 91
      501
 93
      452
310
42D0DBDB1BDC90DA185B99D95104090240C333333333333E33F0000000000000F90108901411070040501508421405064090741402480A0350
1001
ACAD
1000
AcDbSavedByObjectVersion
1070
     0
  0
ACAD_PROXY_OBJECT
  5
34
102
{ACAD_REACTORS
330
2A
102
}
330
2A
100
AcDbProxyObject
 90
      499
 91
      501
 93
      500
310
4290DBDB98D95C1D1D585B10940D028333333333333E33F0000000000000F90107902409070040501000000000018199010841D405064090740C02480A0340
1001
ACAD
1000
AcDbSavedByObjectVersion
1070
     0
  0
ACAD_PROXY_OBJECT
  5
35
102
{ACAD_REACTORS
330
2A
102
}
330
2A
100
AcDbProxyObject
 90
      499
 91
      501
 93
      412
310
40D11A5B50B409028333333333333E33F0000000000000F9010790141107004050150841D405064090741402480A02677FFFFFD0
1001
ACAD
1000
AcDbSavedByObjectVersion
1070
     0
  0
ACAD_PROXY_OBJECT
  5
3D
102
{ACAD_REACTORS
330
2A
102
}
330
2A
100
AcDbProxyObject
 90
      499
 91
      501
 93
      452
310
43115919D950DBDB1BDC93D999916409028333333333333E33F0000000000000F9010790141107004050150841D405064090741402480A0350
1001
ACAD
1000
AcDbSavedByObjectVersion
1070
     0
  0
ACAD_PROXY_OBJECT
  5
39
102
{ACAD_REACTORS
330
2A
102
}
330
2A
100
AcDbProxyObject
 90
      499
 91
      501
 93
      444
310
42D19858D95C185D1D195C9B90F409028333333333333E33F0000000000000F9010790141107004050150841D405064090741402480A0350
1001
ACAD
1000
AcDbSavedByObjectVersion
1070
     0
  0
ACAD_PROXY_OBJECT
  5
2B
102
{ACAD_REACTORS
330
2A
102
}
330
2A
100
AcDbProxyObject
 90
      499
 91
      501
 93
      380
310
41119B185D240901404333333333333E33F0000000000000F9010740A907004050150841D405064090741402480A1B50
1001
ACAD
1000
AcDbSavedByObjectVersion
1070
     0
  0
ACAD_PROXY_OBJECT
  5
2C
102
{ACAD_REACTORS
330
2A
102
}
330
2A
100
AcDbProxyObject
 90
      499
 91
      501
 93
      468
310
43519B185D15DA5D1A115919D95CD0140901404333333333333E33F0000000000000F90107409019070040501600405405064090741402480A1B50
1001
ACAD
1000
AcDbSavedByObjectVersion
1070
     0
  0
ACAD_PROXY_OBJECT
  5
2D
102
{ACAD_REACTORS
330
2A
102
}
330
2A
100
AcDbProxyObject
 90
      499
 91
      501
 93
      404
310
41D1DBDD5C985D5910240902404333333333333E33F0000000000000F9010740A9070040501641D405064090741402480A1B50
1001
ACAD
1000
AcDbSavedByObjectVersion
1070
     0
  0
ACAD_PROXY_OBJECT
  5
2E
102
{ACAD_REACTORS
330
2A
102
}
330
2A
100
AcDbProxyObject
 90
      499
 91
      501
 93
      492
310
4411DBDD5C985D5915DA5D1A115919D95CD0340902404333333333333E33F0000000000000F90107409019070040501600405405064090741402480A1B50
1001
ACAD
1000
AcDbSavedByObjectVersion
1070
     0
  0
ACAD_PROXY_OBJECT
  5
31
102
{ACAD_REACTORS
330
2A
102
}
330
2A
100
AcDbProxyObject
 90
      499
 91
      501
 93
      476
310
41921A5919195B90640502408333333333333E33F0000000000000F901079024090700405020000000000001110200405405064090740C02480A0340
1001
ACAD
1000
AcDbSavedByObjectVersion
1070
     0
  0
ACAD_PROXY_OBJECT
  5
3B
102
{ACAD_REACTORS
330
2A
102
}
330
2A
100
AcDbProxyObject
 90
      499
 91
      501
 93
      428
310
42529A5D1D195C93D999914409028333333333333E33F0000000000000F9010790141107004050150A41D405064090741402480A0350
1001
ACAD
1000
AcDbSavedByObjectVersion
1070
     0
  0
ACAD_PROXY_OBJECT
  5
38
102
{ACAD_REACTORS
330
2A
102
}
330
2A
100
AcDbProxyObject
 90
      499
 91
      501
 93
      444
310
42D31A5B995C185D1D195C9B90E409028333333333333E33F0000000000000F9010790141107004050750841D405064090741402483A0350
1001
ACAD
1000
AcDbSavedByObjectVersion
1070
     0
  0
ACAD_PROXY_OBJECT
  5
3C
102
{ACAD_REACTORS
330
2A
102
}
330
2A
100
AcDbProxyObject
 90
      499
 91
      501
 93
      444
310
42D3DD995C9A185B99D3D999915409028333333333333E33F0000000000000F9010790141107004050150941D405064090741402480A0350
1001
ACAD
1000
AcDbSavedByObjectVersion
1070
     0
  0
ACAD_PROXY_OBJECT
  5
33
102
{ACAD_REACTORS
330
2A
102
}
330
2A
100
AcDbProxyObject
 90
      499
 91
      501
 93
      428
310
425499585B1A5CDD1A58D08409038333333333333E33F0000000000000F9010740A907004050150800405405064090740C02480A1B40
1001
ACAD
1000
AcDbSavedByObjectVersion
1070
     0
  0
ACAD_PROXY_OBJECT
  5
42
102
{ACAD_REACTORS
330
2A
102
}
330
2A
100
AcDbProxyObject
 90
      499
 91
      501
 93
      420
310
4194DA1859195911B40902404333333333333E33F0000000000000F9010740A41107004050150800405405064090840C02480A0B40
1001
ACAD
1000
AcDbSavedByObjectVersion
1070
     0
  0
ACAD_PROXY_OBJECT
  5
41
102
{ACAD_REACTORS
330
2A
102
}
330
2A
100
AcDbProxyObject
 90
      499
 91
      501
 93
      516
310
4454DA18591959081DDA5D1A08195919D95CD1A40902404333333333333E33F0000000000000F901074090142907004050250800405405064090740C02480A0B40
1001
ACAD
1000
AcDbSavedByObjectVersion
1070
     0
  0
ACAD_PROXY_OBJECT
  5
3E
102
{ACAD_REACTORS
330
2A
102
}
330
2A
100
AcDbProxyObject
 90
      499
 91
      501
 93
      532
310
4394DA1859195CC81BD98811DC985E5174090240C333333333333E33F0000000000000F901079024090741D01000000000000111010841D405064090740C02480A0340
1001
ACAD
1000
AcDbSavedByObjectVersion
1070
     0
  0
ACAD_PROXY_OBJECT
  5
3F
102
{ACAD_REACTORS
330
2A
102
}
330
2A
100
AcDbProxyObject
 90
      499
 91
      501
 93
      476
310
41D4DAD95D18DA1E51840502408333333333333E33F0000000000000F901079024090741D01000000000000111010B41D405064090741802480A0340
1001
ACAD
1000
AcDbSavedByObjectVersion
1070
     0
  0
ACAD_PROXY_OBJECT
  5
37
102
{ACAD_REACTORS
330
2A
102
}
330
2A
100
AcDbProxyObject
 90
      499
 91
      501
 93
      412
310
41D51A1A58DAD95B90D409028333333333333E33F0000000000000F9010790141107004050150C41D405064090741402480A0350
1001
ACAD
1000
AcDbSavedByObjectVersion
1070
     0
  0
ACAD_PROXY_OBJECT
  5
30
102
{ACAD_REACTORS
330
2A
102
}
330
2A
100
AcDbProxyObject
 90
      499
 91
      501
 93
      420
310
4255DA5C99599C985B595059028333333333333E33F0000000000000F90107901411070040501600405405064090740C02480A0340
1001
ACAD
1000
AcDbSavedByObjectVersion
1070
     0
  0
ACAD_PROXY_OBJECT
  5
40
102
{ACAD_REACTORS
330
2A
102
}
330
2A
100
AcDbProxyObject
 90
      499
 91
      501
 93
      404
310
41560B54985E51940902404000000000000E03F0000000000000F9010740501907004050150841D405064090740C02480A1B40
1001
ACAD
1000
AcDbSavedByObjectVersion
1070
     0
  0
XRECORD
  5
1000009F
102
{ACAD_REACTORS
330
10000095
102
}
330
10000095
100
AcDbXrecord
340
0
  0
XRECORD
  5
1000009E
102
{ACAD_REACTORS
330
10000095
102
}
330
10000095
100
AcDbXrecord
 90
        0
  0
XRECORD
  5
100000B5
102
{ACAD_REACTORS
330
10000095
102
}
330
10000095
100
AcDbXrecord
1000
DSTYLE
1002
{
1070
   340
340
11
1002
}
  0
XRECORD
  5
100000A0
102
{ACAD_REACTORS
330
10000095
102
}
330
10000095
100
AcDbXrecord
  1
{30353075-7662-6376-f474-766672313170}
  0
XRECORD
  5
10000098
102
{ACAD_REACTORS
330
10000095
102
}
330
10000095
100
AcDbXrecord
  1

  0
XRECORD
  5
1000009D
102
{ACAD_REACTORS
330
10000095
102
}
330
10000095
100
AcDbXrecord
 90
        4
  0
XRECORD
  5
1000009A
102
{ACAD_REACTORS
330
10000095
102
}
330
10000095
100
AcDbXrecord
340
1A
  0
XRECORD
  5
1000009C
102
{ACAD_REACTORS
330
10000095
102
}
330
10000095
100
AcDbXrecord
 90
    10781
  0
XRECORD
  5
1000009B
102
{ACAD_REACTORS
330
10000095
102
}
330
10000095
100
AcDbXrecord
340
19
  0
XRECORD
  5
100000A2
102
{ACAD_REACTORS
330
10000095
102
}
330
10000095
100
AcDbXrecord
 40
0.0
  0
XRECORD
  5
100000A5
102
{ACAD_REACTORS
330
10000095
102
}
330
10000095
100
AcDbXrecord
340
0
  0
XRECORD
  5
100000AB
102
{ACAD_REACTORS
330
10000095
102
}
330
10000095
100
AcDbXrecord
 10
0.0
 20
0.0
 30
0.0
  0
XRECORD
  5
100000A7
102
{ACAD_REACTORS
330
10000095
102
}
330
10000095
100
AcDbXrecord
 10
0.0
 20
0.0
 30
0.0
  0
XRECORD
  5
100000AA
102
{ACAD_REACTORS
330
10000095
102
}
330
10000095
100
AcDbXrecord
 10
0.0
 20
0.0
 30
0.0
  0
XRECORD
  5
100000A8
102
{ACAD_REACTORS
330
10000095
102
}
330
10000095
100
AcDbXrecord
 10
0.0
 20
0.0
 30
0.0
  0
XRECORD
  5
100000A9
102
{ACAD_REACTORS
330
10000095
102
}
330
10000095
100
AcDbXrecord
 10
0.0
 20
0.0
 30
0.0
  0
XRECORD
  5
100000A6
102
{ACAD_REACTORS
330
10000095
102
}
330
10000095
100
AcDbXrecord
 10
0.0
 20
0.0
 30
0.0
  0
XRECORD
  5
100000A3
102
{ACAD_REACTORS
330
10000095
102
}
330
10000095
100
AcDbXrecord
340
0
  0
XRECORD
  5
100000A4
102
{ACAD_REACTORS
330
10000095
102
}
330
10000095
100
AcDbXrecord
 70
     0
  0
XRECORD
  5
10000099
102
{ACAD_REACTORS
330
10000095
102
}
330
10000095
100
AcDbXrecord
  1

  0
XRECORD
  5
10000096
102
{ACAD_REACTORS
330
10000095
102
}
330
10000095
100
AcDbXrecord
 90
        1
  0
XRECORD
  5
10000097
102
{ACAD_REACTORS
330
10000095
102
}
330
10000095
100
AcDbXrecord
 90
       70
  0
XRECORD
  5
100000AE
102
{ACAD_REACTORS
330
10000095
102
}
330
10000095
100
AcDbXrecord
340
0
  0
XRECORD
  5
100000B4
102
{ACAD_REACTORS
330
10000095
102
}
330
10000095
100
AcDbXrecord
 10
0.0
 20
0.0
 30
0.0
  0
XRECORD
  5
100000B0
102
{ACAD_REACTORS
330
10000095
102
}
330
10000095
100
AcDbXrecord
 10
0.0
 20
0.0
 30
0.0
  0
XRECORD
  5
100000B3
102
{ACAD_REACTORS
330
10000095
102
}
330
10000095
100
AcDbXrecord
 10
0.0
 20
0.0
 30
0.0
  0
XRECORD
  5
100000B1
102
{ACAD_REACTORS
330
10000095
102
}
330
10000095
100
AcDbXrecord
 10
0.0
 20
0.0
 30
0.0
  0
XRECORD
  5
100000B2
102
{ACAD_REACTORS
330
10000095
102
}
330
10000095
100
AcDbXrecord
 10
0.0
 20
0.0
 30
0.0
  0
XRECORD
  5
100000AF
102
{ACAD_REACTORS
330
10000095
102
}
330
10000095
100
AcDbXrecord
 10
0.0
 20
0.0
 30
0.0
  0
XRECORD
  5
100000AC
102
{ACAD_REACTORS
330
10000095
102
}
330
10000095
100
AcDbXrecord
340
0
  0
XRECORD
  5
100000AD
102
{ACAD_REACTORS
330
10000095
102
}
330
10000095
100
AcDbXrecord
 70
     0
  0
XRECORD
  5
100000A1
102
{ACAD_REACTORS
330
10000095
102
}
330
10000095
100
AcDbXrecord
  1
{FAEB1C32-E019-11D5-929B-00C0DF256EC4}
  0
DICTIONARYVAR
  5
100000C4
102
{ACAD_REACTORS
330
100000B6
102
}
330
100000B6
100
DictionaryVariables
280
     0
  1
1:1
  0
DICTIONARYVAR
  5
100000BD
102
{ACAD_REACTORS
330
100000B6
102
}
330
100000B6
100
DictionaryVariables
280
     0
  1
3.500000
  0
DICTIONARYVAR
  5
100000BE
102
{ACAD_REACTORS
330
100000B6
102
}
330
100000B6
100
DictionaryVariables
280
     0
  1
acadiso.lin
  0
DICTIONARYVAR
  5
100000B8
102
{ACAD_REACTORS
330
100000B6
102
}
330
100000B6
100
DictionaryVariables
280
     0
  1
Standard
  0
DICTIONARYVAR
  5
100000B7
102
{ACAD_REACTORS
330
100000B6
102
}
330
100000B6
100
DictionaryVariables
280
     0
  1
Standard
  0
DICTIONARYVAR
  5
100000BF
102
{ACAD_REACTORS
330
100000B6
102
}
330
100000B6
100
DictionaryVariables
280
     0
  1
2
  0
DICTIONARYVAR
  5
100000C0
102
{ACAD_REACTORS
330
100000B6
102
}
330
100000B6
100
DictionaryVariables
280
     0
  1
1
  0
DICTIONARYVAR
  5
100000C5
102
{ACAD_REACTORS
330
100000B6
102
}
330
100000B6
100
DictionaryVariables
280
     0
  1
1
  0
DICTIONARYVAR
  5
100000BA
102
{ACAD_REACTORS
330
100000B6
102
}
330
100000B6
100
DictionaryVariables
280
     0
  1
80.000000
  0
DICTIONARYVAR
  5
100000B9
102
{ACAD_REACTORS
330
100000B6
102
}
330
100000B6
100
DictionaryVariables
280
     0
  1
5.000000
  0
XRECORD
  5
10000003
102
{ACAD_REACTORS
330
10000001
102
}
330
10000001
100
AcDbXrecord
 70
     4
  0
XRECORD
  5
10000002
102
{ACAD_REACTORS
330
10000001
102
}
330
10000001
100
AcDbXrecord
1040
89.0
  0
ACAD_PROXY_OBJECT
  5
10000005
102
{ACAD_REACTORS
330
10000001
102
}
330
10000001
100
AcDbProxyObject
 90
      499
 91
      509
 93
       34
310
40C8804040
  0
DICTIONARY
  5
100000C8
330
45
100
AcDbDictionary
280
     1
  3
ACAD_XREC_ROUNDTRIP
360
100000C9
  0
DICTIONARY
  5
100000C6
330
44
100
AcDbDictionary
280
     1
  3
ACAD_XREC_ROUNDTRIP
360
100000C7
  0
DICTIONARY
  5
100000CA
330
46
100
AcDbDictionary
280
     1
  3
ACAD_XREC_ROUNDTRIP
360
100000CB
  0
XRECORD
  5
100000C9
102
{ACAD_REACTORS
330
100000C8
102
}
330
100000C8
100
AcDbXrecord
102
MATERIAL
148
0.0
149
0.0
149
0.0
 93
        0
 94
      127
282
     0
 72
     1
 77
     1
171
     1
175
     1
179
     1
273
     0
  0
XRECORD
  5
100000C7
102
{ACAD_REACTORS
330
100000C6
102
}
330
100000C6
100
AcDbXrecord
102
MATERIAL
148
0.0
149
0.0
149
0.0
 93
        0
 94
      127
282
     0
 72
     1
 77
     1
171
     1
175
     1
179
     1
273
     0
  0
XRECORD
  5
100000CB
102
{ACAD_REACTORS
330
100000CA
102
}
330
100000CA
100
AcDbXrecord
102
MATERIAL
148
0.0
149
0.0
149
0.0
 93
        0
 94
      127
282
     0
 72
     1
 77
     1
171
     1
175
     1
179
     1
273
     0
  0
ENDSEC
  0
EOF
